<svg xmlns="http://www.w3.org/2000/svg" viewBox="0 0 250 250"><defs/><style>.st0{fill:#dbd8d2}.st1{fill:#a5a5a5}.st2{fill:#4c4c4c}.st5{fill:#00b7ff}.st6{fill:#0598c6}.st7{fill:#ffbe72}.st8{fill:#dd934a}</style><g id="Capa_1"><path d="M160.53 219.18H89.47v-11.35c0-3.51 2.85-6.36 6.36-6.36h58.35c3.51 0 6.36 2.85 6.36 6.36v11.35z" class="st0"/><path d="M89.73 213.81h70.23v4.81H89.73z" class="st1"/><path d="M110.84 201.5s-6.68 12.31 20.95 12.31l-42.07 2.41v-7.36l1.56-5.48 4.54-1.91 15.02.03z" class="st1"/><path d="M162.35 221h-74.7v-13.17c0-4.51 3.67-8.18 8.18-8.18h58.35c4.51 0 8.18 3.67 8.18 8.18V221zm-71.06-3.64h67.42v-9.53c0-2.5-2.03-4.54-4.54-4.54H95.83c-2.5 0-4.54 2.03-4.54 4.54v9.53z" class="st2"/><path d="M134.37 171.76l-9.37-.47-9.37.47-7.1 29.71h32.94z" class="st0"/><path d="M125 175.66c-.51.18-10.3 0-10.3 0l-5.9 24.96s11.39 1.01 10.16.87c-1.23-.15 6.04-25.83 6.04-25.83z" class="st1"/><path d="M143.78 203.29h-37.55l7.95-33.28 10.82-.55.09.01 10.73.54 7.96 33.28zm-32.94-3.64h28.32l-6.25-26.14-7.91-.4-7.91.4-6.25 26.14z" class="st2"/><g><path fill="#f2f6fb" d="M223.28 150.13H26.72V44.67c0-7.65 6.2-13.84 13.84-13.84h168.87c7.65 0 13.84 6.2 13.84 13.84v105.46z"/><path fill="#dcdee2" d="M106.22 30.82S90.01 150.27 191.2 150.49l-164.49-.36V44.67l2.69-8.52 4.29-3.5 6.86-1.82h65.67z"/><path d="M225.1 151.96H24.9V44.67C24.9 36.03 31.93 29 40.57 29h168.87c8.64 0 15.67 7.03 15.67 15.67v107.29zm-196.56-3.65h192.91V44.67c0-6.63-5.39-12.02-12.02-12.02H40.57c-6.63 0-12.02 5.39-12.02 12.02v103.64z" class="st2"/></g><g><path d="M209.43 176.04H40.57c-7.65 0-13.84-6.2-13.84-13.84v-12.06h196.56v12.06c-.01 7.64-6.21 13.84-13.86 13.84z" class="st0"/><path d="M62.81 150.49c-17.11 25.16 16.58 18.22 159.72 17.86l-7.31 6.94-175.82.37-9.51-2.55s-.08-2.81-1.35-4.05c-1.27-1.24-1.82-6.86-1.82-6.86v-12.06c0-.01 35.26 1.82 36.09.35z" class="st1"/><path d="M209.43 177.86H40.57c-8.64 0-15.67-7.03-15.67-15.67v-13.88h200.2v13.88c0 8.64-7.03 15.67-15.67 15.67zm-180.89-25.9v10.24c0 6.63 5.39 12.02 12.02 12.02h168.87c6.63 0 12.02-5.39 12.02-12.02v-10.24H28.54z" class="st2"/></g><circle cx="125" cy="162.54" r="4.25" class="st2"/></g><g id="Capa_2"><path d="M81.38 93.02l1.43 2.96s22.72 18.45 42.19 18.45 42.29-18.45 42.29-18.45l1.33-2.96c-2.19-6.53-4.87-15.49-6.75-24.96l-4.16-2.34H91.68l-3.55 2.34c-1.88 9.47-4.57 18.43-6.75 24.96zm0 0" class="st5"/><path d="M101.54 67.52l1.53-1H92.54l-3.55 2.34c-1.78 8.94-4.41 17.94-6.52 24.36l10.96 7.01c2.92-9.95 5.81-21.14 8.11-32.71zm0 0" class="st6"/><path d="M125 115.53c-19.63 0-41.94-17.93-42.88-18.7l-.19-.15-1.73-3.58.14-.42c2-5.98 4.79-15.14 6.71-24.82l.09-.45 4.21-2.77H158l4.85 2.73.1.49c1.93 9.69 4.71 18.85 6.71 24.82l.14.41-1.61 3.59-.2.16c-.96.76-23.37 18.69-42.99 18.69zM83.69 95.28c2.21 1.74 23.38 18.06 41.31 18.06 17.89 0 39.11-16.25 41.4-18.05l1.04-2.33c-1.97-5.94-4.65-14.79-6.55-24.19l-3.47-1.95H92.01l-2.89 1.91c-1.9 9.4-4.58 18.27-6.55 24.22l1.12 2.33z" class="st2"/><g><path d="M199.5 45.61l-70.71-23.9a11.88 11.88 0 00-7.59 0l-70.7 23.9c-1.83.62-1.99 3.14-.25 3.98L119.8 83.5c3.28 1.6 7.11 1.6 10.39 0l69.56-33.91c1.74-.84 1.58-3.36-.25-3.98zm0 0" class="st5"/><path d="M73.41 49.84c-1.68-.81-1.52-3.23.25-3.82l61.98-20.82-6.87-2.33c-2.79-1-5.14-.78-7.53.02L52.92 46.01c-.4.13-1.37.51-2.34.9-.88.35-.9 1.58-.04 1.97.88.39 1.77.79 2.13.96l67.4 32.59c3.18 1.54 6.89 1.54 10.07 0l5.07-2.61-61.8-29.98zm0 0" class="st6"/><path d="M125 85.81c-1.94 0-3.87-.44-5.68-1.32L49.76 50.58c-1.21-.59-1.91-1.79-1.82-3.13.09-1.34.93-2.44 2.2-2.87l70.71-23.9c2.67-.9 5.62-.9 8.29 0l70.71 23.9c1.27.43 2.12 1.53 2.2 2.87.09 1.34-.61 2.54-1.82 3.13l-69.56 33.91c-1.8.88-3.73 1.32-5.67 1.32zm0-63.62c-1.17 0-2.33.19-3.45.56l-70.71 23.9c-.62.21-.71.77-.72.94-.01.17 0 .73.59 1.02l69.56 33.91c3 1.46 6.43 1.46 9.43 0l69.56-33.91c.59-.29.6-.85.59-1.02a1.04 1.04 0 00-.72-.94l-70.71-23.9a10.66 10.66 0 00-3.42-.56z" class="st2"/></g><g><path d="M168.62 93.02c-7.97 6.55-20.93 13.88-34.92 18.39a28.524 28.524 0 01-17.39 0c-13.97-4.5-26.92-11.82-34.92-18.39-.77 2.29-1.47 4.28-2.06 5.89a6.8 6.8 0 002.17 7.68c12.8 10.06 26.31 15.55 34.81 18.29 2.81.91 5.74 1.36 8.69 1.36 2.95 0 5.89-.45 8.7-1.36 8.51-2.74 22.01-8.24 34.81-18.29a6.8 6.8 0 002.17-7.68c-.59-1.61-1.3-3.6-2.06-5.89zm0 0" class="st7"/><path d="M92.77 102.07c-4.18-2.48-7.87-4.77-10.87-7.23-.77 2.29-1.03 3.08-1.62 4.68-1.01 2.76.02 4.77 2.33 6.59 2.41 1.9 5.01 3.63 7.44 5.22 1.13-3.5 1.4-4.5 2.57-8.49l.15-.77z" class="st8"/><path d="M125 127.34c-3.09 0-6.13-.48-9.03-1.41-9-2.9-22.41-8.46-35.15-18.48-2.69-2.11-3.7-5.69-2.52-8.92.7-1.91 1.39-3.88 2.05-5.86l.5-1.51 1.23 1.01c8.72 7.16 21.96 14.13 34.57 18.2a27.43 27.43 0 0016.72 0c12.61-4.06 25.86-11.04 34.56-18.2l1.23-1.01.51 1.51c.67 2 1.36 3.97 2.05 5.86 1.18 3.22.16 6.8-2.52 8.92-12.74 10.01-26.15 15.58-35.15 18.48-2.93.93-5.96 1.41-9.05 1.41zM81.92 94.86a228.7 228.7 0 01-1.56 4.43 5.683 5.683 0 001.82 6.44c12.49 9.81 25.64 15.27 34.47 18.11 5.38 1.73 11.34 1.73 16.72 0 8.83-2.85 21.99-8.3 34.47-18.11a5.683 5.683 0 001.82-6.44c-.52-1.44-1.05-2.92-1.56-4.43-8.89 6.97-21.78 13.64-34.05 17.6a29.62 29.62 0 01-18.06 0c-12.29-3.96-25.17-10.63-34.07-17.6z" class="st2"/></g><g><path d="M187.85 108.47h-8.03l-.96 14.85c-.08 1.23.87 2.27 2.07 2.27h5.8c1.2 0 2.15-1.04 2.07-2.27l-.95-14.85zm0 0" class="st7"/><path d="M185.19 122.33l.96-13.86h-5.22l-.96 13.86c-.13 1.66-.14 2.32 2.05 2.32l4.57-.17c.08 0 .09-.11.01-.13-.87-.28-1.48-1.09-1.41-2.02zm0 0" class="st8"/><path d="M186.73 126.69h-5.8c-.87 0-1.69-.35-2.29-1-.61-.65-.93-1.54-.87-2.44l1.02-15.87h10.08l1.02 15.87c.06.9-.26 1.79-.87 2.44-.6.64-1.41 1-2.29 1zm-5.88-17.12l-.89 13.82c-.02.3.08.59.28.8.19.2.43.31.69.31h5.8c.26 0 .51-.11.69-.31.2-.21.3-.5.28-.8l-.89-13.82h-5.96z" class="st2"/><g><path fill="#f2efe2" d="M183.83 105.67a2.29 2.29 0 01-2.29-2.29v-42.4c0-1.09-.73-2.04-1.79-2.32l-51.74-13.64a2.288 2.288 0 01-1.63-2.8 2.288 2.288 0 012.8-1.63l51.74 13.64c3.06.8 5.21 3.58 5.21 6.75v42.4c0 1.26-1.03 2.29-2.3 2.29zm0 0"/><path d="M183.83 106.77c-1.87 0-3.39-1.52-3.39-3.39v-42.4c0-.59-.4-1.11-.97-1.25l-51.75-13.65a3.385 3.385 0 01-2.41-4.14 3.39 3.39 0 014.14-2.41l51.74 13.64c3.55.93 6.03 4.14 6.03 7.81v42.4c0 1.87-1.52 3.39-3.39 3.39zM128.59 41.6c-.53 0-1.02.36-1.16.89-.17.64.21 1.29.85 1.46l51.75 13.64c1.53.4 2.6 1.79 2.6 3.38v42.4c0 .66.54 1.2 1.2 1.2.66 0 1.2-.54 1.2-1.2v-42.4c0-2.67-1.81-5.01-4.39-5.69L128.9 41.64a1.1 1.1 0 00-.31-.04z" class="st2"/><path fill="#ffd064" d="M184.33 106.96v-5.37a2.7 2.7 0 011.8-2.55c-.27-.1-.56-.15-.87-.15l-3.26.02c-1.47 0-2.34 1.03-2.34 2.51v5.54c0 .23-.01.88.09.88h5.46c-.49 0-.88-.39-.88-.88zm0 0"/><g><path d="M185.69 97.8h-3.72c-1.85 0-3.37 1.51-3.37 3.37v6.68c0 .61.49 1.1 1.1 1.1h8.25c.61 0 1.1-.49 1.1-1.1v-6.68c.01-1.85-1.51-3.37-3.36-3.37zm0 0" class="st7"/><path d="M187.96 110.05h-8.25c-1.21 0-2.2-.99-2.2-2.2v-6.68c0-2.46 2-4.46 4.46-4.46h3.72c2.46 0 4.46 2 4.46 4.46v6.68c0 1.21-.98 2.2-2.19 2.2zm-5.98-11.15c-1.25 0-2.27 1.02-2.27 2.27v6.68h8.25v-6.69c0-1.25-1.02-2.27-2.27-2.27h-3.71z" class="st2"/></g></g></g><g><path d="M125.47 36.42A7.595 7.595 0 00117.4 44v.04c.01 1.96 1.65 3.52 3.61 3.52h7.98c1.89 0 3.71-1.46 3.6-3.93-.19-3.84-3.29-6.98-7.12-7.21zm0 0" class="st5"/><path d="M124.04 43.67v-.03c0-2.43 1.39-4.54 3.41-5.57a6.07 6.07 0 00-2.43-.67 6.262 6.262 0 00-6.65 6.25v.03c.01 1.61 1.36 2.9 2.97 2.9h5.67c-1.61-.01-2.96-1.29-2.97-2.91zm0 0" class="st6"/><path d="M128.99 48.65h-7.98c-2.58 0-4.69-2.07-4.7-4.61 0-2.43 1-4.74 2.73-6.37a8.596 8.596 0 016.49-2.34c4.36.26 7.93 3.89 8.14 8.25.07 1.4-.39 2.69-1.28 3.63-.87.91-2.11 1.44-3.4 1.44zM125 37.5c-1.66 0-3.23.62-4.45 1.77A6.43 6.43 0 00118.5 44c.01 1.37 1.13 2.46 2.51 2.46h7.98c.69 0 1.36-.28 1.82-.77.48-.51.72-1.2.68-2.01-.16-3.26-2.83-5.97-6.08-6.17-.14-.01-.28-.01-.41-.01z" class="st2"/></g></g></svg>