<svg xmlns="http://www.w3.org/2000/svg" viewBox="0 0 250 250"><defs/><style>.st0{fill:#dbd8d2}.st1{fill:#a5a5a5}.st2{fill:#4c4c4c}.st5{fill:#00b7ff}.st6{fill:#0598c6}.st7{fill:#ffbe72}.st8{fill:#dd934a}</style><g id="Capa_1"><path d="M160.53 219.18H89.47v-11.35c0-3.51 2.85-6.36 6.36-6.36h58.35c3.51 0 6.36 2.85 6.36 6.36v11.35z" class="st0"/><path d="M89.73 213.81h70.23v4.81H89.73z" class="st1"/><path d="M110.84 201.5s-6.68 12.31 20.95 12.31l-42.07 2.41v-7.36l1.56-5.48 4.54-1.91 15.02.03z" class="st1"/><path d="M162.35 221h-74.7v-13.17c0-4.51 3.67-8.18 8.18-8.18h58.35c4.51 0 8.18 3.67 8.18 8.18V221zm-71.06-3.64h67.42v-9.53c0-2.5-2.03-4.54-4.54-4.54H95.83c-2.5 0-4.54 2.03-4.54 4.54v9.53z" class="st2"/><path d="M134.37 171.76l-9.37-.47-9.37.47-7.1 29.71h32.94z" class="st0"/><path d="M125 175.66c-.51.18-10.3 0-10.3 0l-5.9 24.96s11.39 1.01 10.16.87c-1.23-.15 6.04-25.83 6.04-25.83z" class="st1"/><path d="M143.78 203.29h-37.55l7.95-33.28 10.82-.55.09.01 10.73.54 7.96 33.28zm-32.94-3.64h28.32l-6.25-26.14-7.91-.4-7.91.4-6.25 26.14z" class="st2"/><g><path fill="#f2f6fb" d="M223.28 150.13H26.72V44.67c0-7.65 6.2-13.84 13.84-13.84h168.87c7.65 0 13.84 6.2 13.84 13.84v105.46z"/><path fill="#dcdee2" d="M106.22 30.82S90.01 150.27 191.2 150.49l-164.49-.36V44.67l2.69-8.52 4.29-3.5 6.86-1.82h65.67z"/><path d="M225.1 151.96H24.9V44.67C24.9 36.03 31.93 29 40.57 29h168.87c8.64 0 15.67 7.03 15.67 15.67v107.29zm-196.56-3.65h192.91V44.67c0-6.63-5.39-12.02-12.02-12.02H40.57c-6.63 0-12.02 5.39-12.02 12.02v103.64z" class="st2"/></g><g><path d="M209.43 176.04H40.57c-7.65 0-13.84-6.2-13.84-13.84v-12.06h196.56v12.06c-.01 7.64-6.21 13.84-13.86 13.84z" class="st0"/><path d="M62.81 150.49c-17.11 25.16 16.58 18.22 159.72 17.86l-7.31 6.94-175.82.37-9.51-2.55s-.08-2.81-1.35-4.05c-1.27-1.24-1.82-6.86-1.82-6.86v-12.06c0-.01 35.26 1.82 36.09.35z" class="st1"/><path d="M209.43 177.86H40.57c-8.64 0-15.67-7.03-15.67-15.67v-13.88h200.2v13.88c0 8.64-7.03 15.67-15.67 15.67zm-180.89-25.9v10.24c0 6.63 5.39 12.02 12.02 12.02h168.87c6.63 0 12.02-5.39 12.02-12.02v-10.24H28.54z" class="st2"/></g><circle cx="125" cy="162.54" r="4.25" class="st2"/></g><g id="Capa_2"><path d="M96.82 104.17l.93 1.91S112.43 118 125 118s27.32-11.92 27.32-11.92l.86-1.91c-1.41-4.22-3.14-10.01-4.36-16.12l-2.69-1.51h-42.65l-2.29 1.51c-1.22 6.11-2.96 11.9-4.37 16.12zm0 0" class="st5"/><path d="M109.85 87.7l.99-.65h-6.8l-2.29 1.51c-1.15 5.77-2.85 11.59-4.21 15.73l7.08 4.53c1.87-6.42 3.74-13.65 5.23-21.12zm0 0" class="st6"/><path d="M125 118.71c-12.68 0-27.09-11.58-27.7-12.08l-.12-.1-1.12-2.31.09-.27c1.29-3.86 3.09-9.78 4.34-16.04l.06-.29 2.72-1.79h43.05l3.13 1.76.06.32c1.24 6.26 3.05 12.18 4.34 16.04l.09.26-1.04 2.32-.13.11c-.62.49-15.09 12.07-27.77 12.07zm-26.68-13.08c1.43 1.13 15.1 11.66 26.68 11.66 11.56 0 25.26-10.5 26.74-11.66l.67-1.5c-1.28-3.84-3-9.56-4.23-15.63l-2.24-1.26h-42.26l-1.87 1.23c-1.23 6.07-2.96 11.8-4.23 15.65l.74 1.51z" class="st2"/><g><path d="M173.13 73.54L127.46 58.1a7.613 7.613 0 00-4.9 0L76.87 73.54c-1.18.4-1.28 2.03-.16 2.57l44.93 21.91a7.672 7.672 0 006.71 0l44.93-21.91c1.13-.54 1.02-2.17-.15-2.57zm0 0" class="st5"/><path d="M91.67 76.28c-1.08-.52-.98-2.09.16-2.47l40.04-13.45-4.44-1.51c-1.8-.65-3.32-.5-4.86.01L78.44 73.8c-.26.09-.89.33-1.51.58-.57.22-.58 1.02-.02 1.27.57.25 1.14.51 1.38.62l43.54 21.05c2.05.99 4.45.99 6.5 0l3.28-1.69-39.94-19.35zm0 0" class="st6"/><path d="M125 99.51c-1.25 0-2.5-.28-3.67-.85L76.4 76.75c-.78-.38-1.23-1.16-1.18-2.02s.6-1.58 1.42-1.86l45.67-15.44c1.73-.58 3.63-.58 5.36 0l45.67 15.44c.82.28 1.37.99 1.42 1.86.06.87-.4 1.64-1.18 2.02l-44.93 21.91c-1.15.57-2.4.85-3.65.85zm0-41.09c-.75 0-1.51.12-2.23.36L77.1 74.22c-.4.14-.46.5-.46.6-.01.11 0 .47.38.66l44.93 21.91c1.94.94 4.16.94 6.09 0l44.93-21.91c.38-.19.39-.55.38-.66-.01-.11-.06-.47-.46-.6l-45.67-15.44c-.71-.24-1.47-.36-2.22-.36z" class="st2"/></g><g><path d="M153.18 104.17c-5.15 4.23-13.52 8.97-22.56 11.88a18.403 18.403 0 01-11.23 0c-9.02-2.91-17.39-7.63-22.56-11.88-.49 1.48-.95 2.76-1.33 3.8a4.396 4.396 0 001.4 4.96c8.27 6.5 16.99 10.05 22.49 11.82 1.82.59 3.71.88 5.62.88 1.91 0 3.8-.29 5.62-.88 5.49-1.77 14.22-5.32 22.49-11.82a4.396 4.396 0 001.4-4.96c-.39-1.04-.85-2.32-1.34-3.8zm0 0" class="st7"/><path d="M104.18 110.02c-2.7-1.6-5.09-3.08-7.02-4.67-.49 1.48-.67 1.99-1.05 3.03-.65 1.78.01 3.08 1.5 4.25 1.56 1.23 3.24 2.35 4.8 3.37.73-2.26.9-2.91 1.66-5.48l.11-.5z" class="st8"/><path d="M125 126.34c-1.99 0-3.96-.31-5.83-.91-5.82-1.87-14.48-5.47-22.71-11.94a5.08 5.08 0 01-1.63-5.76c.45-1.23.9-2.51 1.32-3.78l.33-.98.79.65c5.63 4.62 14.19 9.13 22.33 11.75 3.48 1.12 7.32 1.12 10.8 0 8.15-2.63 16.7-7.13 22.33-11.75l.79-.65.33.98c.43 1.29.88 2.57 1.32 3.78.76 2.08.11 4.39-1.63 5.76-8.23 6.47-16.89 10.06-22.71 11.94-1.87.6-3.84.91-5.83.91zm-27.83-20.98c-.33.97-.67 1.92-1.01 2.86-.55 1.5-.08 3.18 1.17 4.16 8.06 6.34 16.56 9.86 22.27 11.7 3.47 1.12 7.33 1.12 10.8 0 5.71-1.84 14.2-5.36 22.27-11.7a3.674 3.674 0 001.17-4.16c-.34-.93-.68-1.89-1.01-2.86-5.75 4.5-14.07 8.81-22 11.37-3.76 1.21-7.9 1.21-11.67 0-7.92-2.56-16.24-6.87-21.99-11.37z" class="st2"/></g><g><path d="M165.6 114.15h-5.19l-.62 9.59c-.05.79.56 1.47 1.34 1.47h3.75c.77 0 1.39-.67 1.34-1.47l-.62-9.59zm0 0" class="st7"/><path d="M163.88 123.1l.62-8.95h-3.37l-.62 8.95c-.09 1.07-.09 1.5 1.32 1.5l2.95-.11c.05 0 .06-.07.01-.08-.56-.18-.95-.71-.91-1.31zm0 0" class="st8"/><path d="M164.88 125.92h-3.75c-.56 0-1.09-.23-1.48-.64-.4-.42-.6-1-.56-1.58l.66-10.25h6.51l.66 10.25c.04.58-.17 1.15-.56 1.58-.39.41-.92.64-1.48.64zm-3.8-11.06l-.57 8.93c-.01.2.05.38.18.52.12.13.28.2.45.2h3.75c.17 0 .33-.07.45-.2.13-.14.19-.32.18-.52l-.57-8.93h-3.87z" class="st2"/><g><path fill="#f2efe2" d="M163 112.34c-.82 0-1.48-.66-1.48-1.48V83.47c0-.7-.47-1.32-1.15-1.5l-33.43-8.81a1.48 1.48 0 11.76-2.86l33.42 8.81c1.98.52 3.36 2.31 3.36 4.36v27.39c.01.82-.66 1.48-1.48 1.48zm0 0"/><path d="M163.01 113.05a2.19 2.19 0 01-2.19-2.19V83.47c0-.38-.26-.71-.63-.81l-33.43-8.81a2.194 2.194 0 01-1.56-2.68 2.201 2.201 0 012.68-1.56l33.42 8.81c2.29.6 3.89 2.67 3.89 5.05v27.39c0 1.21-.98 2.19-2.18 2.19zm-35.69-42.1c-.34 0-.66.23-.75.58-.11.41.14.84.55.94l33.43 8.81c.99.26 1.68 1.15 1.68 2.18v27.39a.77.77 0 001.54 0V83.47c0-1.73-1.17-3.24-2.84-3.68l-33.42-8.81a.582.582 0 00-.19-.03z" class="st2"/><path fill="#ffd064" d="M163.33 113.17v-3.47c0-.76.49-1.41 1.16-1.65-.18-.06-.36-.1-.56-.1l-2.1.01c-.95 0-1.51.66-1.51 1.62v3.58c0 .15-.01.57.06.57H163.91a.552.552 0 01-.58-.56zm0 0"/><g><path d="M164.21 107.26h-2.4c-1.2 0-2.17.98-2.17 2.17v4.32c0 .39.32.71.71.71h5.33c.39 0 .71-.32.71-.71v-4.32a2.196 2.196 0 00-2.18-2.17zm0 0" class="st7"/><path d="M165.67 115.17h-5.33c-.78 0-1.42-.64-1.42-1.42v-4.32a2.88 2.88 0 012.88-2.88h2.4a2.88 2.88 0 012.88 2.88v4.32c.01.78-.63 1.42-1.41 1.42zm-3.86-7.2c-.81 0-1.47.66-1.47 1.47v4.32h5.33v-4.32c0-.81-.66-1.47-1.47-1.47h-2.39z" class="st2"/></g></g></g><g><path d="M125.31 67.61a4.908 4.908 0 00-5.21 4.9v.02c.01 1.26 1.06 2.27 2.33 2.27h5.15c1.22 0 2.4-.95 2.32-2.54-.12-2.47-2.12-4.51-4.59-4.65zm0 0" class="st5"/><path d="M124.38 72.29v-.02c0-1.57.9-2.93 2.2-3.6-.48-.25-1.01-.4-1.57-.44a4.04 4.04 0 00-4.29 4.04v.02c0 1.04.88 1.87 1.92 1.87h3.66c-1.04 0-1.91-.83-1.92-1.87zm0 0" class="st6"/><path d="M127.58 75.51h-5.15c-1.67 0-3.03-1.34-3.04-2.98 0-1.57.64-3.06 1.77-4.12a5.56 5.56 0 014.2-1.51c2.81.17 5.12 2.51 5.26 5.33.04.91-.25 1.74-.83 2.35-.58.59-1.38.93-2.21.93zM125 68.3c-1.08 0-2.09.4-2.87 1.14-.85.8-1.32 1.89-1.32 3.06 0 .89.73 1.59 1.62 1.59h5.15c.45 0 .88-.18 1.18-.49.31-.33.46-.78.44-1.3-.1-2.11-1.83-3.86-3.93-3.98-.1-.01-.18-.02-.27-.02z" class="st2"/></g></g></svg>