<?xml version="1.0" encoding="utf-8"?>
<!-- Generator: Adobe Illustrator 24.0.0, SVG Export Plug-In . SVG Version: 6.00 Build 0)  -->
<svg version="1.1" xmlns="http://www.w3.org/2000/svg" xmlns:xlink="http://www.w3.org/1999/xlink" x="0px" y="0px"
	 viewBox="0 0 500 500" style="enable-background:new 0 0 500 500;" xml:space="preserve">
<style type="text/css">
	.st0{fill-rule:evenodd;clip-rule:evenodd;fill:#FF9716;}
	.st1{fill:#FF9716;}
	.st2{fill:url(#SVGID_1_);}
	.st3{fill:none;stroke:url(#SVGID_2_);stroke-miterlimit:10;}
	.st4{fill:url(#SVGID_3_);}
	.st5{fill:none;stroke:url(#SVGID_4_);stroke-miterlimit:10;}
	.st6{fill-rule:evenodd;clip-rule:evenodd;fill:url(#SVGID_5_);}
	.st7{fill:url(#SVGID_6_);}
	.st8{fill:none;stroke:url(#SVGID_7_);stroke-miterlimit:10;}
	.st9{fill:none;stroke:url(#SVGID_8_);stroke-miterlimit:10;}
	.st10{fill:url(#SVGID_9_);}
	.st11{fill:url(#SVGID_10_);}
	.st12{fill:url(#SVGID_11_);}
	.st13{fill:none;stroke:#B8BED4;stroke-width:3;stroke-miterlimit:10;}
	.st14{fill:url(#SVGID_12_);}
	.st15{fill:url(#SVGID_13_);}
	.st16{fill:none;stroke:#BFC2EC;stroke-miterlimit:10;}
	.st17{fill:#3D3D3D;}
	.st18{fill:#FF7220;}
	.st19{fill:url(#SVGID_14_);}
	.st20{fill:#BFC2EC;}
	.st21{fill-rule:evenodd;clip-rule:evenodd;fill:url(#SVGID_15_);}
	.st22{fill-rule:evenodd;clip-rule:evenodd;fill:url(#SVGID_16_);}
	.st23{fill:url(#SVGID_17_);}
	.st24{fill:url(#SVGID_18_);}
	.st25{fill:#FFFFFF;}
	.st26{fill-rule:evenodd;clip-rule:evenodd;fill:url(#SVGID_19_);}
	.st27{fill-rule:evenodd;clip-rule:evenodd;fill:url(#XMLID_2_);}
	.st28{fill-rule:evenodd;clip-rule:evenodd;fill:#3A367E;}
	.st29{fill-rule:evenodd;clip-rule:evenodd;fill:url(#SVGID_20_);}
	.st30{fill-rule:evenodd;clip-rule:evenodd;fill:url(#XMLID_3_);}
	.st31{fill-rule:evenodd;clip-rule:evenodd;fill:url(#XMLID_5_);}
	.st32{fill-rule:evenodd;clip-rule:evenodd;fill:url(#SVGID_21_);}
	.st33{fill-rule:evenodd;clip-rule:evenodd;fill:url(#SVGID_22_);}
	.st34{fill-rule:evenodd;clip-rule:evenodd;fill:url(#SVGID_23_);}
	.st35{fill-rule:evenodd;clip-rule:evenodd;fill:url(#SVGID_24_);}
	.st36{fill:url(#SVGID_25_);}
	.st37{fill:url(#SVGID_26_);}
</style>
<g id="BACKGROUND">
</g>
<g id="OBJECTS">
	<g>
		<path class="st0" d="M443.16,322.6L443.16,322.6l0.01-15.92h-2.87c-6.46-20.75-23.57-40.61-51.34-56.64
			c-72.39-41.8-189.76-41.8-262.15,0c-27.77,16.04-44.88,35.9-51.34,56.64h-2.95v15.92h0.09c-1.42,28.42,16.64,57.1,54.21,78.79
			c72.39,41.8,189.76,41.8,262.15,0C426.52,379.7,444.58,351.02,443.16,322.6z"/>
		<path class="st1" d="M433.57,219.34l-81.85-47.26c-5.98-3.45-10.83-12.72-10.83-20.7v-49.74c0-7.98,4.85-11.64,10.83-8.19
			l81.85,47.26c5.98,3.45,10.83,12.72,10.83,20.7v49.74C444.4,219.13,439.55,222.8,433.57,219.34z"/>
		<g>
			
				<linearGradient id="SVGID_1_" gradientUnits="userSpaceOnUse" x1="130.8723" y1="214.6254" x2="162.8558" y2="262.4049" gradientTransform="matrix(-0.8982 0.4397 0.4397 0.8982 418.4423 -88.9258)">
				<stop  offset="0" style="stop-color:#8B8BFF"/>
				<stop  offset="0.6173" style="stop-color:#B4B4FF"/>
			</linearGradient>
			<path class="st2" d="M406.49,195.69c0.96,4.09-0.77,8.35-3.04,11.88c-2.48,3.85-5.76,7.33-9.93,9.22
				c-4.17,1.89-9.32,1.99-13.16-0.5c-4.56-2.96-6.38-8.78-6.69-14.21c-0.16-2.83,0.01-5.76,1.19-8.34c1.65-3.62,4.88-6.26,6.79-9.75
				c1.51-2.75,2.01-5.96,3.52-8.68c4.11-7.43,14.85-10.02,22.42-12.25c-1.41,0.42-2.71,8.02-2.81,9.37c-0.2,2.76,0.72,4.47,1.43,7
				c0.79,2.79,0.64,4.15-0.05,6.98C405.22,190.24,405.58,191.84,406.49,195.69z"/>
			
				<linearGradient id="SVGID_2_" gradientUnits="userSpaceOnUse" x1="136.569" y1="220.3138" x2="174.7374" y2="277.3329" gradientTransform="matrix(-0.8982 0.4397 0.4397 0.8982 418.4423 -88.9258)">
				<stop  offset="0.0754" style="stop-color:#FFFFFF"/>
				<stop  offset="1" style="stop-color:#FFFFFF"/>
			</linearGradient>
			<path class="st3" d="M397.82,170.04c-3.43,2.97-6.39,6.69-7.58,11.08c-0.78,2.88-0.77,5.93-1.54,8.82
				c-0.63,2.35-1.77,4.52-2.76,6.74c-5.57,12.53-6.34,27.11-2.12,40.16"/>
			<g>
				
					<linearGradient id="SVGID_3_" gradientUnits="userSpaceOnUse" x1="322.5442" y1="194.5424" x2="376.9719" y2="194.5424" gradientTransform="matrix(0.9754 0.2203 -0.2203 0.9754 121.3864 -54.9886)">
					<stop  offset="0" style="stop-color:#7C76F3"/>
					<stop  offset="1" style="stop-color:#594DC2"/>
				</linearGradient>
				<path class="st4" d="M392.83,222.89c-1.37-6.77-2.37-16.1,4.18-20.78c1.88-1.34,4.35-1.59,6.28-2.86
					c1.19-0.79,2.1-1.92,3.16-2.87c2.51-2.23,5.79-3.35,8.98-4.41c6.57-2.19,14.23-1.3,20.9,0.26c5.69,1.33,10.07,7.1,13,11.87
					c-1.63-2.65-9.58,0.38-11.22,1.62c-3.51,2.65-5.5,7.54-7.99,11.05c-3.02,4.26-7.24,7.56-11.72,10.24
					c-4.35,2.61-9.25,4.75-14.32,4.46C399.01,231.18,393.83,227.86,392.83,222.89z"/>
				
					<linearGradient id="SVGID_4_" gradientUnits="userSpaceOnUse" x1="126.9512" y1="252.154" x2="159.3969" y2="300.6238" gradientTransform="matrix(-0.8982 0.4397 0.4397 0.8982 418.4423 -88.9258)">
					<stop  offset="0.0754" style="stop-color:#FFFFFF"/>
					<stop  offset="1" style="stop-color:#FFFFFF"/>
				</linearGradient>
				<path class="st5" d="M436.71,196.78c-12.97,0.77-25.32,7.2-34.15,16.72c-8.83,9.53-14.23,21.97-16.19,34.82"/>
			</g>
		</g>
		<path class="st1" d="M99.76,234.02l102.28-59.05c4.95-2.86,8.96-10.52,8.96-17.12V98.88c0-6.6-4.01-9.63-8.96-6.77L99.76,151.16
			c-4.95,2.86-8.96,10.52-8.96,17.12v58.97C90.8,233.85,94.81,236.88,99.76,234.02z"/>
		<linearGradient id="SVGID_5_" gradientUnits="userSpaceOnUse" x1="72.5097" y1="306.6784" x2="443.2482" y2="306.6784">
			<stop  offset="0" style="stop-color:#8B8BFF"/>
			<stop  offset="0.6173" style="stop-color:#B4B4FF"/>
		</linearGradient>
		<ellipse class="st6" cx="257.88" cy="306.68" rx="185.37" ry="107.02"/>
		<g>
			<linearGradient id="SVGID_6_" gradientUnits="userSpaceOnUse" x1="85.2374" y1="225.9498" x2="122.3554" y2="281.3995">
				<stop  offset="0" style="stop-color:#7C76F3"/>
				<stop  offset="1" style="stop-color:#594DC2"/>
			</linearGradient>
			<path class="st7" d="M91.04,267.42c1.08,4.76,5.06,8.31,9.23,10.83c4.55,2.75,9.74,4.7,15.05,4.55
				c5.31-0.15,10.73-2.68,13.46-7.24c3.24-5.41,2.17-12.41-0.28-18.23c-1.28-3.04-2.95-6-5.5-8.09c-3.57-2.94-8.28-4.03-12.05-6.69
				c-2.98-2.1-5.14-5.18-8.09-7.25c-8.08-5.64-20.6-2.87-29.62-1.32c1.69-0.29,6.91,6.98,7.71,8.34c1.62,2.78,1.53,5.02,2.08,8.02
				c0.61,3.31,1.44,4.65,3.62,7.25C89.57,261.09,90.02,262.95,91.04,267.42z"/>
			<linearGradient id="SVGID_7_" gradientUnits="userSpaceOnUse" x1="91.8701" y1="232.6011" x2="136.1169" y2="298.7004">
				<stop  offset="0.0754" style="stop-color:#FFFFFF"/>
				<stop  offset="1" style="stop-color:#FFFFFF"/>
			</linearGradient>
			<path class="st8" d="M86.99,236.27c5.1,1.35,10.08,3.71,13.55,7.68c2.28,2.61,3.83,5.79,6.11,8.4c1.86,2.12,4.15,3.81,6.31,5.62
				c12.19,10.22,20.44,25.03,22.7,40.77"/>
			<g>
				<path class="st1" d="M119.15,288.8c-2.02-7.76-5.74-17.99-14.96-19.52c-2.64-0.44-5.35,0.57-8,0.22
					c-1.64-0.21-3.17-0.93-4.76-1.38c-3.76-1.05-7.75-0.54-11.61-0.02c-7.96,1.07-15.49,5.91-21.65,10.93
					c-5.25,4.28-6.88,12.54-7.5,19.01c0.34-3.59,10.18-4.49,12.53-4.04c5.01,0.97,9.58,5.05,13.96,7.44
					c5.33,2.9,11.4,4.18,17.44,4.69c5.87,0.5,12.06,0.23,17.2-2.65C116.94,300.6,120.64,294.5,119.15,288.8z"/>
				<linearGradient id="SVGID_8_" gradientUnits="userSpaceOnUse" x1="80.7027" y1="269.5857" x2="118.313" y2="325.7708">
					<stop  offset="0.0754" style="stop-color:#FFFFFF"/>
					<stop  offset="1" style="stop-color:#FFFFFF"/>
				</linearGradient>
				<path class="st9" d="M60.09,283.97c13.91-5.82,30.07-5.42,44.13,0.01c14.06,5.43,26.04,15.64,34.63,28.03"/>
			</g>
		</g>
		<linearGradient id="SVGID_9_" gradientUnits="userSpaceOnUse" x1="231.5183" y1="69.8983" x2="370.8374" y2="278.0241">
			<stop  offset="0" style="stop-color:#8B8BFF"/>
			<stop  offset="0.6173" style="stop-color:#B4B4FF"/>
		</linearGradient>
		<path class="st10" d="M313.69,194.45l-81.85-47.26c-5.98-3.45-10.83-12.72-10.83-20.7V76.75c0-7.98,4.85-11.64,10.83-8.19
			l81.85,47.26c5.98,3.45,10.83,12.72,10.83,20.7v49.74C324.52,194.24,319.67,197.91,313.69,194.45z"/>
		<g>
			<g>
				<g>
					<g>
						<linearGradient id="SVGID_10_" gradientUnits="userSpaceOnUse" x1="239.6853" y1="429.1911" x2="194.9042" y2="369.9093">
							<stop  offset="0.0754" style="stop-color:#7378D1"/>
							<stop  offset="1" style="stop-color:#594DC2"/>
						</linearGradient>
						<path class="st11" d="M178.95,389.16l-12.88-68.42l-0.01-0.03l-21.05-111.68l-34.63,143.83l1.67,0.5l10.05,3l22.9,6.83
							l22.91,19.61l11.72,10.04L178.95,389.16z M145.01,360.73l-31.78-9.49l0.01-0.02l31.77-131.99l19.31,102.49l0.01,0.03
							l12.47,66.18L145.01,360.73z"/>
						<linearGradient id="SVGID_11_" gradientUnits="userSpaceOnUse" x1="113.2442" y1="285.2206" x2="164.3251" y2="285.2206">
							<stop  offset="0" style="stop-color:#7C76F3"/>
							<stop  offset="1" style="stop-color:#594DC2"/>
						</linearGradient>
						<polygon class="st12" points="164.33,321.72 113.24,351.21 145.02,219.23 						"/>
						<linearGradient id="SVGID_12_" gradientUnits="userSpaceOnUse" x1="150.8204" y1="357.9695" x2="194.3222" y2="435.5904">
							<stop  offset="0" style="stop-color:#7C76F3"/>
							<stop  offset="1" style="stop-color:#594DC2"/>
						</linearGradient>
						<polygon class="st14" points="176.8,387.93 145.01,360.73 113.24,351.23 116.09,349.59 164.33,321.75 						"/>
						<g>
							<linearGradient id="SVGID_13_" gradientUnits="userSpaceOnUse" x1="145.0208" y1="237.6644" x2="402.8353" y2="237.6644">
								<stop  offset="0" style="stop-color:#FFFFFF"/>
								<stop  offset="1" style="stop-color:#CCCEEE"/>
							</linearGradient>
							<path class="st15" d="M364.74,81.03l-193.1,112.5l-1,0.58l-9.35,5.45l-0.99,0.58l-4.05,2.35l-0.99,0.58l-9.87,5.74
								l-0.36,0.22l0.4,2.16l0.25,1.33l33.64,180.02l0.33,1.75l223.2-130.32L364.74,81.03z M319.26,114.77
								c1.77-1.05,3.57-0.08,4.03,2.16c0.45,2.24-0.63,4.9-2.39,5.95c-1.77,1.06-3.57,0.08-4.01-2.15
								C316.42,118.49,317.49,115.82,319.26,114.77z M302.87,124.49c1.77-1.05,3.57-0.08,4.03,2.16c0.45,2.23-0.61,4.9-2.39,5.95
								c-1.77,1.05-3.57,0.08-4.03-2.15C300.03,128.21,301.1,125.53,302.87,124.49z M286.48,134.2c1.76-1.05,3.57-0.08,4.03,2.16
								c0.44,2.23-0.63,4.9-2.4,5.95c-1.76,1.05-3.57,0.08-4.01-2.15C283.63,137.92,284.7,135.24,286.48,134.2z M270.09,143.91
								c1.76-1.06,3.57-0.09,4.03,2.16c0.44,2.23-0.63,4.9-2.4,5.95c-1.76,1.05-3.57,0.08-4.01-2.15
								C267.25,147.62,268.32,144.96,270.09,143.91z M253.69,153.62c1.77-1.06,3.57-0.09,4.03,2.16c0.44,2.23-0.63,4.9-2.39,5.95
								c-1.77,1.05-3.57,0.08-4.03-2.15C250.85,157.33,251.93,154.67,253.69,153.62z M237.3,163.32c1.77-1.05,3.57-0.08,4.03,2.16
								c0.45,2.24-0.63,4.9-2.39,5.95c-1.77,1.06-3.57,0.09-4.03-2.15C234.46,167.04,235.54,164.37,237.3,163.32z M220.91,173.04
								c1.76-1.05,3.57-0.08,4.01,2.16c0.45,2.24-0.61,4.9-2.39,5.95c-1.77,1.06-3.57,0.09-4.01-2.15
								C218.07,176.76,219.14,174.08,220.91,173.04z M204.52,182.75c1.76-1.05,3.57-0.08,4.01,2.16c0.46,2.23-0.61,4.9-2.39,5.95
								c-1.76,1.05-3.57,0.08-4.01-2.15C201.68,186.47,202.75,183.8,204.52,182.75z M188.12,192.46c1.77-1.05,3.57-0.08,4.03,2.16
								c0.44,2.23-0.63,4.9-2.39,5.95c-1.77,1.05-3.57,0.08-4.03-2.15C185.28,196.18,186.35,193.51,188.12,192.46z M171.74,202.18
								c1.11-0.66,2.24-0.52,3.04,0.23c0.47,0.44,0.82,1.1,0.98,1.93c0.24,1.16,0.06,2.45-0.41,3.56c0.01,0.01,0,0.01-0.01,0.02
								c-0.44,1-1.11,1.87-1.96,2.37c-0.89,0.52-1.77,0.55-2.49,0.15c-0.52-0.26-0.96-0.74-1.24-1.4c-0.14-0.27-0.23-0.57-0.3-0.9
								C168.89,205.88,169.96,203.22,171.74,202.18z M152.88,216.23c0.16-1.79,1.11-3.54,2.47-4.34c1.02-0.61,2.07-0.55,2.84,0.07
								c0.42,0.32,0.76,0.8,0.98,1.41c0.08,0.22,0.15,0.44,0.19,0.68c0.45,2.23-0.61,4.9-2.39,5.95c-1.77,1.05-3.57,0.08-4.03-2.15
								c-0.02-0.14-0.05-0.28-0.07-0.43C152.83,217.03,152.83,216.63,152.88,216.23z M337.28,113.17c-1.76,1.06-3.57,0.09-4.01-2.15
								c-0.45-2.24,0.61-4.91,2.39-5.96c1.77-1.05,3.57-0.08,4.03,2.16C340.12,109.46,339.06,112.12,337.28,113.17z M353.67,103.47
								c-1.76,1.05-3.56,0.08-4.01-2.16c-0.44-2.24,0.61-4.9,2.39-5.95c1.77-1.06,3.57-0.09,4.03,2.16
								C356.51,99.75,355.44,102.42,353.67,103.47z"/>
							<path class="st16" d="M246.44,224.81l-11.06,6.55c-1.27,0.75-2.6-0.15-2.98-2.02l-2.63-13.06c-0.38-1.87,0.35-3.99,1.62-4.74
								l11.06-6.55c1.27-0.75,2.6,0.15,2.98,2.02l2.63,13.06C248.43,221.94,247.7,224.06,246.44,224.81z"/>
							<path class="st16" d="M268.51,211.73l-11.06,6.55c-1.27,0.75-2.6-0.15-2.98-2.02l-2.63-13.06c-0.38-1.87,0.35-3.99,1.62-4.74
								l11.06-6.55c1.27-0.75,2.6,0.15,2.98,2.02l2.63,13.06C270.51,208.86,269.78,210.98,268.51,211.73z"/>
							<path class="st16" d="M290.59,198.65l-11.06,6.55c-1.27,0.75-2.6-0.15-2.98-2.02l-2.63-13.06c-0.38-1.87,0.35-3.99,1.62-4.74
								l11.06-6.55c1.27-0.75,2.6,0.15,2.98,2.02l2.63,13.06C292.59,195.78,291.86,197.9,290.59,198.65z"/>
							<path class="st16" d="M312.67,185.57l-11.06,6.55c-1.27,0.75-2.6-0.15-2.98-2.02l-2.63-13.06c-0.38-1.87,0.35-3.99,1.62-4.74
								l11.06-6.55c1.27-0.75,2.6,0.15,2.98,2.02l2.63,13.06C314.66,182.7,313.94,184.82,312.67,185.57z"/>
							<path class="st16" d="M185.45,290.16l-11.06,6.55c-1.27,0.75-2.6-0.15-2.98-2.02l-2.63-13.06c-0.38-1.87,0.35-3.99,1.62-4.74
								l11.06-6.55c1.27-0.75,2.6,0.15,2.98,2.02l2.63,13.06C187.44,287.28,186.72,289.41,185.45,290.16z"/>
							<path class="st16" d="M207.53,277.08l-11.06,6.55c-1.27,0.75-2.6-0.15-2.98-2.02l-2.63-13.06c-0.38-1.87,0.35-3.99,1.62-4.74
								l11.06-6.55c1.27-0.75,2.6,0.15,2.98,2.02l2.63,13.06C209.52,274.2,208.8,276.33,207.53,277.08z"/>
							<path class="st16" d="M229.61,264l-11.06,6.55c-1.27,0.75-2.6-0.15-2.98-2.02l-2.63-13.06c-0.38-1.87,0.35-3.99,1.62-4.74
								l11.06-6.55c1.27-0.75,2.6,0.15,2.98,2.02l2.63,13.06C231.6,261.12,230.88,263.25,229.61,264z"/>
							<path class="st16" d="M251.69,250.92l-11.06,6.55c-1.27,0.75-2.6-0.15-2.98-2.02l-2.63-13.06c-0.38-1.87,0.35-3.99,1.62-4.74
								l11.06-6.55c1.27-0.75,2.6,0.15,2.98,2.02l2.63,13.06C253.68,248.04,252.96,250.17,251.69,250.92z"/>
							<path class="st16" d="M273.77,237.84l-11.06,6.55c-1.27,0.75-2.6-0.15-2.98-2.02l-2.63-13.06c-0.38-1.87,0.35-3.99,1.62-4.74
								l11.06-6.55c1.27-0.75,2.6,0.15,2.98,2.02l2.63,13.06C275.76,234.96,275.03,237.09,273.77,237.84z"/>
							<path class="st16" d="M295.84,224.76l-11.06,6.55c-1.27,0.75-2.6-0.15-2.98-2.02l-2.63-13.06c-0.38-1.87,0.35-3.99,1.62-4.74
								l11.06-6.55c1.27-0.75,2.6,0.15,2.98,2.02l2.63,13.06C297.84,221.88,297.11,224.01,295.84,224.76z"/>
							<path class="st16" d="M317.92,211.68l-11.06,6.55c-1.27,0.75-2.6-0.15-2.98-2.02l-2.63-13.06c-0.38-1.87,0.35-3.99,1.62-4.74
								l11.06-6.55c1.27-0.75,2.6,0.15,2.98,2.02l2.63,13.06C319.92,208.8,319.19,210.93,317.92,211.68z"/>
							<path class="st16" d="M190.7,316.26l-11.06,6.55c-1.27,0.75-2.6-0.15-2.98-2.02l-2.63-13.06c-0.38-1.87,0.35-3.99,1.62-4.74
								l11.06-6.55c1.27-0.75,2.6,0.15,2.98,2.02l2.63,13.06C192.7,313.39,191.97,315.51,190.7,316.26z"/>
							<path class="st1" d="M212.78,303.18l-11.06,6.55c-1.27,0.75-2.6-0.15-2.98-2.02l-2.63-13.06c-0.38-1.87,0.35-3.99,1.62-4.74
								l11.06-6.55c1.27-0.75,2.6,0.15,2.98,2.02l2.63,13.06C214.77,300.31,214.05,302.43,212.78,303.18z"/>
							<path class="st16" d="M234.86,290.1l-11.06,6.55c-1.27,0.75-2.6-0.15-2.98-2.02l-2.63-13.06c-0.38-1.87,0.35-3.99,1.62-4.74
								l11.06-6.55c1.27-0.75,2.6,0.15,2.98,2.02l2.63,13.06C236.85,287.23,236.13,289.35,234.86,290.1z"/>
							<path class="st16" d="M256.94,277.02l-11.06,6.55c-1.27,0.75-2.6-0.15-2.98-2.02l-2.63-13.06c-0.38-1.87,0.35-3.99,1.62-4.74
								l11.06-6.55c1.27-0.75,2.6,0.15,2.98,2.02l2.63,13.06C258.93,274.15,258.21,276.27,256.94,277.02z"/>
							<path class="st16" d="M279.02,263.94l-11.06,6.55c-1.27,0.75-2.6-0.15-2.98-2.02l-2.63-13.06c-0.38-1.87,0.35-3.99,1.62-4.74
								l11.06-6.55c1.27-0.75,2.6,0.15,2.98,2.02l2.63,13.06C281.01,261.07,280.29,263.19,279.02,263.94z"/>
							<path class="st16" d="M301.1,250.86l-11.06,6.55c-1.27,0.75-2.6-0.15-2.98-2.02l-2.63-13.06c-0.38-1.87,0.35-3.99,1.62-4.74
								l11.06-6.55c1.27-0.75,2.6,0.15,2.98,2.02l2.63,13.06C303.09,247.99,302.36,250.11,301.1,250.86z"/>
							<path class="st16" d="M323.17,237.78l-11.06,6.55c-1.27,0.75-2.6-0.15-2.98-2.02l-2.63-13.06c-0.38-1.87,0.35-3.99,1.62-4.74
								l11.06-6.55c1.27-0.75,2.6,0.15,2.98,2.02l2.63,13.06C325.17,234.91,324.44,237.03,323.17,237.78z"/>
							<path class="st16" d="M195.95,342.37l-11.06,6.55c-1.27,0.75-2.6-0.15-2.98-2.02l-2.63-13.06c-0.38-1.87,0.35-3.99,1.62-4.74
								l11.06-6.55c1.27-0.75,2.6,0.15,2.98,2.02l2.63,13.06C197.95,339.49,197.22,341.62,195.95,342.37z"/>
							<path class="st16" d="M218.03,329.29l-11.06,6.55c-1.27,0.75-2.6-0.15-2.98-2.02l-2.63-13.06c-0.38-1.87,0.35-3.99,1.62-4.74
								l11.06-6.55c1.27-0.75,2.6,0.15,2.98,2.02l2.63,13.06C220.03,326.41,219.3,328.54,218.03,329.29z"/>
							<path class="st16" d="M240.11,316.21l-11.06,6.55c-1.27,0.75-2.6-0.15-2.98-2.02l-2.63-13.06c-0.38-1.87,0.35-3.99,1.62-4.74
								l11.06-6.55c1.27-0.75,2.6,0.15,2.98,2.02l2.63,13.06C242.1,313.33,241.38,315.46,240.11,316.21z"/>
							<path class="st16" d="M262.19,303.13l-11.06,6.55c-1.27,0.75-2.6-0.15-2.98-2.02l-2.63-13.06c-0.38-1.87,0.35-3.99,1.62-4.74
								l11.06-6.55c1.27-0.75,2.6,0.15,2.98,2.02l2.63,13.06C264.18,300.25,263.46,302.38,262.19,303.13z"/>
							<path class="st16" d="M284.27,290.05l-11.06,6.55c-1.27,0.75-2.6-0.15-2.98-2.02l-2.63-13.06c-0.38-1.87,0.35-3.99,1.62-4.74
								l11.06-6.55c1.27-0.75,2.6,0.15,2.98,2.02l2.63,13.06C286.26,287.17,285.54,289.3,284.27,290.05z"/>
							<path class="st16" d="M306.35,276.97l-11.06,6.55c-1.27,0.75-2.6-0.15-2.98-2.02l-2.63-13.06c-0.38-1.87,0.35-3.99,1.62-4.74
								l11.06-6.55c1.27-0.75,2.6,0.15,2.98,2.02l2.63,13.06C308.34,274.09,307.62,276.22,306.35,276.97z"/>
							<path class="st16" d="M328.43,263.89l-11.06,6.55c-1.27,0.75-2.6-0.15-2.98-2.02l-2.63-13.06c-0.38-1.87,0.35-3.99,1.62-4.74
								l11.06-6.55c1.27-0.75,2.6,0.15,2.98,2.02l2.63,13.06C330.42,261.01,329.7,263.14,328.43,263.89z"/>
							<path class="st16" d="M201.21,368.47l-11.06,6.55c-1.27,0.75-2.6-0.15-2.98-2.02l-2.63-13.06c-0.38-1.87,0.35-3.99,1.62-4.74
								l11.06-6.55c1.27-0.75,2.6,0.15,2.98,2.02l2.63,13.06C203.2,365.6,202.47,367.72,201.21,368.47z"/>
							<path class="st16" d="M223.28,355.39l-11.06,6.55c-1.27,0.75-2.6-0.15-2.98-2.02l-2.63-13.06c-0.38-1.87,0.35-3.99,1.62-4.74
								l11.06-6.55c1.27-0.75,2.6,0.15,2.98,2.02l2.63,13.06C225.28,352.52,224.55,354.64,223.28,355.39z"/>
							<path class="st16" d="M245.36,342.31l-11.06,6.55c-1.27,0.75-2.6-0.15-2.98-2.02l-2.63-13.06c-0.38-1.87,0.35-3.99,1.62-4.74
								l11.06-6.55c1.27-0.75,2.6,0.15,2.98,2.02l2.63,13.06C247.36,339.44,246.63,341.56,245.36,342.31z"/>
							<path class="st16" d="M267.44,329.23l-11.06,6.55c-1.27,0.75-2.6-0.15-2.98-2.02l-2.63-13.06c-0.38-1.87,0.35-3.99,1.62-4.74
								l11.06-6.55c1.27-0.75,2.6,0.15,2.98,2.02l2.63,13.06C269.43,326.36,268.71,328.48,267.44,329.23z"/>
							<path class="st16" d="M289.52,316.15l-11.06,6.55c-1.27,0.75-2.6-0.15-2.98-2.02l-2.63-13.06c-0.38-1.87,0.35-3.99,1.62-4.74
								l11.06-6.55c1.27-0.75,2.6,0.15,2.98,2.02l2.63,13.06C291.51,313.28,290.79,315.4,289.52,316.15z"/>
							<line class="st16" x1="161.4" y1="244.89" x2="309.52" y2="157.14"/>
							<polygon class="st1" points="288.2,152.04 306.34,141.3 308.28,150.98 290.15,161.72 							"/>
							<line class="st16" x1="317.73" y1="152.28" x2="360.39" y2="127"/>
							<line class="st16" x1="320.43" y1="165.69" x2="363.09" y2="140.42"/>
							<line class="st16" x1="323.13" y1="179.11" x2="365.79" y2="153.83"/>
							<line class="st16" x1="325.83" y1="192.52" x2="368.49" y2="167.25"/>
							<line class="st16" x1="328.53" y1="205.94" x2="371.19" y2="180.66"/>
							<line class="st16" x1="331.22" y1="219.35" x2="373.89" y2="194.08"/>
							<line class="st16" x1="333.92" y1="232.77" x2="376.59" y2="207.49"/>
							<line class="st16" x1="336.62" y1="246.18" x2="379.28" y2="220.91"/>
							<line class="st16" x1="339.32" y1="259.6" x2="381.98" y2="234.32"/>
							<line class="st16" x1="342.02" y1="273.01" x2="384.68" y2="247.74"/>
							<line class="st16" x1="344.72" y1="286.43" x2="387.38" y2="261.16"/>
							<g>
								<g>
									<path class="st17" d="M239.52,221.57l-0.74-3.7l-0.86,0.51l-0.15-0.72c0.18-0.11,0.33-0.22,0.45-0.33s0.2-0.23,0.27-0.35
										c0.06-0.12,0.1-0.26,0.12-0.4c0.02-0.14,0.02-0.29,0-0.45l0.67-0.4l1.08,5.35L239.52,221.57z"/>
								</g>
								<g>
									<path class="st17" d="M260.19,209.32c-0.05-0.25-0.08-0.49-0.09-0.72c-0.01-0.23,0.01-0.48,0.06-0.75
										c0.05-0.26,0.13-0.55,0.26-0.86c0.12-0.31,0.29-0.67,0.52-1.08c0.13-0.22,0.23-0.42,0.31-0.59s0.14-0.32,0.18-0.45
										s0.06-0.25,0.07-0.37s0-0.22-0.03-0.34c-0.03-0.13-0.06-0.24-0.11-0.31c-0.05-0.07-0.1-0.12-0.17-0.14
										c-0.06-0.02-0.13-0.02-0.21,0c-0.08,0.02-0.16,0.06-0.24,0.1c-0.19,0.11-0.33,0.27-0.41,0.47
										c-0.08,0.2-0.09,0.48-0.02,0.84l-0.79,0.47c-0.12-0.58-0.09-1.1,0.09-1.57c0.17-0.47,0.48-0.83,0.92-1.09
										c0.21-0.13,0.41-0.21,0.6-0.25s0.36-0.03,0.51,0.02c0.15,0.06,0.28,0.16,0.39,0.31c0.11,0.15,0.19,0.36,0.24,0.63
										c0.04,0.21,0.06,0.4,0.05,0.59c-0.01,0.19-0.04,0.4-0.11,0.61c-0.06,0.22-0.16,0.46-0.28,0.72
										c-0.12,0.26-0.28,0.56-0.46,0.9c-0.13,0.25-0.23,0.49-0.31,0.73c-0.08,0.24-0.1,0.43-0.08,0.58l1.82-1.08l0.18,0.91
										L260.19,209.32z"/>
								</g>
								<g>
									<path class="st17" d="M282.74,192.46c0.18-0.11,0.32-0.21,0.42-0.32c0.11-0.11,0.18-0.21,0.23-0.32
										c0.05-0.1,0.08-0.21,0.08-0.31c0.01-0.1,0-0.2-0.02-0.3c-0.05-0.27-0.14-0.45-0.25-0.53c-0.12-0.09-0.27-0.08-0.46,0.04
										c-0.16,0.1-0.28,0.25-0.35,0.47c-0.08,0.22-0.08,0.46-0.03,0.74l-0.77,0.46c-0.05-0.26-0.07-0.51-0.04-0.76
										c0.02-0.25,0.08-0.48,0.17-0.71c0.09-0.22,0.21-0.42,0.36-0.61c0.15-0.18,0.33-0.33,0.53-0.45
										c0.18-0.11,0.36-0.17,0.53-0.2c0.17-0.02,0.33-0.01,0.48,0.05c0.14,0.06,0.27,0.16,0.37,0.3s0.18,0.32,0.22,0.53
										c0.05,0.24,0.05,0.5,0.01,0.76c-0.04,0.27-0.13,0.51-0.27,0.73c0.23-0.01,0.41,0.06,0.57,0.21
										c0.15,0.15,0.26,0.4,0.33,0.74c0.05,0.27,0.07,0.53,0.04,0.79c-0.03,0.26-0.09,0.5-0.2,0.72c-0.1,0.23-0.24,0.43-0.4,0.62
										c-0.17,0.19-0.36,0.35-0.58,0.48c-0.44,0.26-0.81,0.31-1.12,0.14c-0.3-0.17-0.51-0.53-0.62-1.07l0.79-0.47
										c0.06,0.31,0.16,0.51,0.3,0.59c0.13,0.08,0.31,0.06,0.51-0.07c0.17-0.1,0.3-0.27,0.39-0.49c0.08-0.22,0.1-0.47,0.04-0.76
										c-0.06-0.31-0.18-0.49-0.34-0.53c-0.17-0.04-0.42,0.04-0.77,0.25L282.74,192.46z"/>
								</g>
								<g>
									<path class="st17" d="M305.96,182.21l-0.23-1.17l-1.64,0.97l-0.18-0.91l0.88-4.18l0.93-0.55l0.68,3.37l0.48-0.28l0.16,0.81
										l-0.48,0.28l0.23,1.17L305.96,182.21z M305.2,178.33l-0.49,2.4l0.87-0.51L305.2,178.33z"/>
								</g>
								<g>
									<path class="st17" d="M245.04,244.18c0.1,0,0.2,0.02,0.3,0.07c0.1,0.05,0.19,0.11,0.27,0.2c0.08,0.08,0.15,0.19,0.2,0.31
										c0.06,0.12,0.1,0.26,0.13,0.41c0.05,0.25,0.07,0.5,0.05,0.75c-0.02,0.25-0.07,0.49-0.16,0.72
										c-0.09,0.23-0.22,0.44-0.38,0.63c-0.17,0.2-0.37,0.37-0.62,0.51c-0.24,0.14-0.46,0.22-0.67,0.25
										c-0.2,0.02-0.38-0.01-0.53-0.09c-0.15-0.08-0.28-0.21-0.39-0.38c-0.1-0.17-0.18-0.37-0.23-0.61
										c-0.06-0.31-0.06-0.62,0-0.91c0.06-0.3,0.19-0.58,0.39-0.84c-0.2-0.01-0.35-0.11-0.47-0.29c-0.12-0.18-0.2-0.38-0.24-0.61
										c-0.04-0.21-0.05-0.42-0.02-0.64c0.03-0.22,0.08-0.43,0.17-0.63c0.09-0.2,0.2-0.38,0.34-0.55
										c0.14-0.17,0.31-0.31,0.49-0.42c0.21-0.12,0.4-0.19,0.57-0.21c0.17-0.02,0.33,0,0.46,0.07c0.13,0.07,0.24,0.17,0.33,0.31
										c0.09,0.14,0.15,0.32,0.19,0.52c0.05,0.24,0.06,0.48,0.04,0.74S245.18,243.98,245.04,244.18z M244.14,244.37
										c0.17-0.1,0.29-0.25,0.35-0.43c0.06-0.18,0.07-0.38,0.02-0.59c-0.04-0.22-0.12-0.37-0.23-0.45
										c-0.11-0.08-0.25-0.07-0.43,0.03c-0.17,0.1-0.29,0.25-0.35,0.43c-0.06,0.18-0.07,0.38-0.02,0.6
										c0.04,0.21,0.12,0.36,0.23,0.44C243.83,244.48,243.97,244.47,244.14,244.37z M244.66,246.92c0.22-0.13,0.36-0.3,0.42-0.51
										c0.06-0.21,0.07-0.46,0.01-0.74c-0.05-0.25-0.14-0.42-0.27-0.52c-0.13-0.1-0.3-0.08-0.51,0.04
										c-0.21,0.13-0.35,0.29-0.41,0.5s-0.07,0.44-0.02,0.69c0.06,0.28,0.15,0.47,0.27,0.57
										C244.27,247.06,244.44,247.05,244.66,246.92z"/>
								</g>
								<g>
									<path class="st17" d="M266.1,233.69c0.09,0.32,0.27,0.4,0.55,0.24c0.23-0.14,0.37-0.38,0.43-0.72
										c0.06-0.34,0.04-0.81-0.05-1.4c-0.07,0.2-0.16,0.39-0.27,0.56c-0.12,0.17-0.28,0.32-0.49,0.45
										c-0.17,0.1-0.33,0.15-0.49,0.16c-0.16,0.01-0.31-0.04-0.45-0.13c-0.14-0.09-0.26-0.22-0.37-0.4s-0.19-0.41-0.24-0.69
										c-0.06-0.27-0.07-0.55-0.05-0.82c0.02-0.27,0.07-0.53,0.16-0.77c0.09-0.24,0.21-0.46,0.36-0.66
										c0.15-0.2,0.33-0.36,0.54-0.48c0.5-0.3,0.92-0.29,1.25,0.02c0.33,0.31,0.59,0.9,0.77,1.79c0.11,0.54,0.17,1.02,0.18,1.44
										c0.01,0.42-0.02,0.79-0.1,1.11s-0.21,0.6-0.38,0.83c-0.17,0.23-0.39,0.43-0.66,0.58c-0.34,0.2-0.65,0.25-0.91,0.15
										c-0.26-0.1-0.46-0.36-0.59-0.76L266.1,233.69z M266.32,231.86c0.19-0.11,0.32-0.29,0.4-0.54c0.08-0.25,0.09-0.52,0.03-0.82
										c-0.06-0.31-0.17-0.52-0.32-0.65c-0.15-0.12-0.33-0.13-0.53-0.01c-0.1,0.06-0.18,0.13-0.24,0.23
										c-0.06,0.09-0.11,0.2-0.14,0.32c-0.03,0.12-0.05,0.25-0.05,0.39c0,0.14,0.01,0.28,0.04,0.43c0.06,0.31,0.17,0.52,0.31,0.63
										C265.97,231.97,266.13,231.97,266.32,231.86z"/>
								</g>
								<g>
									<path class="st17" d="M221.81,261.21c-0.05-0.4-0.08-0.82-0.09-1.25s0.02-0.87,0.07-1.32c0.05-0.45,0.13-0.91,0.22-1.36
										c0.1-0.46,0.23-0.92,0.39-1.37l-2.06,1.22l-0.19-0.93l2.96-1.75l0.16,0.81c-0.34,0.95-0.56,1.89-0.66,2.82
										c-0.1,0.93-0.08,1.8,0.04,2.63L221.81,261.21z"/>
								</g>
								<g>
									<path class="st17" d="M200.53,269.13c-0.09-0.32-0.27-0.4-0.55-0.24c-0.23,0.14-0.37,0.37-0.43,0.72
										c-0.06,0.34-0.04,0.81,0.05,1.4c0.07-0.2,0.16-0.39,0.27-0.56c0.12-0.17,0.28-0.32,0.49-0.45c0.17-0.1,0.33-0.15,0.49-0.16
										c0.16-0.01,0.31,0.04,0.45,0.13c0.14,0.09,0.26,0.22,0.37,0.4c0.11,0.18,0.19,0.41,0.24,0.69
										c0.06,0.27,0.07,0.55,0.05,0.82c-0.02,0.27-0.07,0.53-0.16,0.77c-0.09,0.24-0.21,0.46-0.36,0.66s-0.33,0.36-0.54,0.48
										c-0.5,0.3-0.92,0.29-1.25-0.02c-0.33-0.31-0.59-0.9-0.77-1.79c-0.11-0.54-0.17-1.02-0.18-1.44
										c-0.01-0.42,0.02-0.79,0.1-1.11c0.08-0.32,0.21-0.6,0.38-0.83c0.17-0.23,0.39-0.43,0.66-0.58c0.34-0.2,0.65-0.25,0.91-0.15
										c0.26,0.1,0.46,0.36,0.59,0.76L200.53,269.13z M200.73,272.96c0.09-0.05,0.17-0.13,0.24-0.22c0.06-0.09,0.11-0.2,0.15-0.33
										c0.03-0.12,0.05-0.25,0.05-0.39c0-0.14-0.01-0.28-0.04-0.42c-0.06-0.31-0.17-0.52-0.31-0.63s-0.31-0.12-0.49-0.01
										c-0.19,0.11-0.32,0.29-0.4,0.54s-0.09,0.52-0.03,0.82c0.06,0.31,0.17,0.52,0.32,0.65S200.53,273.08,200.73,272.96z"/>
								</g>
								<g>
									<path class="st17" d="M176.13,285.92l-0.56-3.3l2.6-1.54l0.18,0.89l-1.86,1.1l0.25,1.46c0.08-0.22,0.19-0.39,0.32-0.53
										c0.14-0.14,0.28-0.25,0.44-0.34c0.17-0.1,0.34-0.16,0.5-0.17c0.17-0.01,0.32,0.02,0.45,0.1c0.14,0.08,0.26,0.2,0.36,0.38
										c0.11,0.17,0.19,0.39,0.24,0.66c0.06,0.29,0.08,0.57,0.05,0.85c-0.03,0.28-0.08,0.54-0.18,0.78
										c-0.09,0.24-0.22,0.46-0.38,0.66c-0.16,0.2-0.35,0.36-0.56,0.49c-0.19,0.11-0.38,0.18-0.56,0.2
										c-0.18,0.02-0.35,0-0.51-0.06c-0.15-0.06-0.29-0.17-0.4-0.31c-0.11-0.15-0.2-0.33-0.25-0.56l0.83-0.49
										c0.06,0.22,0.16,0.36,0.28,0.42c0.13,0.06,0.27,0.05,0.44-0.05c0.23-0.13,0.37-0.32,0.43-0.56c0.06-0.24,0.06-0.51,0-0.82
										c-0.06-0.28-0.15-0.47-0.27-0.57c-0.13-0.1-0.29-0.09-0.48,0.03c-0.15,0.09-0.26,0.2-0.34,0.33
										c-0.08,0.13-0.13,0.29-0.16,0.48L176.13,285.92z"/>
								</g>
								<g>
									<path class="st17" d="M287.2,222.48l-0.74-3.7l-0.87,0.51l-0.15-0.72c0.18-0.11,0.33-0.22,0.45-0.33
										c0.12-0.11,0.21-0.23,0.27-0.35c0.06-0.12,0.1-0.25,0.12-0.4c0.02-0.14,0.02-0.29,0-0.45l0.67-0.4l1.08,5.35L287.2,222.48z
										"/>
									<path class="st17" d="M290.09,220.97c-0.23,0.14-0.44,0.2-0.64,0.19c-0.2-0.01-0.39-0.09-0.56-0.25
										c-0.17-0.16-0.32-0.4-0.46-0.73c-0.14-0.32-0.26-0.74-0.36-1.24c-0.1-0.5-0.15-0.95-0.16-1.34
										c-0.01-0.39,0.03-0.74,0.1-1.04c0.08-0.3,0.19-0.56,0.35-0.77c0.16-0.21,0.35-0.39,0.58-0.52c0.23-0.14,0.45-0.2,0.65-0.2
										c0.2,0,0.39,0.08,0.56,0.23c0.17,0.15,0.33,0.38,0.46,0.7c0.14,0.31,0.26,0.72,0.36,1.22c0.2,0.99,0.22,1.8,0.05,2.43
										C290.86,220.26,290.54,220.7,290.09,220.97z M289.95,220.11c0.1-0.06,0.18-0.15,0.24-0.27c0.06-0.12,0.1-0.27,0.11-0.46
										c0.02-0.19,0.01-0.42-0.01-0.69c-0.03-0.27-0.08-0.59-0.15-0.95c-0.07-0.37-0.15-0.68-0.23-0.92
										c-0.08-0.24-0.16-0.43-0.24-0.56c-0.08-0.13-0.17-0.21-0.25-0.24c-0.09-0.03-0.18-0.01-0.29,0.05
										c-0.1,0.06-0.18,0.15-0.24,0.26c-0.06,0.11-0.1,0.27-0.12,0.45c-0.02,0.19-0.02,0.42,0.01,0.69
										c0.03,0.27,0.08,0.59,0.15,0.96c0.07,0.37,0.15,0.68,0.23,0.92c0.08,0.24,0.16,0.43,0.24,0.56
										c0.08,0.13,0.17,0.21,0.26,0.23C289.75,220.19,289.85,220.17,289.95,220.11z"/>
								</g>
								<g>
									<path class="st17" d="M309.89,209.03l-0.74-3.7l-0.86,0.51l-0.15-0.72c0.18-0.11,0.33-0.22,0.45-0.33
										c0.12-0.11,0.21-0.23,0.27-0.35c0.06-0.12,0.1-0.25,0.12-0.4c0.02-0.14,0.02-0.29,0-0.45l0.67-0.4l1.08,5.35L309.89,209.03
										z"/>
									<path class="st17" d="M312.1,207.73l-0.74-3.7l-0.86,0.51l-0.15-0.72c0.18-0.11,0.33-0.22,0.45-0.33
										c0.12-0.11,0.2-0.23,0.27-0.35s0.1-0.26,0.12-0.4c0.02-0.14,0.02-0.29,0-0.45l0.67-0.4l1.08,5.35L312.1,207.73z"/>
								</g>
								<g>
									<path class="st17" d="M248.34,274.99l-0.74-3.7l-0.86,0.51l-0.15-0.72c0.18-0.11,0.33-0.22,0.45-0.33
										c0.12-0.11,0.2-0.23,0.27-0.35c0.06-0.12,0.1-0.25,0.12-0.4c0.02-0.14,0.02-0.29,0-0.45l0.67-0.4l1.08,5.35L248.34,274.99z
										"/>
									<path class="st17" d="M249.41,272l-0.56-3.3l2.6-1.54l0.18,0.89l-1.86,1.1l0.25,1.46c0.08-0.22,0.19-0.39,0.32-0.53
										c0.14-0.14,0.28-0.25,0.44-0.34c0.17-0.1,0.34-0.16,0.5-0.17c0.17-0.01,0.32,0.02,0.45,0.1c0.14,0.08,0.26,0.2,0.36,0.38
										c0.11,0.17,0.19,0.39,0.24,0.66c0.06,0.29,0.08,0.57,0.05,0.85c-0.03,0.28-0.08,0.54-0.18,0.78
										c-0.09,0.24-0.22,0.46-0.38,0.66c-0.16,0.2-0.35,0.36-0.56,0.49c-0.19,0.11-0.38,0.18-0.56,0.2
										c-0.18,0.02-0.35,0-0.51-0.06c-0.16-0.06-0.29-0.17-0.4-0.31c-0.11-0.15-0.2-0.33-0.25-0.56l0.83-0.49
										c0.06,0.22,0.16,0.35,0.28,0.42c0.13,0.06,0.27,0.04,0.44-0.05c0.23-0.13,0.37-0.32,0.43-0.56c0.06-0.24,0.06-0.51,0-0.82
										c-0.06-0.28-0.15-0.47-0.27-0.57s-0.29-0.09-0.48,0.03c-0.15,0.09-0.26,0.2-0.34,0.33c-0.08,0.13-0.13,0.29-0.16,0.48
										L249.41,272z"/>
								</g>
								<g>
									<path class="st17" d="M270.43,261.9l-0.74-3.7l-0.87,0.51l-0.15-0.72c0.18-0.11,0.33-0.22,0.45-0.33
										c0.12-0.11,0.21-0.23,0.27-0.35c0.06-0.12,0.1-0.25,0.12-0.4c0.02-0.14,0.02-0.29,0-0.45l0.67-0.4l1.08,5.35L270.43,261.9z
										"/>
									<path class="st17" d="M272.97,255.71c-0.09-0.32-0.27-0.4-0.55-0.24c-0.23,0.13-0.37,0.37-0.43,0.72
										c-0.06,0.34-0.04,0.81,0.05,1.4c0.07-0.2,0.16-0.39,0.27-0.56c0.12-0.17,0.28-0.32,0.49-0.45c0.17-0.1,0.33-0.15,0.49-0.16
										c0.16-0.01,0.31,0.04,0.45,0.12c0.14,0.09,0.26,0.22,0.37,0.41c0.1,0.18,0.19,0.41,0.24,0.69
										c0.06,0.27,0.07,0.55,0.05,0.82s-0.07,0.53-0.16,0.77c-0.09,0.24-0.21,0.46-0.36,0.66s-0.33,0.36-0.54,0.48
										c-0.5,0.3-0.92,0.29-1.25-0.01c-0.33-0.31-0.59-0.9-0.77-1.79c-0.11-0.54-0.17-1.02-0.18-1.44
										c-0.01-0.42,0.02-0.79,0.1-1.11s0.21-0.6,0.38-0.83c0.17-0.23,0.39-0.43,0.66-0.58c0.34-0.2,0.65-0.25,0.91-0.15
										c0.26,0.1,0.46,0.36,0.59,0.76L272.97,255.71z M273.17,259.54c0.09-0.06,0.17-0.13,0.24-0.23c0.06-0.09,0.11-0.2,0.15-0.32
										c0.03-0.12,0.05-0.25,0.05-0.39c0-0.14-0.01-0.28-0.04-0.43c-0.06-0.3-0.17-0.51-0.31-0.63c-0.15-0.11-0.31-0.12-0.49-0.01
										c-0.19,0.11-0.32,0.29-0.4,0.54c-0.08,0.25-0.09,0.52-0.03,0.82c0.06,0.3,0.17,0.52,0.32,0.64
										C272.79,259.66,272.97,259.66,273.17,259.54z"/>
								</g>
								<g>
									<path class="st17" d="M226.31,288.04l-0.74-3.7l-0.86,0.51l-0.15-0.72c0.18-0.11,0.33-0.22,0.45-0.33
										c0.12-0.11,0.2-0.23,0.27-0.35c0.06-0.12,0.1-0.26,0.12-0.4c0.02-0.14,0.02-0.29,0-0.45l0.67-0.4l1.08,5.35L226.31,288.04z
										"/>
									<path class="st17" d="M229.29,286.28l-0.23-1.17l-1.64,0.97l-0.18-0.91l0.88-4.18l0.93-0.55l0.68,3.37l0.48-0.28l0.16,0.81
										l-0.48,0.28l0.23,1.17L229.29,286.28z M228.53,282.4l-0.49,2.4l0.87-0.51L228.53,282.4z"/>
								</g>
								<g>
									<path class="st17" d="M204.42,301.01l-0.74-3.7l-0.86,0.51l-0.15-0.72c0.18-0.11,0.33-0.22,0.45-0.33
										c0.12-0.11,0.2-0.23,0.27-0.35c0.06-0.12,0.1-0.26,0.12-0.4c0.02-0.14,0.02-0.29,0-0.45l0.67-0.4l1.08,5.35L204.42,301.01z
										"/>
									<path class="st17" d="M206.27,296.41c0.18-0.11,0.32-0.21,0.42-0.32c0.1-0.11,0.18-0.21,0.23-0.32
										c0.05-0.1,0.07-0.21,0.08-0.31c0.01-0.1,0-0.2-0.02-0.3c-0.05-0.27-0.14-0.45-0.25-0.53c-0.12-0.09-0.27-0.08-0.46,0.04
										c-0.16,0.1-0.28,0.25-0.35,0.47c-0.08,0.22-0.08,0.46-0.03,0.74l-0.77,0.46c-0.05-0.26-0.07-0.51-0.04-0.76
										c0.02-0.25,0.08-0.48,0.17-0.71s0.21-0.42,0.36-0.61c0.15-0.18,0.33-0.33,0.53-0.45c0.18-0.11,0.36-0.17,0.53-0.2
										c0.17-0.02,0.33-0.01,0.48,0.05c0.14,0.06,0.27,0.16,0.37,0.3c0.1,0.14,0.18,0.32,0.22,0.53c0.05,0.24,0.05,0.5,0.01,0.76
										c-0.04,0.27-0.13,0.51-0.27,0.73c0.23-0.01,0.41,0.06,0.57,0.21c0.15,0.15,0.26,0.4,0.33,0.74
										c0.05,0.27,0.07,0.53,0.04,0.79c-0.03,0.26-0.09,0.5-0.2,0.73c-0.1,0.23-0.24,0.43-0.4,0.62
										c-0.17,0.19-0.36,0.35-0.58,0.48c-0.44,0.26-0.81,0.31-1.12,0.14c-0.3-0.17-0.51-0.53-0.62-1.08l0.79-0.47
										c0.06,0.31,0.16,0.51,0.3,0.59c0.13,0.08,0.31,0.06,0.51-0.06c0.17-0.1,0.3-0.27,0.39-0.49c0.08-0.22,0.1-0.47,0.04-0.76
										c-0.06-0.31-0.18-0.49-0.34-0.53c-0.17-0.04-0.42,0.04-0.77,0.25L206.27,296.41z"/>
								</g>
								<g>
									<path class="st17" d="M181.54,314.56l-0.74-3.7l-0.87,0.51l-0.15-0.72c0.18-0.11,0.33-0.22,0.45-0.33
										c0.12-0.11,0.21-0.23,0.27-0.35c0.06-0.12,0.1-0.25,0.12-0.4c0.02-0.14,0.02-0.29,0-0.45l0.67-0.4l1.08,5.35L181.54,314.56
										z"/>
									<path class="st17" d="M182.88,313.77c-0.05-0.25-0.08-0.49-0.09-0.72c-0.01-0.23,0.01-0.48,0.06-0.75
										c0.05-0.26,0.14-0.55,0.26-0.86s0.29-0.67,0.52-1.08c0.13-0.22,0.23-0.42,0.31-0.59c0.08-0.17,0.14-0.32,0.18-0.45
										c0.04-0.13,0.06-0.25,0.07-0.37c0.01-0.11,0-0.22-0.02-0.34c-0.03-0.13-0.06-0.24-0.11-0.31c-0.05-0.08-0.1-0.12-0.17-0.15
										c-0.06-0.02-0.13-0.02-0.21,0s-0.16,0.06-0.24,0.1c-0.19,0.11-0.33,0.27-0.41,0.47c-0.08,0.2-0.09,0.48-0.02,0.84
										l-0.8,0.47c-0.12-0.58-0.09-1.1,0.09-1.57c0.17-0.47,0.48-0.83,0.92-1.09c0.21-0.13,0.41-0.21,0.6-0.25
										c0.19-0.04,0.36-0.03,0.51,0.02c0.15,0.05,0.28,0.16,0.39,0.31s0.19,0.36,0.24,0.63c0.04,0.21,0.06,0.4,0.05,0.59
										s-0.04,0.4-0.11,0.61c-0.06,0.22-0.16,0.46-0.28,0.72c-0.12,0.26-0.28,0.56-0.46,0.9c-0.13,0.25-0.23,0.49-0.31,0.73
										s-0.1,0.43-0.08,0.58l1.82-1.08l0.18,0.91L182.88,313.77z"/>
								</g>
								<g>
									<path class="st17" d="M292.54,248.81l-0.74-3.7l-0.87,0.51l-0.15-0.72c0.18-0.11,0.33-0.22,0.45-0.33
										c0.12-0.11,0.21-0.23,0.27-0.35c0.06-0.12,0.1-0.26,0.12-0.4c0.02-0.14,0.02-0.29,0-0.45l0.67-0.4l1.08,5.35L292.54,248.81
										z"/>
									<path class="st17" d="M294.45,247.67c-0.05-0.4-0.08-0.82-0.09-1.25c-0.01-0.43,0.02-0.87,0.07-1.32
										c0.05-0.45,0.12-0.9,0.22-1.36c0.1-0.46,0.23-0.92,0.39-1.37l-2.06,1.22l-0.19-0.93l2.96-1.75l0.16,0.8
										c-0.34,0.95-0.56,1.89-0.66,2.82s-0.08,1.8,0.04,2.63L294.45,247.67z"/>
								</g>
								<g>
									<path class="st17" d="M314.56,235.76l-0.74-3.7l-0.87,0.51l-0.15-0.72c0.18-0.11,0.33-0.22,0.45-0.33
										c0.12-0.11,0.2-0.23,0.27-0.35c0.06-0.12,0.1-0.25,0.12-0.4c0.02-0.14,0.02-0.29,0-0.45l0.67-0.4l1.08,5.35L314.56,235.76z
										"/>
									<path class="st17" d="M317.68,230.64c0.1,0,0.2,0.02,0.3,0.07c0.1,0.05,0.19,0.12,0.26,0.2s0.15,0.19,0.21,0.31
										c0.06,0.12,0.1,0.26,0.13,0.41c0.05,0.25,0.07,0.5,0.05,0.75c-0.02,0.25-0.07,0.49-0.16,0.71
										c-0.09,0.23-0.22,0.44-0.38,0.63c-0.17,0.19-0.37,0.36-0.62,0.51c-0.24,0.14-0.46,0.22-0.67,0.25
										c-0.2,0.02-0.38-0.01-0.53-0.09c-0.15-0.08-0.28-0.21-0.38-0.38c-0.1-0.17-0.18-0.37-0.23-0.61
										c-0.06-0.31-0.06-0.62,0-0.91c0.06-0.3,0.19-0.58,0.39-0.84c-0.2-0.01-0.35-0.1-0.47-0.29c-0.12-0.18-0.2-0.38-0.24-0.61
										c-0.04-0.21-0.05-0.42-0.02-0.64c0.03-0.22,0.08-0.43,0.17-0.63c0.09-0.2,0.2-0.38,0.34-0.55
										c0.14-0.17,0.31-0.31,0.49-0.42c0.21-0.12,0.4-0.19,0.57-0.21c0.17-0.02,0.33,0,0.46,0.07c0.13,0.07,0.24,0.17,0.33,0.31
										c0.09,0.14,0.15,0.32,0.19,0.52c0.05,0.24,0.06,0.48,0.04,0.74C317.9,230.21,317.82,230.44,317.68,230.64z M316.78,230.83
										c0.17-0.1,0.29-0.25,0.35-0.43c0.06-0.18,0.06-0.38,0.02-0.59c-0.04-0.22-0.12-0.37-0.23-0.45
										c-0.11-0.08-0.25-0.07-0.43,0.03s-0.29,0.25-0.35,0.43c-0.06,0.18-0.07,0.38-0.02,0.6c0.04,0.21,0.12,0.36,0.23,0.44
										C316.47,230.94,316.61,230.93,316.78,230.83z M317.3,233.38c0.22-0.13,0.36-0.3,0.42-0.51c0.06-0.21,0.07-0.46,0.01-0.74
										c-0.05-0.25-0.14-0.42-0.27-0.52c-0.13-0.1-0.3-0.08-0.51,0.04s-0.35,0.29-0.41,0.5c-0.06,0.21-0.07,0.44-0.02,0.69
										c0.06,0.28,0.15,0.47,0.27,0.57C316.91,233.52,317.08,233.51,317.3,233.38z"/>
								</g>
								<g>
									<path class="st17" d="M252.28,302.14c-0.05-0.25-0.08-0.49-0.09-0.72c-0.01-0.23,0.01-0.48,0.06-0.75
										c0.05-0.26,0.14-0.55,0.26-0.86c0.12-0.31,0.29-0.67,0.52-1.08c0.13-0.22,0.23-0.42,0.31-0.59
										c0.08-0.17,0.14-0.32,0.18-0.45c0.04-0.13,0.06-0.25,0.07-0.37c0.01-0.11,0-0.22-0.03-0.34c-0.03-0.13-0.06-0.24-0.11-0.31
										c-0.05-0.07-0.1-0.12-0.17-0.14c-0.06-0.02-0.13-0.02-0.21,0c-0.08,0.02-0.16,0.06-0.24,0.1
										c-0.19,0.11-0.33,0.27-0.41,0.47c-0.08,0.2-0.09,0.48-0.02,0.84l-0.79,0.47c-0.12-0.58-0.09-1.1,0.09-1.57
										c0.17-0.47,0.48-0.83,0.92-1.09c0.21-0.13,0.41-0.21,0.6-0.25c0.19-0.04,0.36-0.03,0.51,0.02
										c0.15,0.05,0.28,0.16,0.39,0.31c0.11,0.15,0.19,0.36,0.24,0.63c0.04,0.21,0.06,0.4,0.05,0.59s-0.04,0.4-0.11,0.61
										c-0.06,0.22-0.16,0.46-0.28,0.72c-0.12,0.26-0.28,0.56-0.46,0.9c-0.13,0.25-0.23,0.49-0.31,0.73
										c-0.08,0.24-0.1,0.43-0.08,0.58l1.82-1.08l0.18,0.91L252.28,302.14z"/>
									<path class="st17" d="M255.63,300.16c-0.05-0.25-0.08-0.49-0.09-0.72c-0.01-0.23,0.01-0.48,0.06-0.75
										c0.05-0.26,0.13-0.55,0.26-0.86c0.12-0.31,0.29-0.67,0.52-1.08c0.13-0.22,0.23-0.42,0.31-0.59
										c0.08-0.17,0.14-0.32,0.18-0.45c0.04-0.13,0.06-0.25,0.07-0.37c0.01-0.11,0-0.22-0.03-0.34c-0.03-0.13-0.06-0.24-0.11-0.31
										c-0.05-0.07-0.1-0.12-0.17-0.14c-0.06-0.02-0.13-0.02-0.21,0c-0.08,0.02-0.16,0.06-0.24,0.1
										c-0.19,0.11-0.33,0.27-0.41,0.47c-0.08,0.2-0.09,0.48-0.02,0.84l-0.79,0.47c-0.12-0.58-0.09-1.1,0.09-1.57
										c0.17-0.47,0.48-0.83,0.92-1.09c0.21-0.13,0.41-0.21,0.6-0.25c0.19-0.04,0.36-0.03,0.51,0.02
										c0.15,0.05,0.28,0.16,0.39,0.31c0.11,0.16,0.19,0.36,0.24,0.63c0.04,0.21,0.06,0.4,0.05,0.59
										c-0.01,0.19-0.04,0.4-0.11,0.61c-0.06,0.22-0.16,0.46-0.28,0.72c-0.12,0.26-0.28,0.56-0.46,0.9
										c-0.13,0.25-0.23,0.49-0.31,0.73c-0.08,0.24-0.1,0.43-0.08,0.58l1.82-1.08l0.18,0.91L255.63,300.16z"/>
								</g>
								<g>
									<path class="st17" d="M274.35,289.07c-0.05-0.25-0.08-0.49-0.09-0.72c-0.01-0.23,0.01-0.48,0.06-0.75
										c0.05-0.26,0.13-0.55,0.26-0.86c0.12-0.31,0.29-0.67,0.52-1.08c0.13-0.22,0.23-0.42,0.3-0.59
										c0.08-0.17,0.14-0.32,0.18-0.45c0.04-0.13,0.06-0.25,0.07-0.37c0.01-0.11,0-0.22-0.02-0.34c-0.03-0.13-0.07-0.24-0.11-0.31
										c-0.05-0.07-0.1-0.12-0.17-0.14c-0.06-0.02-0.13-0.02-0.21,0c-0.08,0.02-0.16,0.05-0.24,0.1
										c-0.19,0.11-0.33,0.27-0.41,0.47c-0.08,0.21-0.09,0.48-0.02,0.84l-0.8,0.47c-0.12-0.58-0.09-1.1,0.09-1.57
										c0.17-0.47,0.48-0.83,0.92-1.09c0.21-0.13,0.41-0.21,0.6-0.25c0.19-0.04,0.36-0.03,0.51,0.02
										c0.15,0.05,0.28,0.16,0.39,0.31c0.11,0.15,0.19,0.36,0.24,0.63c0.04,0.21,0.06,0.4,0.05,0.59s-0.04,0.4-0.11,0.61
										c-0.06,0.22-0.16,0.46-0.28,0.72s-0.28,0.56-0.46,0.9c-0.13,0.25-0.23,0.49-0.31,0.73c-0.08,0.24-0.1,0.43-0.08,0.58
										l1.82-1.08l0.18,0.91L274.35,289.07z"/>
									<path class="st17" d="M278.14,283.31c0.18-0.11,0.32-0.21,0.42-0.32c0.1-0.11,0.18-0.21,0.23-0.32
										c0.05-0.1,0.08-0.21,0.08-0.31c0-0.1,0-0.2-0.02-0.3c-0.05-0.27-0.14-0.45-0.25-0.54c-0.12-0.09-0.27-0.07-0.46,0.04
										c-0.16,0.09-0.28,0.25-0.35,0.47c-0.08,0.22-0.08,0.46-0.03,0.74l-0.77,0.46c-0.05-0.26-0.07-0.51-0.04-0.76
										c0.02-0.25,0.08-0.48,0.17-0.71c0.09-0.22,0.21-0.42,0.36-0.61s0.33-0.33,0.53-0.45c0.18-0.11,0.36-0.17,0.53-0.2
										c0.17-0.02,0.33-0.01,0.48,0.05c0.14,0.06,0.27,0.16,0.37,0.3c0.1,0.14,0.18,0.32,0.22,0.53c0.05,0.24,0.05,0.5,0.01,0.76
										c-0.04,0.27-0.13,0.51-0.27,0.73c0.22-0.01,0.41,0.06,0.57,0.21c0.15,0.15,0.26,0.4,0.33,0.74
										c0.05,0.27,0.07,0.53,0.04,0.79c-0.03,0.26-0.09,0.5-0.2,0.72c-0.1,0.23-0.24,0.43-0.4,0.62
										c-0.17,0.19-0.36,0.35-0.58,0.48c-0.44,0.26-0.81,0.31-1.12,0.14c-0.3-0.17-0.51-0.53-0.62-1.07l0.8-0.47
										c0.06,0.31,0.16,0.51,0.3,0.59c0.13,0.08,0.31,0.06,0.51-0.07c0.17-0.1,0.3-0.26,0.39-0.49c0.08-0.22,0.1-0.47,0.04-0.76
										c-0.06-0.31-0.18-0.49-0.34-0.53s-0.42,0.04-0.77,0.25L278.14,283.31z"/>
								</g>
								<g>
									<path class="st17" d="M230.78,314.88c-0.05-0.25-0.08-0.49-0.09-0.72c-0.01-0.23,0.01-0.48,0.06-0.75
										c0.05-0.26,0.14-0.55,0.26-0.86c0.12-0.31,0.29-0.67,0.52-1.08c0.13-0.22,0.23-0.42,0.31-0.59
										c0.08-0.17,0.14-0.32,0.18-0.45c0.04-0.13,0.06-0.25,0.07-0.37c0.01-0.11,0-0.22-0.03-0.34c-0.03-0.13-0.06-0.24-0.11-0.31
										c-0.05-0.07-0.1-0.12-0.17-0.14c-0.06-0.02-0.13-0.02-0.21,0c-0.08,0.02-0.16,0.06-0.24,0.1
										c-0.19,0.11-0.33,0.27-0.41,0.47c-0.08,0.2-0.09,0.48-0.02,0.84l-0.79,0.47c-0.12-0.58-0.09-1.1,0.09-1.57
										c0.17-0.47,0.48-0.83,0.92-1.09c0.21-0.13,0.41-0.21,0.6-0.25c0.19-0.04,0.36-0.03,0.51,0.02
										c0.15,0.05,0.28,0.16,0.39,0.31c0.11,0.15,0.19,0.36,0.24,0.63c0.04,0.21,0.06,0.4,0.05,0.59
										c-0.01,0.19-0.04,0.4-0.11,0.61c-0.06,0.22-0.16,0.46-0.28,0.72c-0.12,0.26-0.28,0.56-0.46,0.9
										c-0.13,0.25-0.23,0.49-0.31,0.73c-0.08,0.24-0.1,0.43-0.08,0.58l1.82-1.08l0.18,0.91L230.78,314.88z"/>
									<path class="st17" d="M234.92,312.43l-0.74-3.7l-0.87,0.51l-0.15-0.72c0.18-0.11,0.33-0.22,0.45-0.33
										c0.12-0.11,0.2-0.23,0.27-0.35c0.06-0.12,0.1-0.26,0.12-0.4c0.02-0.14,0.02-0.29,0-0.46l0.67-0.4l1.08,5.35L234.92,312.43z
										"/>
								</g>
								<g>
									<path class="st17" d="M208.28,328.21c-0.05-0.25-0.08-0.49-0.09-0.72c-0.01-0.23,0.01-0.48,0.06-0.75
										c0.05-0.26,0.14-0.55,0.26-0.86c0.12-0.31,0.29-0.67,0.52-1.08c0.13-0.22,0.23-0.42,0.31-0.59
										c0.08-0.17,0.14-0.32,0.18-0.45s0.06-0.25,0.07-0.37c0.01-0.11,0-0.22-0.03-0.34c-0.03-0.13-0.06-0.24-0.11-0.31
										s-0.1-0.12-0.17-0.14c-0.06-0.02-0.13-0.02-0.21,0c-0.08,0.02-0.16,0.06-0.24,0.1c-0.19,0.11-0.33,0.27-0.41,0.47
										c-0.08,0.2-0.09,0.48-0.02,0.84l-0.79,0.47c-0.12-0.58-0.09-1.1,0.09-1.57c0.17-0.47,0.48-0.83,0.92-1.09
										c0.21-0.13,0.41-0.21,0.6-0.25c0.19-0.04,0.36-0.03,0.51,0.02c0.15,0.05,0.28,0.16,0.39,0.31
										c0.11,0.15,0.19,0.36,0.24,0.63c0.04,0.21,0.06,0.4,0.05,0.59c-0.01,0.19-0.04,0.4-0.11,0.61
										c-0.06,0.22-0.16,0.46-0.28,0.72c-0.12,0.26-0.28,0.56-0.46,0.9c-0.13,0.25-0.23,0.49-0.31,0.73
										c-0.08,0.24-0.1,0.43-0.08,0.58l1.82-1.08l0.18,0.91L208.28,328.21z"/>
									<path class="st17" d="M213.11,325.55c-0.23,0.14-0.44,0.2-0.65,0.19c-0.2-0.01-0.39-0.09-0.56-0.25
										c-0.17-0.16-0.32-0.4-0.46-0.73c-0.14-0.32-0.26-0.74-0.36-1.24c-0.1-0.5-0.16-0.95-0.16-1.34
										c-0.01-0.39,0.03-0.74,0.1-1.04c0.08-0.3,0.19-0.56,0.35-0.77c0.16-0.21,0.35-0.39,0.58-0.52s0.44-0.2,0.65-0.2
										c0.2,0,0.39,0.08,0.56,0.23c0.17,0.15,0.33,0.38,0.46,0.7c0.14,0.31,0.26,0.72,0.36,1.22c0.2,0.99,0.22,1.8,0.05,2.43
										C213.88,324.84,213.57,325.28,213.11,325.55z M212.97,324.69c0.1-0.06,0.18-0.15,0.24-0.27c0.06-0.12,0.1-0.27,0.12-0.46
										c0.02-0.19,0.01-0.42-0.01-0.69c-0.03-0.27-0.08-0.59-0.15-0.95c-0.07-0.37-0.15-0.68-0.23-0.92
										c-0.08-0.24-0.16-0.43-0.24-0.56c-0.08-0.13-0.17-0.21-0.25-0.24c-0.09-0.03-0.18-0.01-0.29,0.05
										c-0.1,0.06-0.18,0.15-0.24,0.26c-0.06,0.11-0.1,0.27-0.12,0.45c-0.02,0.19-0.02,0.42,0.01,0.69
										c0.03,0.27,0.08,0.59,0.15,0.96c0.07,0.37,0.15,0.68,0.23,0.92c0.08,0.24,0.16,0.43,0.24,0.56
										c0.08,0.13,0.17,0.21,0.26,0.24S212.86,324.75,212.97,324.69z"/>
								</g>
								<g>
									<path class="st17" d="M186.77,340.95l-0.74-3.7l-0.87,0.51l-0.15-0.72c0.18-0.11,0.33-0.22,0.45-0.33
										c0.12-0.11,0.2-0.23,0.27-0.35c0.06-0.12,0.1-0.26,0.12-0.4c0.02-0.14,0.02-0.29,0-0.46l0.67-0.4l1.08,5.35L186.77,340.95z
										"/>
									<path class="st17" d="M188.85,338.43c0.09,0.32,0.27,0.4,0.55,0.24c0.23-0.14,0.37-0.38,0.43-0.72
										c0.06-0.34,0.04-0.81-0.05-1.4c-0.07,0.2-0.16,0.39-0.27,0.56c-0.11,0.17-0.28,0.32-0.49,0.45
										c-0.17,0.1-0.33,0.15-0.49,0.16c-0.16,0.01-0.31-0.04-0.45-0.13c-0.14-0.09-0.26-0.22-0.37-0.41
										c-0.11-0.18-0.19-0.41-0.24-0.69c-0.06-0.27-0.07-0.55-0.05-0.82c0.02-0.27,0.07-0.53,0.16-0.77
										c0.09-0.24,0.21-0.46,0.36-0.66c0.15-0.2,0.33-0.36,0.54-0.48c0.5-0.3,0.92-0.29,1.25,0.02c0.33,0.31,0.59,0.9,0.77,1.79
										c0.11,0.54,0.17,1.02,0.18,1.44c0.01,0.42-0.02,0.79-0.1,1.11c-0.08,0.32-0.21,0.6-0.38,0.83
										c-0.17,0.23-0.39,0.43-0.66,0.58c-0.34,0.2-0.65,0.25-0.91,0.15c-0.26-0.1-0.46-0.36-0.59-0.76L188.85,338.43z
										 M189.06,336.61c0.19-0.11,0.32-0.29,0.4-0.54c0.08-0.25,0.09-0.52,0.03-0.82c-0.06-0.3-0.17-0.52-0.32-0.64
										c-0.15-0.12-0.33-0.13-0.53-0.01c-0.1,0.06-0.18,0.13-0.24,0.23c-0.06,0.09-0.11,0.2-0.14,0.32s-0.05,0.25-0.05,0.39
										c0,0.14,0.01,0.28,0.04,0.43c0.06,0.31,0.17,0.52,0.31,0.63C188.72,336.71,188.88,336.71,189.06,336.61z"/>
								</g>
								<g>
									<path class="st17" d="M257.36,327.59c-0.05-0.25-0.08-0.49-0.09-0.72c-0.01-0.23,0.01-0.48,0.06-0.75
										c0.05-0.26,0.13-0.55,0.26-0.86c0.12-0.31,0.29-0.67,0.52-1.08c0.13-0.22,0.23-0.42,0.31-0.59
										c0.08-0.17,0.14-0.32,0.18-0.45s0.06-0.25,0.07-0.37c0.01-0.11,0-0.22-0.02-0.34c-0.03-0.13-0.07-0.24-0.11-0.31
										c-0.05-0.07-0.1-0.12-0.17-0.14c-0.06-0.02-0.13-0.02-0.21,0c-0.08,0.02-0.16,0.06-0.24,0.1
										c-0.19,0.11-0.33,0.27-0.41,0.47c-0.08,0.2-0.09,0.48-0.02,0.84l-0.79,0.47c-0.12-0.58-0.09-1.1,0.09-1.57
										c0.17-0.47,0.48-0.83,0.92-1.09c0.21-0.13,0.41-0.21,0.6-0.25c0.19-0.04,0.36-0.03,0.51,0.02
										c0.15,0.05,0.28,0.16,0.39,0.31c0.11,0.15,0.19,0.36,0.24,0.63c0.04,0.21,0.06,0.4,0.05,0.59
										c-0.01,0.19-0.04,0.4-0.11,0.61c-0.06,0.22-0.16,0.46-0.28,0.72c-0.12,0.26-0.28,0.56-0.46,0.89
										c-0.13,0.25-0.23,0.49-0.31,0.73c-0.08,0.24-0.1,0.43-0.08,0.58l1.82-1.08l0.18,0.91L257.36,327.59z"/>
									<path class="st17" d="M261.38,323.92c0.09,0.32,0.27,0.4,0.55,0.23c0.23-0.13,0.37-0.37,0.43-0.72
										c0.06-0.34,0.04-0.81-0.05-1.4c-0.07,0.2-0.16,0.39-0.27,0.56c-0.11,0.17-0.28,0.32-0.49,0.45
										c-0.17,0.1-0.33,0.15-0.49,0.16c-0.16,0-0.31-0.04-0.45-0.13c-0.14-0.09-0.26-0.22-0.37-0.4
										c-0.11-0.18-0.19-0.41-0.24-0.69c-0.06-0.27-0.07-0.55-0.05-0.82c0.02-0.27,0.07-0.53,0.16-0.77
										c0.09-0.24,0.21-0.46,0.36-0.66c0.15-0.2,0.33-0.36,0.54-0.48c0.5-0.3,0.92-0.29,1.25,0.02c0.33,0.31,0.59,0.9,0.77,1.79
										c0.11,0.54,0.17,1.02,0.18,1.44c0.01,0.42-0.02,0.79-0.1,1.11c-0.08,0.32-0.21,0.6-0.38,0.83
										c-0.17,0.23-0.39,0.43-0.66,0.58c-0.34,0.2-0.65,0.25-0.91,0.15c-0.26-0.1-0.46-0.36-0.59-0.76L261.38,323.92z
										 M261.59,322.1c0.19-0.11,0.32-0.29,0.4-0.54c0.08-0.25,0.09-0.52,0.03-0.82c-0.06-0.31-0.17-0.52-0.32-0.65
										c-0.15-0.12-0.33-0.13-0.53,0c-0.1,0.06-0.18,0.13-0.24,0.23c-0.06,0.09-0.11,0.2-0.14,0.32
										c-0.03,0.12-0.05,0.25-0.05,0.39c0,0.14,0.01,0.28,0.04,0.43c0.06,0.31,0.17,0.52,0.31,0.63
										C261.25,322.2,261.41,322.21,261.59,322.1z"/>
								</g>
								<g>
									<path class="st17" d="M279.9,310.73c0.18-0.11,0.32-0.21,0.42-0.32c0.1-0.11,0.18-0.21,0.23-0.31
										c0.05-0.1,0.07-0.21,0.08-0.31c0-0.1,0-0.2-0.02-0.3c-0.05-0.27-0.14-0.45-0.25-0.53c-0.12-0.09-0.27-0.08-0.46,0.04
										c-0.16,0.1-0.28,0.25-0.35,0.47c-0.08,0.22-0.08,0.46-0.03,0.74l-0.77,0.46c-0.05-0.26-0.07-0.51-0.04-0.76
										c0.02-0.25,0.08-0.48,0.17-0.71c0.09-0.22,0.21-0.42,0.36-0.61s0.33-0.33,0.53-0.45c0.18-0.11,0.36-0.17,0.53-0.2
										c0.17-0.02,0.33-0.01,0.48,0.05c0.15,0.06,0.27,0.16,0.37,0.3c0.1,0.14,0.18,0.32,0.22,0.53c0.05,0.24,0.05,0.5,0.01,0.76
										c-0.04,0.27-0.13,0.51-0.27,0.73c0.23-0.01,0.41,0.06,0.57,0.21c0.15,0.15,0.26,0.4,0.33,0.74
										c0.05,0.27,0.07,0.53,0.04,0.79c-0.03,0.26-0.09,0.5-0.2,0.72c-0.1,0.23-0.24,0.43-0.4,0.62
										c-0.17,0.19-0.36,0.35-0.58,0.48c-0.44,0.26-0.81,0.31-1.12,0.14c-0.3-0.17-0.51-0.53-0.62-1.07l0.79-0.47
										c0.06,0.31,0.16,0.51,0.3,0.59c0.13,0.08,0.3,0.06,0.51-0.07c0.17-0.1,0.3-0.27,0.39-0.49s0.1-0.47,0.04-0.76
										c-0.06-0.31-0.18-0.49-0.34-0.53c-0.17-0.04-0.42,0.04-0.77,0.25L279.9,310.73z"/>
									<path class="st17" d="M284.31,311.83c-0.23,0.14-0.44,0.2-0.65,0.19c-0.2-0.01-0.39-0.09-0.56-0.25s-0.32-0.4-0.46-0.73
										s-0.26-0.74-0.36-1.24c-0.1-0.5-0.15-0.95-0.16-1.34c-0.01-0.4,0.03-0.74,0.1-1.04s0.19-0.56,0.35-0.77
										c0.16-0.21,0.35-0.39,0.58-0.52s0.44-0.2,0.65-0.2c0.2,0,0.39,0.08,0.56,0.23c0.17,0.15,0.33,0.38,0.46,0.7
										c0.14,0.31,0.26,0.72,0.36,1.22c0.2,0.99,0.22,1.8,0.05,2.43C285.07,311.12,284.77,311.56,284.31,311.83z M284.17,310.97
										c0.1-0.06,0.18-0.15,0.24-0.26c0.06-0.12,0.1-0.27,0.12-0.46c0.02-0.19,0.01-0.42-0.01-0.69
										c-0.03-0.27-0.08-0.59-0.15-0.95c-0.08-0.37-0.15-0.68-0.23-0.92c-0.08-0.24-0.16-0.43-0.24-0.56
										c-0.08-0.13-0.17-0.21-0.25-0.24c-0.09-0.03-0.19-0.01-0.29,0.05s-0.18,0.15-0.24,0.26s-0.1,0.27-0.12,0.45
										c-0.02,0.19-0.02,0.42,0.01,0.69c0.03,0.27,0.08,0.59,0.15,0.96c0.07,0.37,0.15,0.68,0.23,0.92
										c0.08,0.24,0.16,0.43,0.24,0.56c0.08,0.13,0.17,0.21,0.26,0.23C283.97,311.05,284.06,311.03,284.17,310.97z"/>
								</g>
								<g>
									<path class="st17" d="M235.28,340.67c-0.05-0.25-0.08-0.49-0.09-0.72c-0.01-0.23,0.01-0.48,0.06-0.75
										c0.05-0.26,0.13-0.55,0.26-0.86c0.12-0.31,0.29-0.67,0.52-1.08c0.13-0.22,0.23-0.42,0.31-0.59
										c0.08-0.17,0.14-0.32,0.18-0.45s0.06-0.25,0.07-0.37c0.01-0.11,0-0.22-0.03-0.34c-0.03-0.13-0.06-0.24-0.11-0.31
										c-0.05-0.07-0.1-0.12-0.17-0.14c-0.06-0.02-0.13-0.02-0.21,0c-0.08,0.02-0.16,0.06-0.24,0.1
										c-0.19,0.11-0.33,0.27-0.41,0.47c-0.08,0.2-0.09,0.48-0.02,0.84l-0.8,0.47c-0.12-0.58-0.09-1.1,0.09-1.57
										c0.17-0.47,0.48-0.83,0.92-1.09c0.21-0.13,0.41-0.21,0.6-0.25c0.19-0.04,0.36-0.03,0.51,0.02
										c0.15,0.05,0.28,0.16,0.39,0.31c0.11,0.16,0.19,0.36,0.24,0.63c0.04,0.21,0.06,0.4,0.05,0.59
										c-0.01,0.19-0.04,0.4-0.11,0.61c-0.06,0.22-0.16,0.46-0.28,0.72c-0.12,0.26-0.28,0.56-0.46,0.9
										c-0.13,0.25-0.23,0.49-0.31,0.73s-0.1,0.43-0.08,0.58l1.82-1.08l0.18,0.91L235.28,340.67z"/>
									<path class="st17" d="M240.29,334.43c0.1,0,0.2,0.02,0.3,0.07s0.19,0.11,0.26,0.2c0.08,0.08,0.15,0.19,0.21,0.31
										c0.06,0.12,0.1,0.26,0.13,0.41c0.05,0.25,0.07,0.5,0.05,0.75c-0.02,0.25-0.07,0.49-0.16,0.71
										c-0.09,0.23-0.22,0.44-0.38,0.63c-0.17,0.2-0.37,0.37-0.62,0.51c-0.24,0.14-0.46,0.22-0.67,0.25
										c-0.2,0.02-0.38-0.01-0.53-0.09c-0.15-0.08-0.28-0.21-0.39-0.38c-0.1-0.17-0.18-0.37-0.23-0.61
										c-0.06-0.31-0.06-0.62,0-0.91c0.06-0.3,0.19-0.58,0.39-0.84c-0.2-0.01-0.35-0.11-0.47-0.29c-0.12-0.18-0.2-0.38-0.24-0.61
										c-0.04-0.21-0.05-0.42-0.02-0.64c0.03-0.22,0.08-0.43,0.17-0.63c0.09-0.2,0.2-0.38,0.34-0.55
										c0.14-0.17,0.31-0.31,0.49-0.42c0.21-0.12,0.4-0.19,0.57-0.21c0.17-0.02,0.33,0,0.46,0.07c0.13,0.07,0.24,0.17,0.33,0.31
										s0.15,0.32,0.19,0.52c0.05,0.24,0.06,0.48,0.04,0.73S240.43,334.23,240.29,334.43z M239.4,334.62
										c0.17-0.1,0.29-0.25,0.35-0.43c0.06-0.18,0.07-0.38,0.02-0.59c-0.04-0.22-0.12-0.37-0.23-0.45
										c-0.11-0.08-0.25-0.07-0.43,0.03c-0.17,0.1-0.29,0.25-0.35,0.43c-0.06,0.18-0.07,0.38-0.02,0.6
										c0.04,0.21,0.12,0.36,0.23,0.44C239.08,334.73,239.22,334.72,239.4,334.62z M239.91,337.17c0.22-0.13,0.36-0.3,0.42-0.51
										c0.06-0.21,0.07-0.46,0.01-0.74c-0.05-0.25-0.14-0.42-0.27-0.52c-0.13-0.1-0.3-0.08-0.51,0.04
										c-0.21,0.13-0.35,0.29-0.41,0.5c-0.06,0.21-0.07,0.44-0.02,0.7c0.06,0.28,0.15,0.47,0.27,0.57
										C239.53,337.31,239.69,337.3,239.91,337.17z"/>
								</g>
								<g>
									<path class="st17" d="M213.43,353.62c-0.05-0.25-0.08-0.49-0.09-0.72c-0.01-0.23,0.01-0.48,0.06-0.75
										c0.05-0.26,0.13-0.55,0.26-0.86c0.12-0.31,0.29-0.67,0.52-1.08c0.13-0.22,0.23-0.42,0.31-0.59
										c0.08-0.17,0.14-0.32,0.18-0.45c0.04-0.13,0.06-0.25,0.07-0.37c0.01-0.11,0-0.22-0.02-0.34c-0.03-0.13-0.06-0.24-0.11-0.31
										s-0.1-0.12-0.17-0.14c-0.06-0.02-0.13-0.02-0.21,0c-0.08,0.02-0.16,0.06-0.24,0.1c-0.19,0.11-0.33,0.27-0.41,0.47
										c-0.08,0.2-0.09,0.48-0.02,0.84l-0.79,0.47c-0.12-0.58-0.09-1.1,0.09-1.57c0.17-0.47,0.48-0.83,0.92-1.09
										c0.21-0.13,0.41-0.21,0.6-0.25c0.19-0.04,0.36-0.03,0.51,0.02c0.15,0.06,0.28,0.16,0.39,0.31
										c0.11,0.15,0.19,0.36,0.24,0.63c0.04,0.21,0.06,0.4,0.05,0.59s-0.04,0.4-0.11,0.61s-0.16,0.46-0.28,0.72
										c-0.12,0.26-0.28,0.56-0.46,0.89c-0.13,0.25-0.23,0.49-0.31,0.73c-0.08,0.24-0.1,0.43-0.08,0.58l1.82-1.08l0.18,0.91
										L213.43,353.62z"/>
									<path class="st17" d="M217.29,351.33c-0.05-0.4-0.08-0.82-0.09-1.25s0.02-0.87,0.07-1.32c0.05-0.45,0.13-0.91,0.22-1.36
										c0.1-0.46,0.23-0.92,0.39-1.37l-2.06,1.22l-0.19-0.93l2.96-1.75l0.16,0.8c-0.34,0.95-0.56,1.89-0.66,2.82
										c-0.1,0.93-0.08,1.8,0.04,2.63L217.29,351.33z"/>
								</g>
								<g>
									<path class="st17" d="M190.49,367.21c-0.05-0.25-0.08-0.49-0.09-0.72c-0.01-0.23,0.01-0.48,0.06-0.75
										c0.05-0.26,0.14-0.55,0.26-0.86s0.29-0.67,0.52-1.08c0.13-0.22,0.23-0.42,0.31-0.59c0.08-0.17,0.14-0.32,0.18-0.45
										c0.04-0.13,0.06-0.25,0.07-0.37c0.01-0.11,0-0.22-0.02-0.34c-0.03-0.13-0.06-0.24-0.11-0.31c-0.05-0.07-0.1-0.12-0.17-0.14
										c-0.06-0.02-0.13-0.02-0.21,0c-0.08,0.02-0.16,0.06-0.24,0.1c-0.19,0.11-0.33,0.27-0.41,0.47
										c-0.08,0.2-0.09,0.48-0.02,0.84l-0.8,0.47c-0.12-0.58-0.09-1.1,0.09-1.57c0.17-0.47,0.48-0.83,0.92-1.09
										c0.21-0.13,0.41-0.21,0.6-0.25c0.19-0.04,0.36-0.03,0.51,0.02c0.15,0.05,0.28,0.16,0.39,0.31
										c0.11,0.16,0.19,0.36,0.24,0.63c0.04,0.21,0.06,0.4,0.05,0.59c-0.01,0.19-0.04,0.4-0.11,0.61
										c-0.06,0.22-0.16,0.46-0.28,0.72c-0.12,0.26-0.28,0.56-0.46,0.9c-0.13,0.25-0.23,0.49-0.31,0.73
										c-0.08,0.24-0.1,0.43-0.08,0.58l1.82-1.08l0.18,0.91L190.49,367.21z"/>
									<path class="st17" d="M194.97,359.86c-0.09-0.32-0.27-0.4-0.55-0.24c-0.23,0.14-0.37,0.37-0.43,0.72
										c-0.06,0.34-0.04,0.81,0.05,1.4c0.07-0.2,0.16-0.39,0.27-0.56c0.11-0.17,0.28-0.32,0.49-0.45c0.17-0.1,0.33-0.15,0.49-0.16
										c0.16-0.01,0.31,0.04,0.45,0.13c0.14,0.09,0.26,0.22,0.37,0.41c0.11,0.18,0.19,0.41,0.24,0.69
										c0.05,0.28,0.07,0.55,0.05,0.82c-0.02,0.27-0.08,0.53-0.16,0.77c-0.09,0.24-0.21,0.46-0.36,0.66
										c-0.15,0.2-0.33,0.36-0.54,0.48c-0.5,0.3-0.92,0.29-1.25-0.02c-0.33-0.31-0.59-0.9-0.77-1.79
										c-0.11-0.54-0.17-1.02-0.18-1.44c-0.01-0.42,0.02-0.79,0.1-1.11c0.08-0.32,0.21-0.6,0.38-0.83
										c0.17-0.23,0.39-0.43,0.65-0.58c0.34-0.2,0.65-0.25,0.91-0.15c0.26,0.1,0.46,0.36,0.59,0.76L194.97,359.86z M195.17,363.69
										c0.09-0.05,0.17-0.13,0.24-0.22c0.06-0.09,0.11-0.2,0.14-0.33c0.03-0.12,0.05-0.25,0.05-0.39c0-0.14-0.01-0.28-0.04-0.43
										c-0.06-0.3-0.17-0.52-0.31-0.63c-0.15-0.11-0.31-0.12-0.49-0.01c-0.19,0.11-0.32,0.29-0.4,0.54
										c-0.08,0.25-0.09,0.52-0.03,0.82c0.06,0.3,0.17,0.52,0.32,0.64C194.79,363.81,194.97,363.81,195.17,363.69z"/>
								</g>
								<g>
									<path class="st17" d="M296.44,275.98c-0.05-0.25-0.08-0.49-0.09-0.72c-0.01-0.23,0.01-0.48,0.06-0.75
										c0.05-0.26,0.13-0.55,0.26-0.86c0.12-0.31,0.29-0.67,0.52-1.08c0.13-0.22,0.23-0.42,0.3-0.59
										c0.08-0.17,0.14-0.32,0.18-0.45c0.04-0.13,0.06-0.25,0.07-0.37c0.01-0.11,0-0.22-0.02-0.34c-0.03-0.13-0.07-0.24-0.11-0.31
										c-0.05-0.07-0.1-0.12-0.17-0.14c-0.06-0.02-0.13-0.02-0.21,0c-0.08,0.02-0.16,0.06-0.24,0.1
										c-0.19,0.11-0.33,0.27-0.41,0.47c-0.08,0.2-0.09,0.48-0.02,0.84l-0.8,0.47c-0.12-0.58-0.09-1.1,0.09-1.57
										c0.17-0.47,0.48-0.83,0.92-1.09c0.21-0.13,0.41-0.21,0.6-0.25c0.19-0.04,0.36-0.03,0.51,0.02
										c0.15,0.05,0.28,0.16,0.39,0.31c0.11,0.15,0.19,0.36,0.24,0.63c0.04,0.21,0.06,0.4,0.05,0.59s-0.04,0.4-0.11,0.61
										c-0.06,0.22-0.16,0.46-0.28,0.72c-0.12,0.26-0.28,0.56-0.46,0.9c-0.13,0.25-0.23,0.49-0.31,0.73
										c-0.08,0.24-0.1,0.43-0.08,0.58l1.82-1.08l0.18,0.91L296.44,275.98z"/>
									<path class="st17" d="M301.36,273.07l-0.23-1.17l-1.64,0.97l-0.18-0.91l0.88-4.18l0.93-0.55l0.68,3.37l0.48-0.28l0.16,0.81
										l-0.48,0.28l0.24,1.17L301.36,273.07z M300.6,269.19l-0.49,2.4l0.87-0.51L300.6,269.19z"/>
								</g>
								<g>
									<path class="st17" d="M318.48,262.93c-0.05-0.25-0.08-0.49-0.09-0.72c-0.01-0.23,0.01-0.48,0.06-0.75
										c0.05-0.26,0.13-0.55,0.26-0.86c0.12-0.31,0.29-0.67,0.52-1.08c0.13-0.22,0.23-0.42,0.31-0.59
										c0.08-0.17,0.14-0.32,0.18-0.45s0.06-0.25,0.07-0.37c0.01-0.11,0-0.22-0.03-0.34c-0.03-0.13-0.06-0.24-0.11-0.31
										c-0.05-0.07-0.1-0.12-0.17-0.14c-0.06-0.02-0.13-0.02-0.21,0c-0.08,0.02-0.16,0.06-0.24,0.1
										c-0.19,0.11-0.33,0.27-0.41,0.47c-0.08,0.2-0.09,0.48-0.02,0.84l-0.79,0.47c-0.12-0.58-0.09-1.1,0.09-1.57
										c0.17-0.47,0.48-0.83,0.92-1.09c0.21-0.13,0.41-0.21,0.6-0.25c0.19-0.04,0.36-0.03,0.51,0.02
										c0.15,0.05,0.28,0.16,0.39,0.31s0.19,0.36,0.24,0.63c0.04,0.21,0.06,0.4,0.05,0.59c-0.01,0.19-0.04,0.4-0.11,0.61
										c-0.06,0.22-0.16,0.46-0.28,0.72c-0.12,0.26-0.28,0.56-0.46,0.9c-0.13,0.25-0.23,0.49-0.31,0.73s-0.1,0.43-0.08,0.58
										l1.82-1.08l0.18,0.91L318.48,262.93z"/>
									<path class="st17" d="M321.48,258.79l-0.56-3.3l2.6-1.54l0.18,0.89l-1.86,1.1l0.25,1.46c0.08-0.22,0.19-0.39,0.32-0.53
										c0.14-0.14,0.28-0.25,0.44-0.35c0.17-0.1,0.34-0.16,0.5-0.17c0.17-0.01,0.32,0.02,0.45,0.1c0.14,0.08,0.26,0.2,0.36,0.38
										c0.11,0.17,0.19,0.39,0.24,0.66c0.06,0.29,0.08,0.57,0.05,0.85c-0.03,0.28-0.08,0.54-0.18,0.78
										c-0.09,0.24-0.22,0.46-0.38,0.66c-0.16,0.2-0.35,0.36-0.56,0.49c-0.19,0.11-0.38,0.18-0.56,0.2
										c-0.18,0.02-0.35,0-0.51-0.06c-0.16-0.06-0.29-0.17-0.4-0.31c-0.11-0.15-0.2-0.33-0.25-0.56l0.83-0.49
										c0.06,0.22,0.16,0.35,0.28,0.42c0.13,0.06,0.27,0.04,0.44-0.05c0.23-0.14,0.37-0.32,0.43-0.56c0.06-0.24,0.06-0.51,0-0.82
										c-0.06-0.28-0.15-0.47-0.27-0.57c-0.13-0.1-0.29-0.09-0.48,0.03c-0.15,0.09-0.26,0.2-0.34,0.33
										c-0.08,0.13-0.13,0.29-0.16,0.48L321.48,258.79z"/>
								</g>
								<g>
									<path class="st18" d="M166.96,226.97c-0.12-0.41-0.31-0.66-0.57-0.75c-0.26-0.09-0.6,0-1.02,0.25
										c-0.4,0.23-0.68,0.5-0.85,0.79c-0.17,0.29-0.22,0.6-0.15,0.92c0.05,0.27,0.18,0.44,0.37,0.51
										c0.19,0.07,0.49,0.05,0.89-0.05c0.41-0.11,0.79-0.21,1.16-0.3c0.37-0.09,0.69-0.14,0.97-0.14c0.17,0,0.32,0.01,0.47,0.05
										c0.15,0.04,0.29,0.11,0.42,0.21c0.13,0.11,0.24,0.25,0.34,0.44c0.1,0.19,0.18,0.43,0.24,0.73
										c0.09,0.47,0.11,0.91,0.05,1.32c-0.06,0.42-0.19,0.8-0.39,1.17c-0.19,0.36-0.44,0.69-0.75,0.99
										c-0.3,0.3-0.65,0.56-1.04,0.8c-0.42,0.25-0.81,0.42-1.17,0.5c-0.37,0.09-0.7,0.09-0.99,0c-0.3-0.09-0.55-0.27-0.76-0.54
										c-0.21-0.27-0.37-0.64-0.47-1.11l1.35-0.8c0.1,0.43,0.31,0.69,0.63,0.78c0.32,0.09,0.7,0.01,1.15-0.26
										c0.42-0.25,0.72-0.54,0.9-0.88c0.18-0.34,0.24-0.7,0.16-1.09c-0.03-0.13-0.06-0.23-0.11-0.32
										c-0.05-0.08-0.12-0.15-0.22-0.19c-0.1-0.04-0.22-0.06-0.37-0.05c-0.15,0.01-0.33,0.04-0.55,0.11
										c-0.44,0.13-0.81,0.23-1.12,0.31c-0.3,0.08-0.59,0.12-0.85,0.12c-0.4,0.01-0.73-0.09-0.99-0.31
										c-0.26-0.21-0.44-0.59-0.55-1.12c-0.08-0.38-0.1-0.76-0.06-1.14c0.04-0.38,0.13-0.74,0.29-1.09
										c0.16-0.35,0.38-0.68,0.66-0.99c0.28-0.31,0.63-0.58,1.03-0.83c0.42-0.25,0.81-0.41,1.17-0.46
										c0.36-0.06,0.67-0.03,0.95,0.08c0.27,0.11,0.51,0.3,0.7,0.57c0.19,0.27,0.34,0.6,0.43,1L166.96,226.97z"/>
									<path class="st18" d="M175.73,228.45l-1.17-5.81l-0.08,6.55l-1.39,0.82l-2.4-5.05l1.16,5.78l-1.3,0.77l-1.71-8.48
										l2.06-1.22l2.46,5.5l-0.04-6.93l2.02-1.19l1.71,8.48L175.73,228.45z"/>
									<path class="st18" d="M182.71,224.32l-0.77-1.5l-2.47,1.46l-0.12,2.03l-1.48,0.88l0.68-9.89l1.62-0.96l4.06,7.08
										L182.71,224.32z M179.72,218.73L179.72,218.73l-0.19,3.88l1.7-1.01L179.72,218.73z"/>
									<path class="st18" d="M188.94,220.63l-0.44-2.18c-0.08-0.41-0.21-0.66-0.4-0.74c-0.18-0.09-0.48-0.01-0.88,0.23l-1.49,0.88
										l0.67,3.32l-1.36,0.81l-1.71-8.48l3.4-2.01c0.31-0.18,0.6-0.29,0.88-0.31c0.28-0.03,0.53,0.01,0.75,0.13
										c0.23,0.11,0.42,0.29,0.58,0.53c0.16,0.25,0.27,0.54,0.34,0.89c0.09,0.46,0.09,0.92-0.01,1.37
										c-0.1,0.46-0.3,0.85-0.59,1.19c0.32-0.06,0.57,0,0.74,0.18c0.17,0.17,0.31,0.51,0.41,1l0.48,2.4L188.94,220.63z
										 M185,215.12l0.45,2.26l1.75-1.04c0.38-0.22,0.62-0.49,0.73-0.79c0.11-0.3,0.14-0.62,0.07-0.94
										c-0.07-0.33-0.2-0.56-0.39-0.68c-0.19-0.12-0.47-0.08-0.81,0.13L185,215.12z"/>
									<path class="st18" d="M196.69,212.78c0.02,0.53-0.01,1.04-0.09,1.52c-0.08,0.49-0.22,0.94-0.41,1.37
										c-0.19,0.43-0.43,0.81-0.72,1.16c-0.29,0.34-0.63,0.63-1.02,0.86c-0.44,0.26-0.86,0.41-1.28,0.44
										c-0.42,0.04-0.8-0.05-1.15-0.26c-0.35-0.21-0.66-0.54-0.93-1c-0.27-0.46-0.48-1.05-0.62-1.78c-0.14-0.71-0.2-1.4-0.17-2.06
										c0.03-0.66,0.14-1.27,0.33-1.82c0.19-0.56,0.46-1.05,0.8-1.5c0.34-0.44,0.75-0.8,1.23-1.09c0.42-0.25,0.81-0.39,1.18-0.44
										c0.37-0.04,0.71,0,1.01,0.13c0.3,0.13,0.56,0.34,0.78,0.63c0.22,0.29,0.39,0.63,0.51,1.04l-1.4,0.83
										c-0.19-0.43-0.45-0.7-0.77-0.81c-0.32-0.11-0.65-0.06-0.99,0.14c-0.58,0.35-0.96,0.87-1.13,1.56
										c-0.17,0.7-0.16,1.51,0.03,2.43c0.19,0.94,0.47,1.6,0.85,1.96c0.38,0.36,0.84,0.38,1.38,0.06
										c0.42-0.25,0.72-0.59,0.92-1.02c0.19-0.43,0.29-0.95,0.27-1.54L196.69,212.78z"/>
									<path class="st18" d="M202.07,212.85l-0.77-3.8l-2.61,1.55l0.77,3.8l-1.4,0.83l-1.7-8.48l1.4-0.83l0.64,3.19l2.61-1.55
										l-0.64-3.19l1.41-0.84l1.7,8.48L202.07,212.85z"/>
								</g>
							</g>
						</g>
					</g>
					<linearGradient id="SVGID_14_" gradientUnits="userSpaceOnUse" x1="188.763" y1="393.0104" x2="143.1291" y2="341.4055">
						<stop  offset="0" style="stop-color:#7C76F3"/>
						<stop  offset="1" style="stop-color:#594DC2"/>
					</linearGradient>
					<polygon class="st19" points="145.01,360.73 168.69,347.1 164.33,321.75 113.24,351.23 					"/>
				</g>
				<path class="st20" d="M156.99,203.66c-0.24-0.4-0.48-0.8-0.74-1.17c-1.36-2.01-3.07-3.73-4.97-4.83
					c-1.32-0.76-2.6-1.14-3.78-1.15c-1.42,0-2.68,0.59-3.54,1.66c-0.86,1.07-1.32,2.58-1.32,4.41c0,2.6,0.91,5.41,2.35,7.92
					c0.14,0.24,0.28,0.47,0.42,0.69l-0.4-2.16l0.36-0.22c-1.01-2.06-1.6-4.26-1.6-6.23c0-1.65,0.41-2.89,1.07-3.7
					c0.65-0.81,1.52-1.23,2.65-1.24c0.92,0,2.01,0.31,3.21,1c1.69,0.98,3.29,2.56,4.55,4.42c0.26,0.38,0.51,0.76,0.74,1.16
					c1.38,2.35,2.21,5,2.21,7.34c0,0.14,0,0.26-0.01,0.39c-0.06,1.47-0.45,2.58-1.06,3.32c-0.65,0.81-1.52,1.23-2.65,1.23
					c-0.49,0-1.02-0.08-1.6-0.27c-0.05,0.4-0.05,0.8,0,1.18c0.56,0.16,1.09,0.23,1.6,0.23c1.42,0.01,2.68-0.58,3.54-1.65
					c0.57-0.69,0.96-1.58,1.15-2.63c0.11-0.56,0.17-1.16,0.17-1.8C159.34,208.98,158.43,206.16,156.99,203.66z"/>
				<path class="st20" d="M173.74,196.47c-0.24-0.4-0.48-0.8-0.74-1.17c-0.42-0.63-0.88-1.22-1.36-1.76
					c-1.07-1.25-2.29-2.31-3.61-3.07c-1.32-0.76-2.6-1.14-3.78-1.15c-1.42,0-2.68,0.59-3.54,1.66c-0.86,1.07-1.32,2.58-1.32,4.41
					c0,1.55,0.32,3.17,0.9,4.75l0.99-0.58c-0.49-1.42-0.75-2.85-0.75-4.17c0-1.65,0.41-2.89,1.07-3.7c0.65-0.81,1.52-1.23,2.65-1.24
					c0.92,0,2.01,0.31,3.21,1c1.13,0.65,2.21,1.57,3.17,2.66c0.5,0.55,0.96,1.14,1.38,1.76c0.26,0.38,0.51,0.76,0.74,1.16
					c1,1.72,1.72,3.58,2.02,5.37c0.13,0.67,0.18,1.33,0.18,1.97c0,0.14,0,0.26-0.01,0.39c-0.06,1.47-0.45,2.58-1.06,3.32
					c-0.65,0.81-1.52,1.23-2.65,1.23c-0.49,0-1.01-0.08-1.59-0.27c0.28,0.66,0.72,1.14,1.24,1.4c0.11,0.01,0.24,0.01,0.35,0.01
					c1.42,0.01,2.68-0.58,3.54-1.65c0.22-0.26,0.41-0.56,0.56-0.88c0.01-0.01,0.02-0.01,0.01-0.02c0.27-0.51,0.47-1.09,0.58-1.73
					c0.11-0.56,0.17-1.16,0.17-1.8C176.09,201.78,175.18,198.96,173.74,196.47z"/>
				<path class="st20" d="M190.15,186.83c-0.24-0.4-0.48-0.8-0.74-1.17c-0.42-0.63-0.88-1.22-1.36-1.76
					c-1.07-1.25-2.29-2.31-3.61-3.07c-1.32-0.76-2.6-1.14-3.78-1.15c-1.42,0-2.68,0.59-3.54,1.66c-0.86,1.07-1.32,2.58-1.32,4.41
					c0,1.55,0.32,3.17,0.9,4.75l0.99-0.58c-0.49-1.42-0.75-2.85-0.75-4.17c0-1.65,0.41-2.89,1.07-3.7c0.65-0.81,1.52-1.23,2.65-1.24
					c0.92,0,2.01,0.31,3.21,1c1.13,0.65,2.21,1.57,3.17,2.66c0.5,0.55,0.96,1.14,1.38,1.76c0.26,0.38,0.51,0.76,0.74,1.16
					c1,1.72,1.72,3.58,2.02,5.37c0.13,0.67,0.18,1.33,0.18,1.97c0,0.14,0,0.26-0.01,0.39c-0.06,1.47-0.45,2.58-1.06,3.32
					c-0.65,0.81-1.52,1.23-2.65,1.23c-0.49,0-1.01-0.08-1.59-0.27c0.28,0.66,0.72,1.14,1.24,1.4c0.11,0.01,0.24,0.01,0.35,0.01
					c1.42,0.01,2.68-0.58,3.54-1.65c0.22-0.26,0.41-0.56,0.56-0.88c0.01-0.01,0.02-0.01,0.01-0.02c0.27-0.51,0.47-1.09,0.58-1.73
					c0.11-0.56,0.17-1.16,0.17-1.8C192.51,192.14,191.6,189.32,190.15,186.83z"/>
				<path class="st20" d="M206.57,177.2c-0.24-0.4-0.48-0.8-0.74-1.17c-0.42-0.63-0.88-1.22-1.36-1.76
					c-1.07-1.25-2.29-2.31-3.61-3.07c-1.32-0.76-2.6-1.14-3.78-1.15c-1.42,0-2.68,0.59-3.54,1.66c-0.86,1.07-1.32,2.58-1.32,4.41
					c0,1.55,0.32,3.17,0.9,4.75l0.99-0.58c-0.49-1.42-0.75-2.85-0.75-4.17c0-1.65,0.41-2.89,1.07-3.7c0.65-0.81,1.52-1.23,2.65-1.24
					c0.92,0,2.01,0.31,3.21,1c1.13,0.65,2.21,1.57,3.17,2.66c0.5,0.55,0.96,1.14,1.38,1.76c0.26,0.38,0.51,0.76,0.74,1.16
					c1,1.72,1.72,3.58,2.02,5.37c0.13,0.67,0.18,1.33,0.18,1.97c0,0.14,0,0.26-0.01,0.39c-0.06,1.47-0.46,2.58-1.06,3.32
					c-0.65,0.81-1.52,1.23-2.65,1.23c-0.49,0-1.01-0.08-1.59-0.27c0.28,0.66,0.72,1.14,1.24,1.4c0.11,0.01,0.24,0.01,0.35,0.01
					c1.42,0.01,2.68-0.58,3.54-1.65c0.22-0.26,0.41-0.56,0.56-0.88c0.01-0.01,0.02-0.01,0.01-0.02c0.27-0.51,0.47-1.09,0.58-1.73
					c0.11-0.56,0.17-1.16,0.17-1.8C208.92,182.51,208.01,179.69,206.57,177.2z"/>
				<path class="st20" d="M222.98,167.56c-0.24-0.4-0.48-0.8-0.74-1.17c-0.42-0.63-0.88-1.22-1.36-1.76
					c-1.07-1.25-2.29-2.31-3.61-3.07c-1.32-0.76-2.6-1.14-3.78-1.15c-1.42,0-2.68,0.59-3.54,1.66c-0.86,1.07-1.32,2.58-1.32,4.41
					c0,1.55,0.32,3.17,0.9,4.75l0.99-0.58c-0.49-1.42-0.75-2.85-0.75-4.17c0-1.65,0.41-2.89,1.07-3.7c0.65-0.81,1.52-1.23,2.65-1.24
					c0.92,0,2.01,0.31,3.21,1c1.13,0.65,2.21,1.57,3.17,2.66c0.5,0.55,0.96,1.14,1.38,1.76c0.26,0.38,0.51,0.76,0.74,1.16
					c1,1.72,1.72,3.58,2.02,5.37c0.13,0.67,0.18,1.33,0.18,1.97c0,0.14,0,0.26-0.01,0.39c-0.06,1.47-0.46,2.58-1.06,3.32
					c-0.65,0.81-1.52,1.23-2.65,1.23c-0.49,0-1.01-0.08-1.59-0.27c0.28,0.66,0.72,1.14,1.24,1.4c0.11,0.01,0.24,0.01,0.35,0.01
					c1.42,0.01,2.68-0.58,3.54-1.65c0.22-0.26,0.41-0.56,0.56-0.88c0.01-0.01,0.02-0.01,0.01-0.02c0.27-0.51,0.47-1.09,0.58-1.73
					c0.11-0.56,0.17-1.16,0.17-1.8C225.33,172.87,224.42,170.05,222.98,167.56z"/>
				<path class="st20" d="M239.39,157.93c-0.24-0.4-0.48-0.8-0.74-1.17c-0.42-0.63-0.88-1.22-1.36-1.76
					c-1.07-1.25-2.29-2.31-3.61-3.07c-1.32-0.76-2.6-1.14-3.78-1.15c-1.42,0-2.68,0.59-3.54,1.66c-0.86,1.07-1.32,2.58-1.32,4.41
					c0,1.55,0.32,3.17,0.9,4.75l0.99-0.58c-0.49-1.42-0.75-2.85-0.75-4.17c0-1.65,0.41-2.89,1.07-3.7c0.65-0.81,1.52-1.23,2.65-1.24
					c0.92,0,2.01,0.31,3.21,1c1.13,0.65,2.21,1.57,3.17,2.66c0.5,0.55,0.96,1.14,1.38,1.76c0.26,0.38,0.51,0.76,0.74,1.16
					c1,1.72,1.72,3.58,2.02,5.37c0.13,0.67,0.18,1.33,0.18,1.97c0,0.14,0,0.26-0.01,0.39c-0.06,1.47-0.46,2.58-1.06,3.32
					c-0.65,0.81-1.52,1.23-2.65,1.23c-0.49,0-1.01-0.08-1.59-0.27c0.28,0.66,0.72,1.14,1.24,1.4c0.11,0.01,0.24,0.01,0.35,0.01
					c1.42,0.01,2.68-0.58,3.54-1.65c0.22-0.26,0.41-0.56,0.56-0.88c0.01-0.01,0.02-0.01,0.01-0.02c0.27-0.51,0.47-1.09,0.58-1.73
					c0.11-0.56,0.17-1.16,0.17-1.8C241.75,163.24,240.84,160.42,239.39,157.93z"/>
				<path class="st20" d="M255.81,148.29c-0.24-0.4-0.48-0.8-0.74-1.17c-0.42-0.63-0.88-1.22-1.36-1.76
					c-1.07-1.25-2.29-2.31-3.61-3.07c-1.32-0.76-2.6-1.14-3.78-1.15c-1.42,0-2.68,0.59-3.54,1.66c-0.86,1.07-1.32,2.58-1.32,4.41
					c0,1.55,0.32,3.17,0.9,4.75l0.99-0.58c-0.49-1.42-0.75-2.85-0.75-4.17c0-1.65,0.41-2.89,1.07-3.7c0.65-0.81,1.52-1.23,2.65-1.24
					c0.92,0,2.01,0.31,3.21,1c1.13,0.65,2.21,1.57,3.17,2.66c0.5,0.55,0.96,1.14,1.38,1.76c0.26,0.38,0.51,0.76,0.74,1.16
					c1,1.72,1.72,3.58,2.02,5.37c0.13,0.67,0.18,1.33,0.18,1.97c0,0.14,0,0.26-0.01,0.39c-0.06,1.47-0.45,2.58-1.06,3.32
					c-0.65,0.81-1.52,1.23-2.65,1.23c-0.49,0-1.01-0.08-1.59-0.27c0.28,0.66,0.72,1.14,1.24,1.4c0.11,0.01,0.24,0.01,0.35,0.01
					c1.42,0.01,2.68-0.58,3.54-1.65c0.22-0.26,0.41-0.56,0.56-0.88c0.01-0.01,0.02-0.01,0.01-0.02c0.27-0.51,0.47-1.09,0.58-1.73
					c0.11-0.56,0.17-1.16,0.17-1.8C258.16,153.61,257.25,150.79,255.81,148.29z"/>
				<path class="st20" d="M272.22,138.66c-0.24-0.4-0.48-0.8-0.74-1.17c-0.42-0.63-0.88-1.22-1.36-1.76
					c-1.07-1.25-2.29-2.31-3.61-3.07c-1.32-0.76-2.6-1.14-3.78-1.15c-1.42,0-2.68,0.59-3.54,1.66c-0.86,1.07-1.32,2.58-1.32,4.41
					c0,1.55,0.32,3.17,0.9,4.75l0.99-0.58c-0.49-1.42-0.75-2.85-0.75-4.17c0-1.65,0.41-2.89,1.07-3.7c0.65-0.81,1.52-1.23,2.65-1.24
					c0.92,0,2.01,0.31,3.21,1c1.13,0.65,2.21,1.57,3.17,2.66c0.5,0.55,0.96,1.14,1.38,1.76c0.26,0.38,0.51,0.76,0.74,1.16
					c1,1.72,1.72,3.58,2.02,5.37c0.13,0.67,0.18,1.33,0.18,1.97c0,0.14,0,0.26-0.01,0.39c-0.06,1.47-0.46,2.58-1.06,3.32
					c-0.65,0.81-1.52,1.23-2.65,1.23c-0.49,0-1.01-0.08-1.59-0.27c0.28,0.66,0.72,1.14,1.24,1.4c0.11,0.01,0.24,0.01,0.35,0.01
					c1.42,0.01,2.68-0.58,3.54-1.65c0.22-0.26,0.41-0.56,0.56-0.88c0.01-0.01,0.02-0.01,0.01-0.02c0.27-0.51,0.47-1.09,0.58-1.73
					c0.11-0.56,0.17-1.16,0.17-1.8C274.57,143.97,273.66,141.15,272.22,138.66z"/>
				<path class="st20" d="M288.63,129.03c-0.24-0.4-0.48-0.8-0.74-1.17c-0.42-0.63-0.88-1.22-1.36-1.76
					c-1.07-1.25-2.29-2.31-3.61-3.07c-1.32-0.76-2.6-1.14-3.78-1.15c-1.42,0-2.68,0.59-3.54,1.66c-0.86,1.07-1.32,2.58-1.32,4.41
					c0,1.55,0.32,3.17,0.9,4.75l0.99-0.58c-0.49-1.42-0.75-2.85-0.75-4.17c0-1.65,0.41-2.89,1.07-3.7c0.65-0.81,1.52-1.23,2.65-1.24
					c0.92,0,2.01,0.31,3.21,1c1.13,0.65,2.21,1.57,3.17,2.66c0.5,0.55,0.96,1.14,1.38,1.76c0.26,0.38,0.51,0.76,0.74,1.16
					c1,1.72,1.72,3.58,2.02,5.37c0.13,0.67,0.18,1.33,0.18,1.97c0,0.14,0,0.26-0.01,0.39c-0.06,1.47-0.45,2.58-1.06,3.32
					c-0.65,0.81-1.52,1.23-2.65,1.23c-0.49,0-1.01-0.08-1.59-0.27c0.28,0.66,0.72,1.14,1.24,1.4c0.11,0.01,0.24,0.01,0.35,0.01
					c1.42,0.01,2.68-0.58,3.54-1.65c0.22-0.26,0.41-0.56,0.56-0.88c0.01-0.01,0.02-0.01,0.01-0.02c0.27-0.51,0.47-1.09,0.58-1.73
					c0.11-0.56,0.17-1.16,0.17-1.8C290.99,134.34,290.08,131.52,288.63,129.03z"/>
				<path class="st20" d="M305.05,119.39c-0.24-0.4-0.48-0.8-0.74-1.17c-0.42-0.63-0.88-1.22-1.36-1.76
					c-1.07-1.25-2.29-2.31-3.61-3.07c-1.32-0.76-2.6-1.14-3.78-1.15c-1.42,0-2.68,0.59-3.54,1.66c-0.86,1.07-1.32,2.58-1.32,4.41
					c0,1.55,0.32,3.17,0.9,4.75l0.99-0.58c-0.49-1.42-0.75-2.85-0.75-4.17c0-1.65,0.41-2.89,1.07-3.7c0.65-0.81,1.52-1.23,2.65-1.24
					c0.92,0,2.01,0.31,3.21,1c1.13,0.65,2.21,1.57,3.17,2.66c0.5,0.55,0.96,1.14,1.38,1.76c0.26,0.38,0.51,0.76,0.74,1.16
					c1,1.72,1.72,3.58,2.02,5.37c0.13,0.67,0.18,1.33,0.18,1.97c0,0.14,0,0.26-0.01,0.39c-0.06,1.47-0.45,2.58-1.06,3.32
					c-0.65,0.81-1.52,1.23-2.65,1.23c-0.49,0-1.01-0.08-1.59-0.27c0.28,0.66,0.72,1.14,1.24,1.4c0.11,0.01,0.24,0.01,0.35,0.01
					c1.42,0.01,2.68-0.58,3.54-1.65c0.22-0.26,0.41-0.56,0.56-0.88c0.01-0.01,0.02-0.01,0.01-0.02c0.27-0.51,0.47-1.09,0.58-1.73
					c0.11-0.56,0.17-1.16,0.17-1.8C307.4,124.7,306.49,121.88,305.05,119.39z"/>
				<path class="st20" d="M321.46,109.76c-0.24-0.4-0.48-0.8-0.74-1.17c-0.42-0.63-0.88-1.22-1.36-1.76
					c-1.07-1.25-2.29-2.31-3.61-3.07c-1.32-0.76-2.6-1.14-3.78-1.15c-1.42,0-2.68,0.59-3.54,1.66c-0.86,1.07-1.32,2.58-1.32,4.41
					c0,1.55,0.32,3.17,0.9,4.75l0.99-0.58c-0.49-1.42-0.75-2.85-0.75-4.17c0-1.65,0.41-2.89,1.07-3.7c0.65-0.81,1.52-1.23,2.65-1.24
					c0.92,0,2.01,0.31,3.21,1c1.13,0.65,2.21,1.57,3.17,2.66c0.5,0.55,0.96,1.14,1.38,1.76c0.26,0.38,0.51,0.76,0.74,1.16
					c1,1.72,1.72,3.58,2.02,5.37c0.13,0.67,0.18,1.33,0.18,1.97c0,0.14,0,0.26-0.01,0.39c-0.06,1.47-0.45,2.58-1.06,3.32
					c-0.65,0.81-1.52,1.23-2.65,1.23c-0.49,0-1.01-0.08-1.59-0.27c0.28,0.66,0.72,1.14,1.24,1.4c0.11,0.01,0.24,0.01,0.35,0.01
					c1.42,0.01,2.68-0.58,3.54-1.65c0.22-0.26,0.41-0.56,0.56-0.88c0.01-0.01,0.02-0.01,0.01-0.02c0.27-0.51,0.47-1.09,0.58-1.73
					c0.11-0.56,0.17-1.16,0.17-1.8C323.82,115.07,322.91,112.25,321.46,109.76z"/>
				<path class="st20" d="M337.88,100.12c-0.24-0.4-0.48-0.8-0.74-1.17c-0.42-0.63-0.88-1.22-1.36-1.76
					c-1.07-1.25-2.29-2.31-3.61-3.07c-1.32-0.76-2.6-1.14-3.78-1.15c-1.42,0-2.68,0.59-3.54,1.66c-0.86,1.07-1.32,2.58-1.32,4.41
					c0,1.55,0.32,3.17,0.9,4.75l0.99-0.58c-0.49-1.42-0.75-2.85-0.75-4.17c0-1.65,0.41-2.89,1.07-3.7c0.65-0.81,1.52-1.23,2.65-1.24
					c0.92,0,2.01,0.31,3.21,1c1.13,0.65,2.21,1.57,3.17,2.66c0.5,0.55,0.96,1.14,1.38,1.76c0.26,0.38,0.51,0.76,0.74,1.16
					c1,1.72,1.72,3.58,2.02,5.37c0.13,0.67,0.18,1.33,0.18,1.97c0,0.14,0,0.26-0.01,0.39c-0.06,1.47-0.45,2.58-1.06,3.32
					c-0.65,0.81-1.52,1.23-2.65,1.23c-0.49,0-1.01-0.08-1.59-0.27c0.28,0.66,0.72,1.14,1.24,1.4c0.11,0.01,0.24,0.01,0.35,0.01
					c1.42,0.01,2.68-0.58,3.54-1.65c0.22-0.26,0.41-0.56,0.56-0.88c0.01-0.01,0.02-0.01,0.01-0.02c0.27-0.51,0.47-1.09,0.58-1.73
					c0.11-0.56,0.17-1.16,0.17-1.8C340.23,105.43,339.32,102.61,337.88,100.12z"/>
				<path class="st20" d="M354.29,90.49c-0.24-0.4-0.48-0.8-0.74-1.17c-0.42-0.63-0.88-1.22-1.36-1.76
					c-1.07-1.25-2.29-2.31-3.61-3.07c-1.32-0.76-2.6-1.14-3.78-1.15c-1.42,0-2.68,0.59-3.54,1.66c-0.86,1.07-1.32,2.58-1.32,4.41
					c0,1.55,0.32,3.17,0.9,4.75l0.99-0.58c-0.49-1.42-0.75-2.85-0.75-4.17c0-1.65,0.41-2.89,1.07-3.7c0.65-0.81,1.52-1.23,2.65-1.24
					c0.92,0,2.01,0.31,3.21,1c1.13,0.65,2.21,1.57,3.17,2.66c0.5,0.55,0.96,1.14,1.38,1.76c0.26,0.38,0.51,0.76,0.74,1.16
					c1,1.72,1.72,3.58,2.02,5.37c0.13,0.67,0.18,1.33,0.18,1.97c0,0.14,0,0.26-0.01,0.39c-0.06,1.47-0.45,2.58-1.06,3.32
					c-0.65,0.81-1.52,1.23-2.65,1.23c-0.49,0-1.01-0.08-1.59-0.27c0.28,0.66,0.72,1.14,1.24,1.4c0.11,0.01,0.24,0.01,0.35,0.01
					c1.42,0.01,2.68-0.58,3.54-1.65c0.22-0.26,0.41-0.56,0.56-0.88c0.01-0.01,0.02-0.01,0.01-0.02c0.27-0.51,0.47-1.09,0.58-1.73
					c0.11-0.56,0.17-1.16,0.17-1.8C356.64,95.8,355.73,92.98,354.29,90.49z"/>
			</g>
			<g>
				<linearGradient id="SVGID_15_" gradientUnits="userSpaceOnUse" x1="405.6978" y1="334.3047" x2="342.4353" y2="304.7348">
					<stop  offset="0" style="stop-color:#5457D4;stop-opacity:0"/>
					<stop  offset="1" style="stop-color:#302C8B"/>
				</linearGradient>
				<polygon class="st21" points="366.84,327.21 415.62,342.97 423.3,331.46 365.1,318.68 				"/>
				
					<linearGradient id="SVGID_16_" gradientUnits="userSpaceOnUse" x1="157.3086" y1="363.0527" x2="208.2373" y2="312.124" gradientTransform="matrix(-1 0 0 1 546.47 0)">
					<stop  offset="0" style="stop-color:#5457D4;stop-opacity:0"/>
					<stop  offset="1" style="stop-color:#302C8B"/>
				</linearGradient>
				<path class="st22" d="M334.39,336.06l61.8,38.05c6.68-4.59,12.41-9.51,17.2-14.63l-67.45-30.09L334.39,336.06z"/>
				<g id="XMLID_4_">
					
						<linearGradient id="SVGID_17_" gradientUnits="userSpaceOnUse" x1="-81.2203" y1="252.9921" x2="-70.3833" y2="252.9921" gradientTransform="matrix(-0.904 0.4274 0.4274 0.904 147.3124 -7.5802)">
						<stop  offset="0" style="stop-color:#F59F7C"/>
						<stop  offset="1" style="stop-color:#F5D3AC"/>
					</linearGradient>
					<path class="st23" d="M331.82,192.66c0,0-1.65-1.77-2.44-2.48c-1.29-1.16-1.93-3.07-2.69-4.58c-0.05-0.09-0.09-0.18-0.17-0.26
						c-0.11-0.1-0.26-0.15-0.4-0.19c-0.67-0.18-1.03-0.11-1.66,0.06c-0.43,0.12-1.03,0.17-1.46,0.42c-0.14,0.08-0.29,0.19-0.45,0.2
						c-0.13,0.01-0.25-0.04-0.37-0.09c-2.13-0.9-4.2-2.04-6.51-2.46c-0.11,0.36,0.04,0.75,0.28,1.03c0.25,0.28,0.58,0.47,0.9,0.66
						c1.41,0.83,2.94,1.51,4.01,2.79c-0.21,0.45-0.42,0.93-0.37,1.42c0.04,0.44,0.28,1,0.54,1.36c0.38,0.53,0.77,1.06,1.27,1.48
						c0.71,0.6,1.48,0.62,2.32,0.88c0.7,0.22,1.37,0.59,2.02,0.93c0.98,0.51,1.94,1.06,2.88,1.63L331.82,192.66z"/>
					<linearGradient id="SVGID_18_" gradientUnits="userSpaceOnUse" x1="365.067" y1="193.6743" x2="333.1593" y2="208.7608">
						<stop  offset="0" style="stop-color:#7C76F3"/>
						<stop  offset="1" style="stop-color:#594DC2"/>
					</linearGradient>
					<path class="st24" d="M369.51,203.9c-0.4-0.3-0.87-0.52-1.33-0.68c-1.97-0.7-4.17-0.57-6.24-0.59
						c-1.98-0.02-3.96-0.04-5.95-0.06c-2.28-0.02-4.57-0.03-6.85-0.05l-17.95-12.31c-4.07,2.28-4.36,5.17-4.36,5.17
						s13.65,10.83,16.28,12.97c1.87,1.52,5.04,1.72,7.32,2.13c3.09,0.56,6.19,1.05,9.31,1.49c3.47,0.49,9.36,1.44,10.58-2.91
						c0.38-1.35,0.73-2.97,0.01-4.27C370.12,204.43,369.83,204.14,369.51,203.9z"/>
					<path class="st1" d="M340.65,220c0.11,0.1-1.91-2.14-2.02-2.24c-4.97-4.54-9.94-9.07-14.91-13.6c5.54-4.8,6.95-5.02,10.93-7.46
						c5.12,5.09,10.88,11.01,15.93,16.17L340.65,220z"/>
					<polygon class="st25" points="327.59,202.59 337.59,197.74 348.71,210.92 339.11,215.75 					"/>
					<g id="XMLID_23225_">
						<g>
							
								<linearGradient id="SVGID_19_" gradientUnits="userSpaceOnUse" x1="25.635" y1="201.6091" x2="32.0676" y2="205.1246" gradientTransform="matrix(-1 0 0 1 384.0924 0)">
								<stop  offset="0" style="stop-color:#F59F7C"/>
								<stop  offset="1" style="stop-color:#F5D3AC"/>
							</linearGradient>
							<path class="st26" d="M353.43,199.81c-0.36,0.14-0.63,0.29-0.63,0.42c0.73,0.7,1.82,1.43,2.36,2.28
								c0.16,0.24,0.86,2.43,0.8,2.44c2.88-0.21,5.73-0.89,8.4-1.99c-0.39-1.11-0.63-2.28-0.69-3.46c-0.06-1.03,0.25-2.13,0.04-3.12
								c-0.04,0.01-0.09,0.03-0.13,0.04c-1.7,0.58-3.4,1.15-5.1,1.73c-1.06,0.36-2.12,0.72-3.17,1.08
								C355.11,199.29,354.11,199.54,353.43,199.81z"/>
							
								<linearGradient id="XMLID_2_" gradientUnits="userSpaceOnUse" x1="15.2524" y1="190.6067" x2="35.3077" y2="190.6067" gradientTransform="matrix(-1 0 0 1 384.0924 0)">
								<stop  offset="0" style="stop-color:#F59F7C"/>
								<stop  offset="1" style="stop-color:#F5D3AC"/>
							</linearGradient>
							<path id="XMLID_23070_" class="st27" d="M352.39,183.47c-1.35,1.64-1.34,3.91-1.68,5.91c-0.15,0.9-0.3,1.8-0.69,2.6
								c-0.38,0.76-1.48,1.3-1.18,2.31c0.1,0.35,0.38,0.62,0.61,0.92c1.39,1.8,0.86,4.5,3.4,5.4c1.37,0.48,3.02,0.03,3.96-1.09
								c1.88,0.74,3.93,0.69,5.64-0.43c2.12-1.4,3.85-3.36,5-5.62c0.59-1.16,0.98-2.36,1.28-3.62c0.3-1.25-0.02-2.69-0.46-3.9
								C366,179.84,356.5,178.46,352.39,183.47z"/>
							<path class="st28" d="M353.1,185.57c0.05,0.41-0.06,0.81-0.1,1.23c-0.13,1.36,1.36,1.96,1.48,3.32
								c0.08,0.85-1.48,4.33,0,4.59c0.18-0.76,0.26-1.75,1.32-1.77c1.12-0.03,1.24,1.25,1.07,2.08c-0.22,1-1.13,1.91-1.1,2.91
								c0.01,0.2,0.06,0.4,0.15,0.6c0.57,1.22,1.76,1.99,3.1,2.08c1.34,0.1,2.66-0.41,3.83-1.09c2.31-1.33,4.23-3.33,5.47-5.69
								c0.79-1.52,2.08-3.04,2.51-4.71c0.49-1.93-0.9-2.77-1.26-4.18c-0.04-0.17-0.06-0.34-0.07-0.52
								c-0.02-0.53-0.03-1.05-0.17-1.57c-0.1-0.38-0.23-0.76-0.4-1.11c-0.29-0.6-0.68-1.15-1.15-1.61
								c-1.43-1.38-3.15-2.16-5.09-2.66c-2.57-0.66-5.51-0.66-7.88,0.65c-1.92,1.05-3.44,3.51-2.45,5.75
								C352.63,184.44,353.03,184.96,353.1,185.57z"/>
						</g>
						<path id="XMLID_38_" class="st28" d="M352.06,336.84v1.04c-1.43,0.91-3.81,1.02-5.26,0.24c-4.32-2.35-9.26,1.14-13.31-2.07
							c-0.73-0.58-2.04-2.09-1.88-3.69C336.74,333.64,352.06,336.84,352.06,336.84z"/>
						<path class="st28" d="M352.06,336.84c1.13-1.26,0-7.37,0-7.37l-6.2-0.61c1.21,2.86,2.13,5.72,3.09,8.59
							C350.32,337.53,351.56,337.41,352.06,336.84z"/>
						<linearGradient id="SVGID_20_" gradientUnits="userSpaceOnUse" x1="344.0621" y1="333.1647" x2="356.1164" y2="334.604">
							<stop  offset="0" style="stop-color:#7C76F3"/>
							<stop  offset="1" style="stop-color:#594DC2"/>
						</linearGradient>
						<path class="st29" d="M345.86,328.87l-1.16-0.11c0,0-4.71,1.44-7.5,1.87c-1.55,0.24-4.05-0.92-5.19,0.71
							c-1.43,2.02,1.42,4.52,3,5.12c2.45,0.93,7.5-0.14,9.35,0.29c1.02,0.24,2.91,0.63,4.58,0.72
							C347.99,334.59,347.07,331.73,345.86,328.87z"/>
						
							<linearGradient id="XMLID_3_" gradientUnits="userSpaceOnUse" x1="26.8914" y1="315.9153" x2="15.5221" y2="322.7967" gradientTransform="matrix(-1 0 0 1 384.0924 0)">
							<stop  offset="0" style="stop-color:#7C76F3"/>
							<stop  offset="1" style="stop-color:#594DC2"/>
						</linearGradient>
						<path id="XMLID_23066_" class="st30" d="M365.76,326.48c2.62,2.52,4.64-0.66,4.47-3.41c-0.08-1.3-0.19-2.7-0.93-3.73
							c-0.8-1.12-2.3-1.75-2.53-3.14c-1.9-0.6-12.34-5.24-11.59,0.41c0.4,2.98,4.78,4.29,7.79,7.19
							C362.98,323.8,365.76,326.47,365.76,326.48z"/>
						<linearGradient id="XMLID_5_" gradientUnits="userSpaceOnUse" x1="355.2964" y1="321.4532" x2="370.2678" y2="321.4532">
							<stop  offset="0" style="stop-color:#7C76F3"/>
							<stop  offset="1" style="stop-color:#594DC2"/>
						</linearGradient>
						<path id="XMLID_23065_" class="st31" d="M365.91,325.6l-2.78-2.67c-3.01-2.9-7.39-4.21-7.79-7.19l0,0l0,0l0,0v0l0-0.02l0,0
							l0,0l0,0v0l0,0l0,0v0v0l0,0v0l0,0v0v0l0,0l0,0l0,0l0,0l0,0l0,0l0,0l0,0l0,0l0,0l0,0c-0.05,0.29-0.05,0.63,0,1.01
							c0.4,2.98,4.78,4.29,7.79,7.19l2.15,2.12c2.35,2.27,5.47,1.2,4.93-2.15C370.45,325.84,367.9,327.52,365.91,325.6"/>
						
							<linearGradient id="SVGID_21_" gradientUnits="userSpaceOnUse" x1="12.6051" y1="285.9544" x2="28.7946" y2="285.9544" gradientTransform="matrix(-1 0 0 1 384.0924 0)">
							<stop  offset="0" style="stop-color:#7C76F3"/>
							<stop  offset="1" style="stop-color:#594DC2"/>
						</linearGradient>
						<path class="st32" d="M355.3,279.8c1.32,11.5,3.32,24.77,6.31,39.59c0.73,3.62,2.43,5.27,4.16,5.84
							c2.45,0.81,4.99-0.55,5.05-1.6c0.63-9.89-2.07-28.81-3.41-39.25c-0.45-11.84,6.26-28.97,3.34-33.44l-14.75-4.5l-0.28,13.36
							L355.3,279.8z"/>
						<path class="st28" d="M355.72,259.79c0.44,1.22,0.77,2,0.77,2s5.12,35.63,6.3,40.12c1,3.79,2.53,18.73,2.98,23.31
							c2.45,0.81,4.99-0.55,5.05-1.6c0.63-9.89-2.07-28.81-3.41-39.25c-0.45-11.84,6.26-28.97,3.34-33.44l-14.75-4.5L355.72,259.79z
							"/>
						
							<linearGradient id="SVGID_22_" gradientUnits="userSpaceOnUse" x1="56.4764" y1="286.1982" x2="7.2594" y2="291.5836" gradientTransform="matrix(-1 0 0 1 384.0924 0)">
							<stop  offset="0" style="stop-color:#7C76F3"/>
							<stop  offset="1" style="stop-color:#594DC2"/>
						</linearGradient>
						<path class="st33" d="M343.31,326.27c0.19,3.42,2.27,4.26,4.48,4.16c2.59-0.11,5.35-1.53,5.35-1.53
							c0.03-12.49,1.19-26.52,0.57-38.07c-0.57-10.64,7.69-26.53,7.79-39.99c0.02-0.69,0-1.36-0.04-2.03l-16.78-2.87
							c-0.35,2.68-0.66,5.23-0.96,7.68C339.21,292.09,342.01,303.27,343.31,326.27z"/>
						<path class="st28" d="M347.03,291c-0.1,3.35,0.6,33.29,0.75,39.44c2.59-0.11,5.35-1.53,5.35-1.53
							c0.03-12.49,1.19-26.52,0.57-38.07c-0.57-10.64,7.69-26.53,7.79-39.99l-17.78,2.78l6.64,9.48
							C350.35,263.11,347.16,287.26,347.03,291z"/>
						
							<linearGradient id="SVGID_23_" gradientUnits="userSpaceOnUse" x1="51.3749" y1="228.3696" x2="8.441" y2="231.6606" gradientTransform="matrix(-1 0 0 1 384.0924 0)">
							<stop  offset="0" style="stop-color:#7C76F3"/>
							<stop  offset="1" style="stop-color:#594DC2"/>
						</linearGradient>
						<path class="st34" d="M345.86,255.05l1.89,1.01c1.35,0.66,2.83,1.27,4.37,1.79c6.38,2.15,13.82,2.72,17.1-1.49
							c0.86-0.75,4-3.71,4-3.71c-0.73-5.22-4.02-17.99-3.97-18.47c0.29-2.95,1.22-5.9,2.03-8.73c0.93-3.26,2.68-6.14,3.57-9.42
							c0.6-2.21,0.8-4.59,0.2-6.81c-1.26-4.68-5.02-7.39-9.62-7.28c-2.3,0.05-4.55,0.71-6.68,1.6c-2.2,0.93-4.3,2.13-6.21,3.6
							c-1.73,1.33-2.94,2.62-3.85,4.2c-0.63,1.08-1.14,2.28-1.6,3.73c-1.12,3.53-1.01,6.78-1.16,10.4
							c-0.17,3.73,0.16,7.01,0.26,10.78c-1.98,6.87-4.48,10.15-4.93,13.99C341.1,251.57,342.99,253.38,345.86,255.05z"/>
						<path class="st28" d="M356.93,242.23l-4.81,15.61c6.38,2.15,13.82,2.72,17.1-1.49c0.86-0.75,4-3.71,4-3.71
							c-0.73-5.22-4.02-17.99-3.97-18.47c0.29-2.95,1.22-5.9,2.03-8.73c0.93-3.26,2.68-6.14,3.57-9.42c0.6-2.21,0.8-4.59,0.2-6.81
							c-1.26-4.68-5.02-7.39-9.62-7.28c-2.3,0.05-4.55,0.71-6.68,1.6c-2.2,0.93-4.3,2.13-6.21,3.6c-1.73,1.33-2.94,2.62-3.85,4.2
							c1.66,3.94,0.09,9.39,0.09,9.39s7.85,6.1,8.15,9.99C357.24,234.6,356.93,242.23,356.93,242.23z"/>
						
							<linearGradient id="SVGID_24_" gradientUnits="userSpaceOnUse" x1="17.5605" y1="203.0452" x2="30.9124" y2="203.0452" gradientTransform="matrix(-1 0 0 1 384.0924 0)">
							<stop  offset="0" style="stop-color:#FFFFFF"/>
							<stop  offset="1" style="stop-color:#C9DEFF"/>
						</linearGradient>
						<path class="st35" d="M353.18,206.17c2.08-1.23,4.36-2.07,6.68-2.71c0.53-0.15,6.6-1.69,6.68-1.47
							c-0.37-1.11-1.15-2.05-2.4-2.07c-0.51-0.01-1.02,0.11-1.51,0.25c-1.99,0.54-3.95,1.22-5.85,2.03
							C354.99,202.96,353.69,204.26,353.18,206.17z"/>
					</g>
					<linearGradient id="SVGID_25_" gradientUnits="userSpaceOnUse" x1="335.5828" y1="206.8241" x2="352.0025" y2="234.2791">
						<stop  offset="0" style="stop-color:#7C76F3"/>
						<stop  offset="1" style="stop-color:#594DC2"/>
					</linearGradient>
					<path class="st36" d="M356.23,222.18c-0.05,0.02-18.24,12.54-19.02,12.43c-2.47-0.36-4.07-1.13-5.46-3.25
						c-1.59-2.45-1.51-3.96-1.22-6.86c0.1-0.99,0.2-1.99,0.25-2.98c0.02-0.51,0.02-1.02,0.01-1.52c-0.03-1.25,0.52-2.04,1.36-2.49
						c1.01-0.56,2.43-0.66,3.72-0.57c0.16,0,0.32,0.01,0.48,0.03c0.17,0.01,0.35,0.05,0.48,0.16c0.13,0.13,0.17,0.31,0.2,0.49
						c0.3,1.47,0.51,3,0.93,4.44c1.15-0.34,1.47-1.11,2.17-1.96c1-1.17,2.26-2.2,3.39-3.25c2.34-2.18,5.14-6.55,8.35-7.29
						C358.09,208.13,360.95,218.94,356.23,222.18z"/>
					<linearGradient id="SVGID_26_" gradientUnits="userSpaceOnUse" x1="337.7464" y1="212.6567" x2="331.2096" y2="214.424">
						<stop  offset="0" style="stop-color:#F59F7C"/>
						<stop  offset="1" style="stop-color:#F5D3AC"/>
					</linearGradient>
					<path class="st37" d="M336.71,213.07c-0.35,0.88-0.75,1.76-0.8,2.68c-0.03,0.39,0.01,0.8-0.02,1.18
						c-1.29-0.09-2.71,0.01-3.72,0.57c-0.68-1.94-1.62-4.81-1.24-6.78c0.78,0.67,2.4,2.23,3.17,2.9c0.18,0.16,1.97-2.86,2.22-3.07
						c0.21-0.18,0.52-0.33,0.73-0.17c0.14,0.11,0.17,0.31,0.18,0.49C337.24,211.62,336.99,212.35,336.71,213.07z"/>
				</g>
				<path class="st28" d="M355.77,197.93c0.01,0.2,0.06,0.4,0.15,0.6c0.57,1.22,1.76,1.99,3.1,2.08c1.34,0.1,2.66-0.41,3.83-1.09
					c2.31-1.33,4.23-3.33,5.47-5.69c0.79-1.52,2.08-3.04,2.51-4.71c0.49-1.93-0.9-2.77-1.26-4.18c-0.14,0.84-0.43,1.65-0.85,2.39
					c0.36-1.4-0.03-2.98-1.01-4.05c0.94,1.8-0.24,4.03-1.82,5.3c-1.24,1.01-3.61,1.71-4.45,3.08c-0.45,0.73-0.62,1.59-0.94,2.38
					C359.7,196.01,357.83,197.45,355.77,197.93z"/>
			</g>
		</g>
	</g>
</g>
</svg>
