<svg xmlns="http://www.w3.org/2000/svg" viewBox="0 0 250 250"><defs/><style>.st0{fill:#fedfc5}.st1{fill:#fecbaa}.st3{fill:#4c4c4c}</style><g id="right_Hand"><path d="M192.18 229.36l-40.43-23.34a5.285 5.285 0 01-1.81-7.43 5.19 5.19 0 012.28-1.96h.01a5.26 5.26 0 014.81.25l-10.41-6.01a5.251 5.251 0 01-2.62-4.04c-.11-1.07.1-2.18.68-3.18.57-.99 1.41-1.72 2.38-2.16 1.31-.6 2.85-.65 4.25-.06l-3.96-2.29a5.279 5.279 0 01-2.47-3.21c-.08-.28-.13-.56-.15-.85-.11-1.06.1-2.17.68-3.16.58-1 1.43-1.74 2.42-2.18a5.26 5.26 0 014.81.25l4.54 2.62a5.294 5.294 0 01-2.62-4.04c-.11-1.07.1-2.18.68-3.18 1.46-2.53 4.7-3.39 7.23-1.93l26.27 15.17.04-.1a9.67 9.67 0 013.01-3.21c2.96-1.97 6.92-2.23 10.21-.32l12.25 7.07c2.35 1.36 4.07 3.6 4.78 6.22l1.62 6.04a11 11 0 002.57 4.64c.75.81 1.62 1.51 2.58 2.06l2.73 1.58-18.04 31.25-3.49-2.02c-.78-.45-1.66-.85-2.54-1.06-1.66-.47-3.42-.55-5.14-.21-2.44.45-5.01.03-7.15-1.21zm0 0" class="st0"/><path d="M192.18 229.36l-40.43-23.34a5.285 5.285 0 01-1.81-7.43 5.19 5.19 0 012.28-1.96l38.91 22.57c.24.14.64.3 1.17.47 9.52 3.17 19.37-.72 24.38-9.41l6.53-11.31c.75.81 1.62 1.51 2.58 2.06l2.73 1.58-18.04 31.25-3.49-2.02c-.78-.45-1.66-.85-2.54-1.06-1.66-.47-3.42-.55-5.14-.21-2.42.47-4.99.05-7.13-1.19zm0 0" class="st1"/><path fill="#ffbe72" d="M209.31 235.85l20.48-35.47a2.438 2.438 0 013.34-.89l12.63 7.29c1.17.67 1.57 2.17.89 3.34l-20.48 35.47a2.438 2.438 0 01-3.34.89l-12.63-7.29a2.449 2.449 0 01-.89-3.34zm0 0"/><path d="M144.33 180.28l-1.15 1.66c-.14.19-.27.39-.39.59-2.06 3.57-.83 8.16 2.75 10.22l4.51 2.6c-.84.6-1.58 1.39-2.13 2.34-2.06 3.57-.83 8.15 2.75 10.22l13.33 7.7 5.38 3.11 21.72 12.54c2.62 1.51 5.69 2.02 8.65 1.43a8.84 8.84 0 016.16 1.02l1.59.92-.08.13a4.633 4.633 0 001.7 6.33l12.63 7.29c2.21 1.28 5.05.52 6.33-1.7l20.48-35.47c1.28-2.21.52-5.05-1.7-6.33l-12.63-7.29a4.633 4.633 0 00-6.33 1.7l-.17.29-.83-.48a8.767 8.767 0 01-4.12-5.37l-1.62-6.04c-.86-3.21-2.92-5.89-5.8-7.55l-12.25-7.07c-1.62-.94-3.37-1.43-5.12-1.55-.68.2-7.3.52-9.43 4.21l-1.27-.51-23.7-13.69c-3.58-2.06-8.16-.84-10.22 2.73-.58 1.01-.9 2.09-.98 3.18-2.1-.7-4.38-.41-6.23.69 0 0-1.46.83-2.61 2.82l-.74 1.6c-.45 1.65-.3 3.37.35 4.9.88 1.78 1.17 2.83 1.17 2.83zm87.35 21.2c.07-.12.22-.16.34-.09l12.63 7.29c.12.07.16.22.09.34l-20.48 35.47c-.07.12-.22.16-.34.09l-12.63-7.29a.247.247 0 01-.09-.34l8.36-14.48 2.4-4.16 5.15-8.91 4.57-7.92zm-45.99-1.47c.03-.78-.37-1.56-1.09-1.98l-31.59-18.24c-.24-.14-.49-.26-.73-.37l-3.83-2.21a3.105 3.105 0 01-1.14-4.23c.85-1.48 2.75-1.98 4.23-1.13l36.17 20.88c1.05.61 2.39.25 2.99-.8.61-1.05.25-2.39-.8-3l-31.63-18.26a3.105 3.105 0 01-1.14-4.23c.85-1.48 2.75-1.98 4.23-1.13l35.32 20.39c1.05.61 2.39.25 3-.8.61-1.05.25-2.39-.8-3l-6.53-3.77c.04-.19.06-.39.05-.58a7.52 7.52 0 018.51-.7l12.25 7.07a8.04 8.04 0 013.76 4.89l1.62 6.04c.92 3.41 3.11 6.26 6.17 8.03l.83.48-1.86 3.23-.34.59-5.15 8.91-2.35 4.07-6.15 10.65-1.59-.92a13.192 13.192 0 00-9.2-1.52c-1.92.38-3.91.05-5.61-.93l-40.43-23.34a3.105 3.105 0 01-1.14-4.23c.85-1.48 2.75-1.98 4.23-1.13l21.18 12.23c1.05.61 2.39.25 2.99-.8a2.18 2.18 0 00-.8-2.99l-31.59-18.24a3.105 3.105 0 01-1.14-4.23 3.102 3.102 0 013.77-1.35l32.05 18.51c1.05.61 2.39.25 2.99-.8.19-.32.29-.69.29-1.06z" class="st3"/><path d="M236.77 212.43a2.339 2.339 0 00-4.05-2.34c-.64 1.12-.26 2.55.86 3.19 1.11.65 2.55.27 3.19-.85z" class="st3"/></g><g id="left_Hand"><path d="M58.82 229.36a10.317 10.317 0 01-7.13 1.18c-1.72-.34-3.48-.27-5.14.21-.88.22-1.75.61-2.54 1.06l-3.49 2.02-18.04-31.25 2.73-1.58c.95-.55 1.83-1.25 2.58-2.06a11 11 0 002.57-4.64l1.62-6.04a10.27 10.27 0 014.78-6.22l12.25-7.07c3.3-1.9 7.25-1.65 10.21.32 1.2.8 2.24 1.88 3.01 3.21l.04.1 26.27-15.17c2.53-1.46 5.77-.6 7.23 1.93.58 1 .79 2.11.68 3.18a5.278 5.278 0 01-2.62 4.04l4.54-2.62a5.29 5.29 0 017.23 1.93c.57 1 .79 2.1.68 3.16-.03.29-.08.57-.15.85a5.251 5.251 0 01-2.47 3.21l-3.96 2.29c1.4-.59 2.94-.54 4.25.06.97.44 1.81 1.17 2.38 2.16.58 1 .79 2.11.68 3.18a5.251 5.251 0 01-2.62 4.04l-10.41 6.01a5.29 5.29 0 014.81-.25h.01c.91.4 1.71 1.07 2.28 1.96.05.07.09.14.13.21 1.46 2.53.59 5.76-1.94 7.22l-40.45 23.37zm0 0" class="st0"/><path d="M58.82 229.36a10.317 10.317 0 01-7.13 1.18c-1.72-.34-3.48-.27-5.14.21-.88.22-1.75.61-2.54 1.06l-3.49 2.02-18.04-31.25 2.73-1.58c.95-.55 1.83-1.25 2.58-2.06l6.53 11.31c5.02 8.69 14.86 12.58 24.38 9.41.53-.17.93-.34 1.17-.47l38.91-22.57c.91.4 1.71 1.07 2.28 1.96.05.07.09.14.13.21 1.46 2.53.59 5.76-1.94 7.22l-40.43 23.35zm0 0" class="st1"/><path fill="#69e781" d="M41.69 235.85c.67 1.17.27 2.66-.89 3.34l-12.63 7.29c-1.17.67-2.66.27-3.34-.89L4.35 210.12c-.67-1.17-.27-2.66.89-3.34l12.63-7.29c1.17-.67 2.66-.27 3.34.89l20.48 35.47zm0 0"/><path d="M107.88 177.46c.65-1.53.8-3.26.35-4.9l-.74-1.6c-1.15-1.99-2.61-2.82-2.61-2.82a7.508 7.508 0 00-6.23-.69c-.08-1.09-.4-2.17-.98-3.18-2.06-3.57-6.65-4.8-10.22-2.73l-23.7 13.69-1.27.51c-2.13-3.68-8.74-4.01-9.43-4.21-1.75.12-3.5.62-5.12 1.55l-12.25 7.07a12.344 12.344 0 00-5.8 7.55l-1.62 6.04a8.802 8.802 0 01-4.12 5.37l-.83.48-.17-.29a4.65 4.65 0 00-6.33-1.7l-12.63 7.29c-2.21 1.28-2.98 4.12-1.7 6.33l20.48 35.47a4.65 4.65 0 006.33 1.7l12.63-7.29c2.21-1.28 2.98-4.12 1.7-6.33l-.08-.13 1.59-.92a8.83 8.83 0 016.16-1.02c2.96.59 6.04.08 8.65-1.43l21.72-12.54 5.38-3.11 13.33-7.7c3.58-2.06 4.81-6.65 2.75-10.22a7.275 7.275 0 00-2.13-2.34l4.51-2.6c3.58-2.06 4.81-6.65 2.75-10.22-.12-.21-.25-.4-.39-.59l-1.15-1.66c-.04-.01.25-1.06 1.17-2.83zm-84 31.93l5.15 8.91 2.4 4.16 8.36 14.48c.07.12.03.27-.09.34l-12.63 7.29c-.12.07-.27.03-.34-.09L6.25 209.02a.247.247 0 01.09-.34l12.63-7.29c.12-.07.27-.03.34.09l4.57 7.91zm41.72-8.31a2.184 2.184 0 002.99.8l32.05-18.51c1.39-.52 3 .02 3.77 1.35.85 1.48.34 3.37-1.14 4.23l-31.59 18.24a2.184 2.184 0 00-.8 2.99 2.184 2.184 0 002.99.8l21.18-12.23c1.48-.86 3.38-.35 4.23 1.13.85 1.48.34 3.37-1.14 4.23l-40.43 23.34c-1.7.98-3.69 1.31-5.61.93-3.15-.63-6.42-.09-9.2 1.52l-1.59.92-6.15-10.65-2.35-4.07-5.15-8.91-.34-.59-1.86-3.23.83-.48c3.06-1.77 5.25-4.62 6.17-8.03l1.62-6.04a8.005 8.005 0 013.76-4.89l12.25-7.07a7.52 7.52 0 018.51.7c-.01.2 0 .39.05.58l-6.53 3.77a2.193 2.193 0 00-.8 3 2.193 2.193 0 003 .8l35.32-20.39c1.48-.86 3.38-.35 4.23 1.13.85 1.48.34 3.37-1.14 4.23L61.1 188.95a2.193 2.193 0 00-.8 3 2.184 2.184 0 002.99.8l36.17-20.88c1.48-.86 3.38-.35 4.23 1.13.85 1.48.34 3.37-1.14 4.23l-3.83 2.21c-.25.11-.49.23-.73.37L66.4 198.04c-.73.42-1.12 1.19-1.09 1.98 0 .36.1.73.29 1.06z" class="st3"/><path d="M14.23 212.43a2.339 2.339 0 014.05-2.34c.64 1.12.26 2.55-.86 3.19-1.11.65-2.55.27-3.19-.85z" class="st3"/></g><g id="up_Hand"><path d="M148.56 40.74v46.68a5.28 5.28 0 01-5.29 5.29c-.08 0-.16 0-.25-.01a5.311 5.311 0 01-2.84-.99h-.01a5.27 5.27 0 01-2.19-4.29v12.02a5.25 5.25 0 01-2.2 4.29c-.87.63-1.94 1-3.09 1-1.14 0-2.2-.36-3.06-.98a5.292 5.292 0 01-2.18-3.65v4.58c0 1.46-.59 2.79-1.55 3.74-.2.2-.42.39-.66.56-.87.63-1.93.99-3.08.99-1.15 0-2.22-.37-3.1-1.01a5.27 5.27 0 01-2.19-4.29v-5.24c0 1.77-.87 3.33-2.19 4.29-.87.63-1.94 1-3.09 1-2.92 0-5.29-2.37-5.29-5.29V69.11l-.1.02c-1.54 0-2.99-.36-4.28-1a9.692 9.692 0 01-5.39-8.68V45.3c0-2.72 1.08-5.32 3-7.25l4.42-4.43c1.28-1.28 2.21-2.84 2.73-4.54.33-1.05.49-2.16.49-3.26v-3.15h36.08v4.03c0 .9.1 1.86.35 2.73.42 1.67 1.24 3.24 2.39 4.56 1.66 1.85 2.57 4.28 2.57 6.75zm0 0" class="st0"/><path d="M148.56 40.74v46.68a5.28 5.28 0 01-5.29 5.29c-.08 0-.16 0-.25-.01a5.311 5.311 0 01-2.84-.99l.09-44.98c0-.27-.06-.7-.18-1.25-2.02-9.82-10.31-16.41-20.34-16.41H106.7c.33-1.05.49-2.16.49-3.26v-3.15h36.08v4.03c0 .9.1 1.86.35 2.73.42 1.67 1.24 3.24 2.39 4.56 1.64 1.86 2.55 4.29 2.55 6.76zm0 0" class="st1"/><path fill="#00b7ff" d="M145.62 22.66h-40.95c-1.35 0-2.44-1.09-2.44-2.44V5.63c0-1.35 1.09-2.44 2.44-2.44h40.95c1.35 0 2.44 1.09 2.44 2.44v14.58a2.44 2.44 0 01-2.44 2.45zm0 0"/><path d="M129.99 106.73l2.01.17c.23.02.47.04.71.04 4.12 0 7.48-3.36 7.48-7.49v-5.21c.94.43 1.99.67 3.09.67 4.12 0 7.48-3.36 7.48-7.49V40.74c0-3.02-1.1-5.94-3.09-8.21a8.83 8.83 0 01-2.2-5.84v-1.84h.15c2.56 0 4.64-2.08 4.64-4.64V5.64c0-2.56-2.08-4.64-4.64-4.64h-40.95c-2.56 0-4.64 2.08-4.64 4.64v14.58c0 2.56 2.08 4.64 4.64 4.64h.34v.96c0 2.36-.92 4.59-2.59 6.26L98 36.5a12.35 12.35 0 00-3.64 8.8v14.14c0 1.87.44 3.64 1.22 5.21.52.49 4.11 6.06 8.36 6.06l.2 1.36v27.37c0 4.13 3.35 7.49 7.48 7.49 1.16 0 2.26-.27 3.25-.74.45 2.17 1.83 4 3.72 5.05 0 0 1.45.85 3.75.85l1.75-.16a7.456 7.456 0 004.07-2.75c1.06-1.69 1.83-2.45 1.83-2.45zm-25.32-86.26c-.14 0-.25-.11-.25-.25V5.64c0-.14.11-.25.25-.25h40.95c.14 0 .25.11.25.25v14.58c0 .14-.11.25-.25.25H104.67zm21.72 40.56a2.2 2.2 0 00-1.16 1.94v36.47c0 .28.02.55.05.82v4.42a3.1 3.1 0 01-3.09 3.1 3.1 3.1 0 01-3.09-3.1V62.92a2.19 2.19 0 10-4.38 0v36.53a3.1 3.1 0 01-3.09 3.1c-1.71 0-3.09-1.39-3.09-3.1V58.66a2.19 2.19 0 10-4.38 0v7.54c-.18.06-.36.14-.53.25a7.504 7.504 0 01-4.86-7.02V45.3c0-2.15.84-4.18 2.36-5.7l4.42-4.43c2.49-2.5 3.87-5.82 3.87-9.35v-.96h31.7v1.84c0 3.22 1.17 6.32 3.28 8.73 1.29 1.47 2 3.36 2 5.32v46.68a3.1 3.1 0 01-3.09 3.1c-1.71 0-3.09-1.39-3.09-3.1V62.97a2.19 2.19 0 10-4.38 0v36.48a3.1 3.1 0 01-3.09 3.1c-1.53 0-2.8-1.12-3.05-2.59V62.95c0-1.21-.98-2.19-2.19-2.19-.43-.01-.8.1-1.12.27z" class="st3"/><path d="M111.61 10.59a2.34 2.34 0 000 4.68c1.29 0 2.34-1.05 2.34-2.34 0-1.29-1.05-2.34-2.34-2.34z" class="st3"/></g></svg>