<svg xmlns="http://www.w3.org/2000/svg" viewBox="0 0 250 250"><defs/><style>.st0{fill:#fedfc5}.st1{fill:#fecbaa}.st3{fill:#4c4c4c}</style><g id="right_Hand"><path d="M165.7 195.95l-52.77-30.47a6.895 6.895 0 01-2.53-9.43c.05-.09.11-.18.17-.28a6.846 6.846 0 012.97-2.56s.01 0 .01-.01c1.95-.87 4.28-.83 6.28.32l-13.59-7.84a6.907 6.907 0 01-3.22-4.19c-.09-.35-.16-.72-.2-1.09-.15-1.4.13-2.84.88-4.15a6.846 6.846 0 013.1-2.82 6.91 6.91 0 015.55-.08l-5.17-2.99a6.898 6.898 0 01-3.22-4.2c-.1-.36-.17-.73-.2-1.11a6.85 6.85 0 014.04-6.97c1.95-.87 4.28-.83 6.28.32l5.92 3.42c-2-1.15-3.2-3.15-3.42-5.28-.15-1.39.13-2.84.88-4.15 1.9-3.3 6.13-4.43 9.43-2.52l34.29 19.8.05-.13c1-1.74 2.36-3.15 3.93-4.19 3.87-2.57 9.03-2.91 13.33-.42l15.99 9.23c3.07 1.77 5.31 4.69 6.24 8.12l2.12 7.89a14.42 14.42 0 006.72 8.75l3.57 2.06-23.55 40.78-4.56-2.63c-1.02-.59-2.16-1.1-3.31-1.39-2.17-.62-4.47-.71-6.71-.27-3.16.65-6.51.1-9.3-1.52zm0 0" class="st0"/><path d="M165.7 195.95l-52.77-30.47a6.895 6.895 0 01-2.53-9.43c.05-.09.11-.18.17-.28a6.846 6.846 0 012.97-2.56l50.79 29.46c.31.18.83.39 1.53.62 12.42 4.13 25.28-.95 31.82-12.28l8.52-14.76c.98 1.06 2.12 1.97 3.37 2.69l3.57 2.06-23.55 40.78-4.56-2.63c-1.02-.59-2.16-1.1-3.31-1.39-2.17-.62-4.47-.71-6.71-.27-3.17.63-6.52.08-9.31-1.54zm0 0" class="st1"/><path fill="#ffbe72" d="M188.06 204.43l26.73-46.29a3.198 3.198 0 014.36-1.17l16.49 9.52a3.19 3.19 0 011.17 4.36l-26.73 46.29a3.198 3.198 0 01-4.36 1.17l-16.49-9.52a3.194 3.194 0 01-1.17-4.36zm0 0"/><path d="M103.24 131.89l-1.5 2.17c-.18.25-.35.5-.51.77-2.69 4.66-1.08 10.64 3.58 13.34l5.88 3.4c-1.1.78-2.06 1.81-2.78 3.06-2.69 4.66-1.08 10.64 3.58 13.34l17.4 10.04 7.03 4.06 28.34 16.36a16.27 16.27 0 0011.3 1.87c2.75-.55 5.6-.08 8.03 1.33l2.08 1.2-.1.17a6.049 6.049 0 002.22 8.26l16.49 9.52a6.06 6.06 0 008.27-2.21l26.73-46.29c1.67-2.89.67-6.6-2.22-8.26l-16.49-9.52a6.06 6.06 0 00-8.27 2.21l-.22.38-1.09-.63a11.47 11.47 0 01-5.38-7.01l-2.12-7.89a16.162 16.162 0 00-7.57-9.85l-15.99-9.23c-2.12-1.22-4.4-1.87-6.69-2.03-.89.26-9.53.68-12.31 5.49l-1.66-.66-30.94-17.86c-4.67-2.69-10.65-1.09-13.34 3.57a9.603 9.603 0 00-1.28 4.15 9.807 9.807 0 00-8.13.91s-1.91 1.09-3.41 3.69l-.96 2.09c-.59 2.15-.4 4.4.45 6.4 1.21 2.29 1.58 3.66 1.58 3.66zm114.02 27.67c.09-.16.29-.21.45-.12l16.49 9.52c.16.09.21.29.12.45l-26.73 46.29c-.09.16-.29.21-.45.12l-16.49-9.52a.327.327 0 01-.12-.45l10.91-18.9 3.14-5.43 6.72-11.63 5.96-10.33zm-60.03-1.91c.04-1.02-.48-2.03-1.43-2.58l-41.23-23.8c-.32-.18-.63-.34-.96-.49l-4.99-2.88c-1.93-1.12-2.6-3.59-1.49-5.52a4.036 4.036 0 015.52-1.47l47.21 27.26a2.862 2.862 0 102.86-4.96l-41.29-23.84c-1.93-1.12-2.6-3.59-1.49-5.52 1.11-1.93 3.59-2.59 5.53-1.47l46.1 26.62a2.862 2.862 0 102.86-4.96l-8.53-4.92c.05-.25.07-.5.06-.76 3.05-2.51 7.48-3.01 11.1-.91l15.99 9.23c2.43 1.4 4.17 3.67 4.9 6.38l2.12 7.89c1.2 4.45 4.05 8.17 8.05 10.48l1.09.63-2.43 4.21-.44.77-6.72 11.63-3.07 5.31-8.02 13.9-2.08-1.2c-3.63-2.1-7.9-2.8-12.01-1.99-2.5.5-5.1.07-7.32-1.21l-52.77-30.47c-1.93-1.12-2.6-3.59-1.49-5.52 1.11-1.93 3.59-2.59 5.53-1.47l27.64 15.96a2.862 2.862 0 102.86-4.96l-41.23-23.8c-1.93-1.12-2.6-3.59-1.49-5.52 1-1.73 3.1-2.44 4.92-1.76l41.84 24.16c1.37.79 3.12.32 3.91-1.05.26-.44.38-.92.39-1.4z" class="st3"/><path d="M223.9 173.86c.84-1.45.34-3.32-1.12-4.16a3.061 3.061 0 00-4.17 1.11 3.058 3.058 0 001.12 4.17c1.46.83 3.33.34 4.17-1.12z" class="st3"/></g><g id="left_Hand"><path d="M84.3 195.95c-2.8 1.61-6.15 2.17-9.31 1.54-2.24-.44-4.55-.35-6.71.27-1.15.28-2.29.8-3.31 1.39l-4.56 2.63L36.86 161l3.57-2.06c1.25-.72 2.39-1.63 3.37-2.69 1.58-1.7 2.74-3.77 3.35-6.06l2.12-7.89c.92-3.42 3.16-6.34 6.24-8.12l15.99-9.23c4.3-2.48 9.46-2.15 13.33.42a12.56 12.56 0 013.93 4.19l.05.13 34.29-19.8c3.3-1.91 7.53-.78 9.43 2.52.75 1.31 1.03 2.76.88 4.15a6.903 6.903 0 01-3.42 5.28l5.92-3.42c2-1.15 4.33-1.2 6.28-.32 1.28.57 2.4 1.54 3.16 2.84.75 1.3 1.03 2.74.88 4.13-.04.37-.1.75-.2 1.11a6.954 6.954 0 01-3.22 4.2l-5.17 2.99a6.91 6.91 0 015.55.08c1.26.57 2.36 1.53 3.1 2.82.75 1.3 1.03 2.75.88 4.15a6.907 6.907 0 01-3.42 5.28l-13.59 7.84c2-1.15 4.33-1.2 6.28-.32 0 0 .01 0 .01.01a6.79 6.79 0 013.14 2.84c1.91 3.3.77 7.52-2.53 9.43L84.3 195.95zm0 0" class="st0"/><path d="M84.3 195.95c-2.8 1.61-6.15 2.17-9.31 1.54-2.24-.44-4.55-.35-6.71.27-1.15.28-2.29.8-3.31 1.39l-4.56 2.63L36.86 161l3.57-2.06c1.25-.72 2.39-1.63 3.37-2.69l8.52 14.76c6.55 11.34 19.4 16.42 31.82 12.28.69-.23 1.22-.44 1.53-.62l50.79-29.46a6.79 6.79 0 013.14 2.84c1.91 3.3.77 7.52-2.53 9.43L84.3 195.95zm0 0" class="st1"/><path fill="#69e781" d="M61.94 204.43c.88 1.52.36 3.47-1.17 4.36l-16.49 9.52a3.19 3.19 0 01-4.36-1.17l-26.73-46.29a3.194 3.194 0 011.17-4.36l16.49-9.52a3.19 3.19 0 014.36 1.17l26.73 46.29zm0 0"/><path d="M148.34 128.21c.85-2 1.04-4.25.45-6.4l-.96-2.09c-1.5-2.6-3.41-3.69-3.41-3.69a9.807 9.807 0 00-8.13-.91c-.1-1.42-.52-2.84-1.28-4.15-2.69-4.66-8.68-6.26-13.34-3.57l-30.94 17.86-1.66.66c-2.77-4.81-11.41-5.23-12.31-5.49-2.29.16-4.57.81-6.69 2.03l-15.99 9.23a16.162 16.162 0 00-7.57 9.85l-2.12 7.89a11.47 11.47 0 01-5.38 7.01l-1.09.63-.22-.38a6.06 6.06 0 00-8.27-2.21L12.94 164c-2.89 1.67-3.88 5.38-2.22 8.26l26.73 46.29a6.06 6.06 0 008.27 2.21l16.49-9.52c2.89-1.67 3.88-5.38 2.22-8.26l-.1-.17 2.08-1.2c2.43-1.4 5.28-1.88 8.03-1.33 3.87.77 7.88.11 11.3-1.87l28.34-16.36 7.03-4.06 17.4-10.04c4.67-2.69 6.27-8.68 3.58-13.34a9.756 9.756 0 00-2.78-3.06l5.88-3.4c4.67-2.69 6.27-8.68 3.58-13.34-.16-.27-.33-.52-.51-.77l-1.5-2.17c0 .02.37-1.35 1.58-3.66zM38.7 169.89l6.72 11.63 3.14 5.43 10.91 18.9c.09.16.04.36-.12.45l-16.49 9.52c-.16.09-.36.04-.45-.12l-26.73-46.29a.327.327 0 01.12-.45l16.49-9.52c.16-.09.36-.04.45.12l5.96 10.33zm54.45-10.84a2.862 2.862 0 003.91 1.05l41.84-24.16c1.82-.68 3.92.02 4.92 1.76 1.11 1.93.45 4.4-1.49 5.52l-41.23 23.8a2.862 2.862 0 102.86 4.96l27.64-15.96a4.05 4.05 0 015.53 1.47c1.11 1.93.45 4.41-1.49 5.52l-52.77 30.47a10.503 10.503 0 01-7.32 1.21c-4.11-.82-8.38-.11-12.01 1.99l-2.08 1.2-8.02-13.9-3.07-5.31-6.72-11.63-.44-.77-2.43-4.21 1.09-.63c3.99-2.31 6.85-6.03 8.05-10.48l2.12-7.89c.73-2.71 2.47-4.98 4.9-6.38l15.99-9.23a9.793 9.793 0 0111.1.91c-.02.26.01.51.06.76l-8.53 4.92a2.862 2.862 0 102.86 4.96l46.1-26.62a4.05 4.05 0 015.53 1.47c1.11 1.93.44 4.4-1.49 5.52l-41.29 23.84a2.862 2.862 0 102.86 4.96l47.21-27.26a4.036 4.036 0 015.52 1.47c1.11 1.93.45 4.4-1.49 5.52l-4.99 2.88c-.33.14-.64.3-.96.49l-41.23 23.8c-.95.55-1.46 1.56-1.43 2.58.02.48.14.96.39 1.4z" class="st3"/><path d="M26.1 173.86a3.046 3.046 0 011.12-4.16c1.46-.84 3.33-.34 4.17 1.11.84 1.46.34 3.32-1.12 4.17-1.46.83-3.33.34-4.17-1.12z" class="st3"/></g><g id="up_Hand"><path d="M155.76 80.29v60.93c0 3.82-3.09 6.91-6.9 6.91-.1 0-.21 0-.33-.01a6.724 6.724 0 01-3.7-1.3h-.01a6.893 6.893 0 01-2.86-5.6v15.69c0 1.91-.77 3.64-2.02 4.88a6.89 6.89 0 01-8.88.75c-1.53-1.1-2.6-2.8-2.84-4.77v5.97c0 1.91-.77 3.64-2.02 4.89-.26.27-.55.51-.86.73a6.82 6.82 0 01-4.02 1.3c-1.51 0-2.9-.49-4.04-1.31a6.893 6.893 0 01-2.86-5.6v-6.84a6.907 6.907 0 01-6.9 6.91c-3.81 0-6.9-3.09-6.9-6.91v-39.6l-.13.02c-2.01 0-3.9-.47-5.59-1.31a12.64 12.64 0 01-7.03-11.33V86.23c0-3.55 1.41-6.95 3.91-9.46l5.77-5.78c1.67-1.67 2.89-3.71 3.57-5.93.43-1.37.64-2.82.64-4.26v-4.12h47.09v5.26c0 1.18.13 2.42.45 3.56.55 2.19 1.62 4.23 3.12 5.95 2.14 2.43 3.34 5.61 3.34 8.84zm0 0" class="st0"/><path d="M155.76 80.29v60.93c0 3.82-3.09 6.91-6.9 6.91-.1 0-.21 0-.33-.01a6.724 6.724 0 01-3.7-1.3l.12-58.72c0-.35-.08-.91-.23-1.63-2.63-12.82-13.46-21.42-26.55-21.42h-17.05c.43-1.37.64-2.82.64-4.26v-4.12h47.09v5.26c0 1.18.13 2.42.45 3.56.55 2.19 1.62 4.23 3.12 5.95 2.14 2.44 3.34 5.62 3.34 8.85zm0 0" class="st1"/><path fill="#00b7ff" d="M151.92 56.69H98.46c-1.76 0-3.19-1.43-3.19-3.19V34.46c0-1.76 1.43-3.19 3.19-3.19h53.45c1.76 0 3.19 1.43 3.19 3.19V53.5c0 1.76-1.42 3.19-3.18 3.19zm0 0"/><path d="M131.51 166.41l2.63.22c.3.03.61.05.92.05 5.38 0 9.76-4.38 9.76-9.77v-6.79c1.23.56 2.6.88 4.04.88 5.38 0 9.76-4.38 9.76-9.77V80.29c0-3.95-1.43-7.75-4.03-10.72a11.544 11.544 0 01-2.87-7.62v-2.4h.2c3.34 0 6.05-2.71 6.05-6.05V34.46c0-3.34-2.71-6.05-6.05-6.05H98.46c-3.34 0-6.05 2.71-6.05 6.05V53.5c0 3.34 2.71 6.05 6.05 6.05h.44v1.25c0 3.09-1.2 5.99-3.38 8.17l-5.77 5.78A16.15 16.15 0 0085 86.23v18.46c0 2.44.58 4.75 1.59 6.81.67.64 5.36 7.91 10.91 7.91l.26 1.77v35.73c0 5.39 4.38 9.77 9.76 9.77 1.52 0 2.95-.35 4.24-.97a9.78 9.78 0 004.85 6.59s1.9 1.11 4.9 1.11l2.29-.21a9.86 9.86 0 005.32-3.59c1.39-2.2 2.39-3.2 2.39-3.2zM98.46 53.83c-.18 0-.33-.15-.33-.33V34.46c0-.18.15-.33.33-.33h53.45c.18 0 .33.15.33.33V53.5c0 .18-.15.33-.33.33H98.46zm28.36 52.94c-.9.48-1.52 1.43-1.52 2.53v47.61c0 .36.02.72.06 1.07v5.77a4.05 4.05 0 01-4.04 4.05 4.05 4.05 0 01-4.04-4.05v-54.52a2.86 2.86 0 10-5.72 0v47.68a4.05 4.05 0 01-4.04 4.05 4.05 4.05 0 01-4.04-4.05v-53.23a2.86 2.86 0 10-5.72 0v9.85c-.24.08-.47.19-.69.33a9.791 9.791 0 01-6.34-9.16V86.23c0-2.81 1.09-5.45 3.07-7.44l5.77-5.78c3.26-3.26 5.05-7.6 5.05-12.21v-1.25H146v2.4c0 4.2 1.52 8.24 4.29 11.4a10.53 10.53 0 012.61 6.94v60.93a4.05 4.05 0 01-4.04 4.05 4.05 4.05 0 01-4.04-4.05V109.3a2.86 2.86 0 10-5.72 0v47.61a4.05 4.05 0 01-4.04 4.05c-2 0-3.66-1.46-3.98-3.38v-48.31a2.86 2.86 0 00-2.86-2.86c-.51-.01-.99.13-1.4.36z" class="st3"/><path d="M107.52 40.93c-1.68 0-3.05 1.37-3.05 3.05 0 1.68 1.37 3.05 3.05 3.05 1.68 0 3.05-1.37 3.05-3.05 0-1.68-1.37-3.05-3.05-3.05z" class="st3"/></g></svg>