<svg xmlns="http://www.w3.org/2000/svg" viewBox="0 0 250 250"><defs/><style>.st3{fill:#dbd8d2}.st4{fill:#b5c4c6}.st5{fill:#4c4c4c}.st6{fill:#f2f6fb}</style><g id="center"><path fill="#f2efe2" d="M184.53 226.85H43.09c-1.52 0-2.75-1.23-2.75-2.75V61c0-1.52 1.23-2.75 2.75-2.75h141.43c1.52 0 2.75 1.23 2.75 2.75v163.11c0 1.51-1.23 2.74-2.74 2.74z"/><path fill="#a5a5a5" d="M43.09 58.25h141.43c1.52 0 2.75 1.23 2.75 2.75v45.43H40.35V61c0-1.52 1.23-2.75 2.74-2.75z"/><path fill="#898989" d="M41.55 93.17h144.52v12.04H41.55z"/><path d="M41.55 107.63h144.52v14.45H41.55z" class="st3"/><path d="M172.28 142.55H55.49c-.38 0-.69-.31-.69-.69v-9.34c0-.38.31-.69.69-.69h116.79c.38 0 .69.31.69.69v9.34c0 .38-.31.69-.69.69zM172.28 170.25H55.49c-.38 0-.69-.31-.69-.69v-9.34c0-.38.31-.69.69-.69h116.79c.38 0 .69.31.69.69v9.34c0 .38-.31.69-.69.69zM172.28 197.95H55.49c-.38 0-.69-.31-.69-.69v-9.34c0-.38.31-.69.69-.69h116.79c.38 0 .69.31.69.69v9.34c0 .38-.31.69-.69.69z" class="st4"/><path d="M180.05 55.84H47.57c-5.31 0-9.63 4.32-9.63 9.63v154.15c0 5.31 4.32 9.63 9.63 9.63h132.47c5.31 0 9.63-4.32 9.63-9.63V65.48c.01-5.32-4.31-9.64-9.62-9.64zM47.57 60.66h132.47c2.66 0 4.82 2.16 4.82 4.82v39.32H42.76V65.48a4.82 4.82 0 014.81-4.82zm132.48 163.78H47.57c-2.66 0-4.82-2.16-4.82-4.82V107.54h142.11v112.09c0 2.65-2.16 4.81-4.81 4.81z" class="st5"/><g><path d="M64.43 88.36H49.98c-2 0-3.61-1.62-3.61-3.61 0-2 1.62-3.61 3.61-3.61h14.45c2 0 3.61 1.62 3.61 3.61.01 1.99-1.61 3.61-3.61 3.61zM76.48 88.36h-2.41c-2 0-3.61-1.62-3.61-3.61 0-2 1.62-3.61 3.61-3.61h2.41c2 0 3.61 1.62 3.61 3.61 0 1.99-1.62 3.61-3.61 3.61z" class="st6"/></g><g><path d="M159.57 77.52c-4.66 0-8.43-3.77-8.43-8.43V54.64c0-4.66 3.77-8.43 8.43-8.43s8.43 3.77 8.43 8.43v14.45c0 4.65-3.77 8.43-8.43 8.43z" class="st3"/><path d="M159.57 48.62c3.32 0 6.02 2.7 6.02 6.02v14.2c0 3.08-2.21 5.85-5.27 6.22-3.66.45-6.78-2.41-6.78-5.98V54.64c.01-3.32 2.71-6.02 6.03-6.02m0-2.41c-4.66 0-8.43 3.77-8.43 8.43v14.12c0 4.51 3.4 8.47 7.91 8.74 4.89.29 8.95-3.59 8.95-8.41V54.64c0-4.66-3.77-8.43-8.43-8.43z" class="st5"/><path d="M111.4 77.52c-4.66 0-8.43-3.77-8.43-8.43V54.64c0-4.66 3.77-8.43 8.43-8.43s8.43 3.77 8.43 8.43v14.45c0 4.65-3.77 8.43-8.43 8.43z" class="st3"/><path d="M111.4 48.62c3.32 0 6.02 2.7 6.02 6.02v14.2c0 3.08-2.21 5.85-5.27 6.22-3.66.45-6.78-2.41-6.78-5.98V54.64c.01-3.32 2.71-6.02 6.03-6.02m0-2.41c-4.66 0-8.43 3.77-8.43 8.43v14.12c0 4.51 3.4 8.47 7.91 8.74 4.89.29 8.95-3.59 8.95-8.41V54.64c0-4.66-3.77-8.43-8.43-8.43z" class="st5"/><g><path d="M63.23 77.52c-4.66 0-8.43-3.77-8.43-8.43V54.64c0-4.66 3.77-8.43 8.43-8.43s8.43 3.77 8.43 8.43v14.45c0 4.65-3.78 8.43-8.43 8.43z" class="st3"/><path d="M63.23 48.62c3.32 0 6.02 2.7 6.02 6.02v14.2c0 3.08-2.21 5.85-5.27 6.22-3.66.45-6.78-2.41-6.78-5.98V54.64c.01-3.32 2.71-6.02 6.03-6.02m0-2.41c-4.66 0-8.43 3.77-8.43 8.43v14.12c0 4.51 3.4 8.47 7.91 8.74 4.89.29 8.95-3.59 8.95-8.41V54.64c0-4.66-3.78-8.43-8.43-8.43z" class="st5"/></g></g></g><g id="coso"><circle cx="158.01" cy="89.39" r="46.32" fill="#69e781"/><path fill="#56cc6a" d="M166.27 45.14s25.92 51.87-43.59 72.99l7.49 9.02 19.39 8.56 19.78-1.26 14.21-5.95 13.82-13.06 6.14-16.13-.43-20.58s-3.09-11.22-3.79-12.25-7.1-9.41-8.06-9.98c-.96-.58-12.1-9.44-12.1-9.44l-12.86-1.92z"/><path d="M158.01 137.79c-26.68 0-48.39-21.71-48.39-48.39S131.33 41 158.01 41s48.39 21.71 48.39 48.39-21.7 48.4-48.39 48.4zm0-92.64c-24.39 0-44.24 19.85-44.24 44.24s19.85 44.24 44.24 44.24c24.4 0 44.24-19.85 44.24-44.24s-19.84-44.24-44.24-44.24z" class="st5"/></g><g id="sprinkles"><path fill="#fff" d="M157.52 112.33c-1.35 0-2.65-.52-3.62-1.47L133.06 90.6c-2.06-2-2.1-5.28-.11-7.34 2-2.06 5.29-2.1 7.34-.11l16.8 16.33 43.23-52.47a5.21 5.21 0 017.31-.71 5.2 5.2 0 01.71 7.31l-46.82 56.81a5.18 5.18 0 01-3.72 1.88c-.09.03-.19.03-.28.03z"/><path d="M157.52 114.88c-2.02 0-3.93-.78-5.39-2.18l-20.84-20.27a7.644 7.644 0 01-2.34-5.43 7.68 7.68 0 012.18-5.5c2.99-3.06 7.89-3.13 10.95-.16l14.81 14.4 41.48-50.33c2.71-3.28 7.59-3.76 10.89-1.05 3.29 2.71 3.76 7.6 1.05 10.89l-46.82 56.81a7.771 7.771 0 01-5.53 2.81l-.44.01zm0-4.76l.03 2.21.01-2.55c.83-.05 1.52-.4 1.98-.96l46.82-56.81c.92-1.13.76-2.79-.36-3.72a2.656 2.656 0 00-3.72.36l-44.99 54.61L138.51 85a2.65 2.65 0 00-3.74.06c-.49.5-.76 1.17-.74 1.88.01.7.29 1.36.8 1.85l20.84 20.27c.49.48 1.15.74 1.84.74v.32z" class="st5"/></g></svg>