<svg xmlns="http://www.w3.org/2000/svg" viewBox="0 0 250 250"><defs/><style>.st3{fill:#dbd8d2}.st4{fill:#b5c4c6}.st5{fill:#4c4c4c}.st6{fill:#f2f6fb}</style><g id="center"><path fill="#f2efe2" d="M184.53 226.85H43.09c-1.52 0-2.75-1.23-2.75-2.75V61c0-1.52 1.23-2.75 2.75-2.75h141.43c1.52 0 2.75 1.23 2.75 2.75v163.11c0 1.51-1.23 2.74-2.74 2.74z"/><path fill="#a5a5a5" d="M43.09 58.25h141.43c1.52 0 2.75 1.23 2.75 2.75v45.43H40.35V61c0-1.52 1.23-2.75 2.74-2.75z"/><path fill="#898989" d="M41.55 93.17h144.52v12.04H41.55z"/><path d="M41.55 107.63h144.52v14.45H41.55z" class="st3"/><path d="M172.28 142.55H55.49c-.38 0-.69-.31-.69-.69v-9.34c0-.38.31-.69.69-.69h116.79c.38 0 .69.31.69.69v9.34c0 .38-.31.69-.69.69zM172.28 170.25H55.49c-.38 0-.69-.31-.69-.69v-9.34c0-.38.31-.69.69-.69h116.79c.38 0 .69.31.69.69v9.34c0 .38-.31.69-.69.69zM172.28 197.95H55.49c-.38 0-.69-.31-.69-.69v-9.34c0-.38.31-.69.69-.69h116.79c.38 0 .69.31.69.69v9.34c0 .38-.31.69-.69.69z" class="st4"/><path d="M180.05 55.84H47.57c-5.31 0-9.63 4.32-9.63 9.63v154.15c0 5.31 4.32 9.63 9.63 9.63h132.47c5.31 0 9.63-4.32 9.63-9.63V65.48c.01-5.32-4.31-9.64-9.62-9.64zM47.57 60.66h132.47c2.66 0 4.82 2.16 4.82 4.82v39.32H42.76V65.48a4.82 4.82 0 014.81-4.82zm132.48 163.78H47.57c-2.66 0-4.82-2.16-4.82-4.82V107.54h142.11v112.09c0 2.65-2.16 4.81-4.81 4.81z" class="st5"/><g><path d="M64.43 88.36H49.98c-2 0-3.61-1.62-3.61-3.61 0-2 1.62-3.61 3.61-3.61h14.45c2 0 3.61 1.62 3.61 3.61.01 1.99-1.61 3.61-3.61 3.61zM76.48 88.36h-2.41c-2 0-3.61-1.62-3.61-3.61 0-2 1.62-3.61 3.61-3.61h2.41c2 0 3.61 1.62 3.61 3.61 0 1.99-1.62 3.61-3.61 3.61z" class="st6"/></g><g><path d="M159.57 77.52c-4.66 0-8.43-3.77-8.43-8.43V54.64c0-4.66 3.77-8.43 8.43-8.43s8.43 3.77 8.43 8.43v14.45c0 4.65-3.77 8.43-8.43 8.43z" class="st3"/><path d="M159.57 48.62c3.32 0 6.02 2.7 6.02 6.02v14.2c0 3.08-2.21 5.85-5.27 6.22-3.66.45-6.78-2.41-6.78-5.98V54.64c.01-3.32 2.71-6.02 6.03-6.02m0-2.41c-4.66 0-8.43 3.77-8.43 8.43v14.12c0 4.51 3.4 8.47 7.91 8.74 4.89.29 8.95-3.59 8.95-8.41V54.64c0-4.66-3.77-8.43-8.43-8.43z" class="st5"/><path d="M111.4 77.52c-4.66 0-8.43-3.77-8.43-8.43V54.64c0-4.66 3.77-8.43 8.43-8.43s8.43 3.77 8.43 8.43v14.45c0 4.65-3.77 8.43-8.43 8.43z" class="st3"/><path d="M111.4 48.62c3.32 0 6.02 2.7 6.02 6.02v14.2c0 3.08-2.21 5.85-5.27 6.22-3.66.45-6.78-2.41-6.78-5.98V54.64c.01-3.32 2.71-6.02 6.03-6.02m0-2.41c-4.66 0-8.43 3.77-8.43 8.43v14.12c0 4.51 3.4 8.47 7.91 8.74 4.89.29 8.95-3.59 8.95-8.41V54.64c0-4.66-3.77-8.43-8.43-8.43z" class="st5"/><g><path d="M63.23 77.52c-4.66 0-8.43-3.77-8.43-8.43V54.64c0-4.66 3.77-8.43 8.43-8.43s8.43 3.77 8.43 8.43v14.45c0 4.65-3.78 8.43-8.43 8.43z" class="st3"/><path d="M63.23 48.62c3.32 0 6.02 2.7 6.02 6.02v14.2c0 3.08-2.21 5.85-5.27 6.22-3.66.45-6.78-2.41-6.78-5.98V54.64c.01-3.32 2.71-6.02 6.03-6.02m0-2.41c-4.66 0-8.43 3.77-8.43 8.43v14.12c0 4.51 3.4 8.47 7.91 8.74 4.89.29 8.95-3.59 8.95-8.41V54.64c0-4.66-3.78-8.43-8.43-8.43z" class="st5"/></g></g></g></svg>