<?xml version="1.0" encoding="utf-8"?>
<!-- Generator: Adobe Illustrator 24.0.0, SVG Export Plug-In . SVG Version: 6.00 Build 0)  -->
<svg version="1.1" id="Слой_1"
	 xmlns="http://www.w3.org/2000/svg"
	 x="0px" y="0px" viewBox="0 0 3200 2000" style="enable-background:new 0 0 3200 2000;" xml:space="preserve">
<g>
	<path style="fill:#E7F3FE;" d="M500.46,1843.42c0,0-699.86-439.61-221.56-910.87S1397.27-20.52,1826.32,165.87
		s390.47,422.02,861.73,763.16c471.26,341.14,362.24,611.94,277.83,749.09c-84.4,137.16-98.47,172.33-98.47,172.33L500.46,1843.42z"
		/>
	<path style="fill:#303C60;" d="M1035.02,595.6c103.63-92.3,179.74-37.24,236.42,24.29c45.18,49.05,51.48,59.92,88.8,110.74
		c5.54,7.54,9.8,15.92,9.97,25.28c1.05,56.18,29.79,293.71-2.16,375.68c-37.24,95.54-496.58,139.26-496.58,139.26L1035.02,595.6z"/>
	<g>
		<path style="fill:#303C60;" d="M1329.19,1185.98c-2.5,0-4.6-1.96-4.72-4.5c-0.13-2.61,1.88-4.83,4.49-4.97
			c13.63-0.69,24.72-6.82,33.92-18.73c51.5-66.73,22.54-289.51-2.69-410.62c-0.53-2.56,1.11-5.07,3.67-5.6
			c2.55-0.54,5.07,1.1,5.6,3.67c5.51,26.45,23.93,120.35,29.69,218.14c5.91,100.45-3.77,167.8-28.77,200.19
			c-10.84,14.04-24.61,21.58-40.93,22.41C1329.35,1185.98,1329.27,1185.98,1329.19,1185.98z"/>
	</g>
	<path style="fill:#303C60;" d="M1073.88,568.07c-199.17,110.11-77.72,482.55-330.33,615.33
		c-69.98,36.78-284.99,223.46-144.11,469.59c92.15,161,367.58,126.3,458.26-16.19C1148.37,1494.31,1073.88,568.07,1073.88,568.07z"
		/>
	<g>
		<path style="fill:#303C60;" d="M543.85,1414.84c-0.21,0-0.42-0.01-0.63-0.04c-2.59-0.34-4.41-2.72-4.07-5.31
			c0.18-1.32,4.51-32.66,24.37-74.22c18.3-38.3,53.84-92.67,119.19-134.26c116.88-74.38,194.47-144.48,286.2-490.02
			c0.67-2.53,3.27-4.03,5.79-3.36c2.53,0.67,4.03,3.26,3.36,5.79c-44.33,166.98-88.28,279.85-138.31,355.24
			c-46.47,70-94.28,103.64-151.95,140.34c-121.42,77.27-139.1,200.5-139.27,201.74C548.22,1413.11,546.18,1414.84,543.85,1414.84z"
			/>
	</g>
	<g>
		<path style="fill:#303C60;" d="M548.2,1318.39c-0.87,0-1.74-0.24-2.52-0.73c-2.21-1.39-2.87-4.32-1.48-6.53
			c28.88-45.72,65.67-83.22,109.34-111.46c164.14-106.15,191.3-167.17,326.87-516.72c0.95-2.44,3.69-3.65,6.13-2.7
			c2.44,0.95,3.65,3.69,2.7,6.13c-67.78,174.76-108.29,277.17-152.6,349.75c-47.59,77.95-101.29,121.91-177.96,171.49
			c-42.51,27.49-78.33,64.02-106.47,108.57C551.31,1317.61,549.77,1318.39,548.2,1318.39z"/>
	</g>
	<path style="fill:#F09959;" d="M1067.01,800.49c-68.58,142.42-58.03,271.66-58.03,271.66s7.91,50.11,39.56,60.66
		c31.65,10.55,76.49-21.1,73.85-63.3c-2.64-42.2,10.55-145.06,26.37-181.99C1164.59,850.6,1067.01,800.49,1067.01,800.49z"/>
	<path style="fill:#6791C9;" d="M704.69,1790.1c4.32,38.86-5.4,35.63,29.15,42.1c34.54,6.48,96.08-17.27,96.08-17.27l-69.09-128.47
		L704.69,1790.1z"/>
	<path style="fill:#F09959;" d="M1017.25,995.67c-19.43,63.15-165.16,14.57-216.16,29.15c-51,14.57-94.73,228.31-102.01,420.18
		c-7.29,191.88,2.43,344.89,21.86,369.18c19.43,24.29,340.04,34,369.18,24.29c29.15-9.71-242.88-131.15-242.88-131.15
		s-17-223.45,4.86-337.61c21.86-114.15,218.59-264.74,218.59-264.74L1017.25,995.67z"/>
	<path style="fill:#F09959;" d="M1085.26,1015.1c51,77.72,184.59,68.01,230.74,131.15c46.15,63.15,143.3,410.47,143.3,410.47
		l102.01-352.18c0,0,82.73-13.9,55.86,43.72c-47.78,102.47-65.59,433.07-117.41,480.03c-57.62,52.22-114.97,9.72-147.33-81.71
		c-31.3-88.44-109.3-279.31-165.16-352.18c-55.86-72.86-116.58-189.45-116.58-189.45L1085.26,1015.1z"/>
	<path style="fill:#FF9716;" d="M864.24,1024.81c102.01,119.01,301.17,114.15,344.89,99.58c43.72-14.57,43.72-14.57,43.72-14.57
		s34-12.14,63.15,21.86c29.14,34,99.58,247.74,111.72,296.31c12.14,48.57,31.57,128.73,31.57,128.73s-52.11,62.54-52.11,125.7
		c0,63.15,22.13,63.69,22.13,63.69s-64.74-14.51-79.32-53.37c-14.57-38.86-145.73-391.04-145.73-391.04l-361.89,7.29l4.86,398.33
		c0,0-31.57-29.15-75.29,0c-43.72,29.14-58.29,97.15-51.01,106.87c7.29,9.72-14.57,9.72-14.57,2.43
		c0-7.29-41.29-184.59-12.14-476.05c29.15-291.46,85.01-323.03,116.58-325.46C842.38,1012.67,864.24,1024.81,864.24,1024.81z"/>
	<g>
		<path style="fill:#6791C9;" d="M1414.49,1741.08c0.68,0.23,1.08,0.23,1.08,0.23S1415.18,1741.23,1414.49,1741.08z"/>
		<path style="fill:#D87509;" d="M1428.51,1565.56c-21.05,6.48-56.68,80.96-56.68,80.96s-80.96-176.5-105.25-421.01l-28.9,165.88
			c39.9,107.12,102.51,275.19,112.32,301.35c13.33,35.55,67.09,50.38,74.46,52.02c-2.02-0.68-6.47-3.37-10.16-14.04
			c-2.12-1.94-14.29-7.62-16.56-9.71c-19.43-17.81-11.33-59.91,1.62-106.87C1412.32,1567.17,1449.56,1559.08,1428.51,1565.56z"/>
	</g>
	<path style="fill:#D87509;" d="M859.8,1308.63l-40.14-183.52c-43.72,61.54-48.58,272.04-30.77,416.16
		c14.61,118.19,36.46,148.86,51.47,161.18c4.44,2.62,6.87,4.86,6.87,4.86l-4.86-398.33L859.8,1308.63z"/>
	<path style="fill:#FF9716;" d="M743.55,1123.49c74.49,200.79,37.24,241.27,135.26,476.95c54.74,131.63,160.3,230.74,160.3,230.74
		s85.01,21.86,191.88,14.57c106.87-7.29,185.11-14.63,185.11-14.63s-112.24-67.95-117.1-114.1c-4.86-46.15-25.94-229.19,1.59-358.74
		c21.5-101.16-67.17-202.32-67.17-202.32l-148.16-7.29L743.55,1123.49z"/>
	<path style="fill:#D87509;" d="M874.71,1431.15c-12.96-46.96,55.05,14.57,166.78,25.91c111.73,11.34,236.42-6.48,174.89,12.95
		c-61.53,19.43-229.94-9.72-199.17,51.82c36.21,72.42,78.96,142.5,140.88,184.6c40.48,27.53,137.64,53.44,43.72,38.86
		c-93.92-14.58-194.32-124.69-238.03-195.93C920.05,1478.11,877.6,1441.63,874.71,1431.15z"/>
	<path style="fill:#E38540;" d="M1122.12,1051.03c0.98-48.47,12.81-131.2,26.65-163.5c11.34-26.46-35.53-59.68-63.03-76.39l-23.25-1
		c-3.54,7.72-6.87,15.4-9.97,23.01c-24.55,161.2,48.92,227.81,83.98,241.22c15.13,5.79,32.09,6.43,46.58,5.12
		C1161.44,1071.79,1140.34,1063.04,1122.12,1051.03z"/>
	<g>
		<path style="fill:#F5CE5C;" d="M1077.63,1122.7c-8.43,0-17.17-1.01-25.85-3.13c-20.26-4.94-68.61-23.72-79.86-91.17
			c-0.24-1.46,0.74-2.85,2.21-3.09c1.45-0.24,2.84,0.74,3.09,2.21c10.72,64.31,56.6,82.15,75.83,86.85
			c29.88,7.28,61.58,0.54,73.74-15.69c9.76-13.01,3.9-40.72,3.84-41c-0.32-1.45,0.6-2.88,2.05-3.19c1.44-0.32,2.88,0.6,3.19,2.05
			c0.27,1.23,6.44,30.39-4.79,45.36C1121.13,1115.16,1100.61,1122.7,1077.63,1122.7z"/>
	</g>
	<path style="fill:#F09959;" d="M1306.19,863.85c-16.47,87-54.53,157.18-118.92,143.96c-64.39-13.23-132.09-105.12-114.27-191.86
		c17.81-86.74,84.46-146.32,148.86-133.09C1286.25,696.08,1328.14,747.93,1306.19,863.85z"/>
	<path style="fill:#F09959;" d="M1535.38,1293.51c0,0-119.02,319.81-124.69,353.01c-5.67,33.19,5.67,54.25,8.91,54.25
		c3.24,0,104.44-173.26,104.44-173.26L1535.38,1293.51z"/>
	<path style="fill:#F09959;" d="M1540.24,1279.48c9.72-32.39-5.4-73.41-5.4-73.41l43.18,5.4L1540.24,1279.48z"/>
	<g>
		<path style="fill:#4381DB;" d="M1587.69,1224.24H1467.2c-7.31,0-12.56-7.05-10.47-14.05l76.06-255.02
			c1.39-4.63,5.64-7.8,10.48-7.8h120.49c7.31,0,12.56,7.04,10.47,14.05l-76.06,255.02
			C1596.78,1221.07,1592.52,1224.24,1587.69,1224.24z"/>
		<path style="fill:#2E5B9A;" d="M1602.8,1224.24h-120.49c-7.32,0-12.57-7.05-10.48-14.05l76.06-255.02
			c1.38-4.63,5.64-7.8,10.48-7.8h120.49c7.31,0,12.57,7.04,10.48,14.05l-76.06,255.02
			C1611.9,1221.07,1607.63,1224.24,1602.8,1224.24z"/>
		<path style="fill:#9CBEED;" d="M1515.57,1039.39c-12.84,46.28-21.49,84.29-19.31,84.9c2.18,0.6,14.36-36.42,27.2-82.71
			c12.85-46.28,21.49-84.29,19.31-84.9C1540.59,956.08,1528.41,993.11,1515.57,1039.39z"/>
	</g>
	<path style="fill:#F09959;" d="M1597.45,1299.99c3.56-42.05,39.99-81.48,53.85-94.05c4.21-3.82,6.59-9.25,6.54-14.94
		c-0.2-20.96-1.13-70.45-5.47-76.23c-5.52-7.36-19.32-102.11-25.76-98.43c-6.44,3.68,1.84,86.47,1.84,86.47s-15.64-7.36-23.92-11.04
		c-8.28-3.68-42.32,34.04-42.32,34.04s-15.96,40.32,27.67,23.05c51.82-20.51,12.95,36.7-21.59,73.41
		c-28.47,30.24-4.24,36.93-4.24,36.93l23-0.92L1597.45,1299.99z"/>
	<g>
		<path style="fill:#F5CE5C;" d="M1584.41,1333.08c-3.82,0-8.14-0.59-12.49-1.95c-11.21-3.49-30.78-14.76-35.95-51
			c-0.21-1.47,0.81-2.83,2.28-3.04c1.47-0.2,2.82,0.81,3.04,2.28c4.43,30.99,19.45,42.3,31.28,46.33c9.67,3.3,17.66,1.77,19.68,0.65
			c0.13-0.92,0.73-1.75,1.66-2.12c1.37-0.55,2.94,0.12,3.49,1.49c0.54,1.36,0.22,2.86-0.85,4.03
			C1594.65,1331.77,1590.09,1333.08,1584.41,1333.08z"/>
	</g>
	<g>
		<path style="fill:#F5CE5C;" d="M1579.89,1322.67c-3.58,0-7.31-0.27-10.86-0.79c-20.82-3.02-34.78-13.59-38.28-28.98
			c-0.33-1.44,0.57-2.88,2.02-3.21c1.45-0.32,2.88,0.58,3.21,2.02c3.35,14.69,16.7,20.94,27.32,23.59
			c14.88,3.72,28.86,1.43,30.53-0.5c0.73-1.29,2.33-1.72,3.63-0.98c1.29,0.73,1.72,2.4,1,3.69
			C1596.44,1321.05,1588.63,1322.67,1579.89,1322.67z"/>
	</g>
	<g>
		<path style="fill:#FFFFFF;" d="M1232.29,909.13c-1.32,0-2.64-0.1-3.97-0.3c-20.43-3.13-32.78-29.49-28.1-60.02
			c2.17-14.17,7.78-27.01,15.81-36.16c8.54-9.73,18.83-14.24,28.97-12.69c20.43,3.13,32.77,29.49,28.1,60.02
			C1268.72,888.51,1251.24,909.13,1232.29,909.13z M1241.11,809.13c-6.09,0-12.39,3.4-17.97,9.76
			c-6.85,7.81-11.67,18.94-13.57,31.35c-3.74,24.43,5.5,46.97,20.18,49.22c14.67,2.26,30.24-16.5,33.98-40.93
			c3.74-24.43-5.5-46.97-20.18-49.22C1242.75,809.19,1241.93,809.13,1241.11,809.13z"/>
	</g>
	<g>
		<path style="fill:#FFFFFF;" d="M1299.64,909.25c-0.65,0-1.3-0.05-1.94-0.15c-13.38-2.05-20.64-24.71-16.52-51.59
			c4.12-26.89,17.86-46.38,31.2-44.29c6.89,1.06,12.32,7.36,15.28,17.77c2.69,9.46,3.13,21.47,1.24,33.83
			C1324.98,890.4,1312.38,909.25,1299.64,909.25z M1310.41,820.23c-7.88,0-18.6,15.17-22.16,38.36
			c-3.69,24.09,2.59,42.22,10.53,43.44c7.99,1.18,19.35-14.22,23.04-38.3c1.74-11.36,1.37-22.3-1.05-30.79
			c-2.12-7.44-5.57-12.05-9.48-12.65C1311.01,820.25,1310.71,820.23,1310.41,820.23z"/>
	</g>
	<g>
		<path style="fill:#FFFFFF;" d="M1209.91,828.66c-0.43,0-0.87-0.06-1.3-0.18l-158.69-45.34c-2.51-0.72-3.97-3.34-3.25-5.85
			c0.72-2.51,3.33-3.97,5.85-3.25l158.69,45.34c2.51,0.72,3.97,3.34,3.25,5.85C1213.86,827.3,1211.97,828.66,1209.91,828.66z"/>
	</g>
	<path style="fill:#303C60;" d="M1323.25,730c-245.59,144.66-259.08,47.5-259.08,47.5l14.57-138.18l145.73,8.09L1323.25,730z"/>
	<path style="fill:#F09959;" d="M1083.17,809.61c5.72,24.45-2.09,47.18-17.43,50.76c-15.34,3.58-32.41-13.33-38.12-37.79
		c-5.72-24.46,2.09-47.18,17.43-50.77C1060.39,768.23,1077.46,785.15,1083.17,809.61z"/>
	<path style="fill:#F5CE5C;" d="M1066.35,841.73c0,5.34-4.33,9.67-9.67,9.67c-5.34,0-9.67-4.33-9.67-9.67
		c0-5.34,4.33-9.67,9.67-9.67C1062.02,832.05,1066.35,836.38,1066.35,841.73z"/>
	<path style="fill:#2E5B9A;" d="M2960.96,1875.19H504.28c-12.43,0-22.51-10.08-22.51-22.51s10.08-22.51,22.51-22.51h2456.68
		c12.43,0,22.51,10.08,22.51,22.51S2973.4,1875.19,2960.96,1875.19z"/>
	<path style="fill:#DBE5EB;" d="M1086.61,1825.83c0,0-92.61,1.17-93.78,9.38c-1.17,8.21,3.52,11.72,36.34,17.58
		c32.82,5.86,402.09,8.21,405.61,5.86c3.52-2.34,111.37-28.14,111.37-28.14l-259.07-4.69H1086.61z"/>
	<path style="fill:#F09959;" d="M1137.04,1764.19c0,0,66.39-29.15,85.82-16.2c19.43,12.96,75.57,72.33,75.57,72.33L1137.04,1764.19z
		"/>
	<path style="fill:#D87509;" d="M1294.77,1825.61c-1.26,1.58-3.14,2.24-4.2,1.45l-136.61-101.7c-7.36-5.48-10.86-13.86-7.32-18.28
		c3.54-4.42,12.48-2.85,19.44,3.13l129.19,110.98C1296.26,1822.05,1296.03,1824.03,1294.77,1825.61z"/>
	<path style="fill:#F09959;" d="M936.25,1751.77c0,0,110.11,43.72,123.07,43.72c12.95,0,85.28-48.58,109.57-42.1
		c24.29,6.48,143.04,66.39,139.8,71.25c-3.24,4.86-37.24,16.19-137.64,12.96c-100.39-3.24-263.94-17.81-263.94-17.81L936.25,1751.77
		z"/>
	<path style="fill:#FF567A;" d="M2331.98,1832.03h-473.72c-2.73,0-4.97-2.24-4.97-4.97v-85.01c0-2.73,2.24-4.97,4.97-4.97h473.72
		c6.86,0,12.48,5.61,12.48,12.48v70C2344.46,1826.42,2338.84,1832.03,2331.98,1832.03z"/>
	<path style="fill:#F2E5DE;" d="M2279.45,1753.15h-426.11c-2.98,4.95-4.74,10.73-4.74,16.9v29.01c0,6.18,1.76,11.95,4.74,16.9
		h426.11c15.13,0,27.51-12.38,27.51-27.5v-7.81C2306.96,1765.53,2294.58,1753.15,2279.45,1753.15z"/>
	<path style="fill:#7BCEE8;" d="M2311.16,1737.08h-358.11c-1.85,0-3.36-1.51-3.36-3.36V1683c0-1.85,1.51-3.36,3.36-3.36h358.11
		c4.63,0,8.42,3.79,8.42,8.42v40.59C2319.58,1733.29,2315.79,1737.08,2311.16,1737.08z"/>
	<path style="fill:#F2E5DE;" d="M2270.63,1689.36h-320.89c-2.25,3-3.57,6.49-3.57,10.22v17.55c0,3.74,1.32,7.23,3.57,10.23h320.89
		c11.39,0,20.71-7.49,20.71-16.64V1706C2291.34,1696.85,2282.02,1689.36,2270.63,1689.36z"/>
	<g>
		<path style="fill:#9EC8FF;" d="M2357.5,518.15h-364c-11.61,0-17.64-9.5-13.42-21.1l55.04-151.22c4.22-11.61,17.18-21.1,28.78-21.1
			h364c11.6,0,17.64,9.5,13.42,21.1l-55.04,151.22C2382.06,508.65,2369.11,518.15,2357.5,518.15z"/>
		<path style="fill:#FFFFFF;" d="M2345.16,502.32h-327.79c-10.05,0-15.28-8.23-11.63-18.28l45.58-125.22
			c3.66-10.05,14.87-18.27,24.93-18.27h327.79c10.05,0,15.28,8.22,11.63,18.27l-45.58,125.22
			C2366.43,494.1,2355.22,502.32,2345.16,502.32z"/>
		<path style="fill:#9EC8FF;" d="M2137.97,509.36c-30.19,79.71-76.66,104.33-76.66,104.33s33.05-45.72,28.26-67.99
			c-4.79-22.27-22.48-31.66-22.48-31.66L2137.97,509.36z"/>
		<path style="fill:#9EC8FF;" d="M2371.5,385.09h-211.3c-3.46,0-5.27-2.84-4.01-6.3l0.11-0.29c1.26-3.46,5.13-6.3,8.59-6.3h211.31
			c3.46,0,5.27,2.84,4.01,6.3l-0.11,0.29C2378.83,382.26,2374.96,385.09,2371.5,385.09z"/>
		<path style="fill:#9EC8FF;" d="M2361.68,412.06h-211.31c-3.46,0-5.27-2.83-4.01-6.3l0.1-0.29c1.26-3.46,5.13-6.3,8.59-6.3h211.3
			c3.47,0,5.27,2.84,4.01,6.3l-0.11,0.29C2369.02,409.22,2365.15,412.06,2361.68,412.06z"/>
		<path style="fill:#9EC8FF;" d="M2350.59,442.54h-211.3c-3.47,0-5.27-2.84-4.01-6.3l0.11-0.29c1.26-3.47,5.13-6.3,8.59-6.3h211.31
			c3.46,0,5.27,2.83,4.01,6.3l-0.11,0.29C2357.92,439.7,2354.06,442.54,2350.59,442.54z"/>
		<path style="fill:#9EC8FF;" d="M2127.24,406.78c-8.36,22.98-30.36,41.62-49.14,41.62c-18.78,0-27.22-18.63-18.85-41.62
			c8.37-22.98,30.37-41.62,49.14-41.62C2127.17,365.16,2135.61,383.8,2127.24,406.78z"/>
	</g>
	<g>
		<path style="fill:#9EC8FF;" d="M2150.61,911.44h-18.04c-3.81,0-5.77-3.09-4.39-6.9l5.41-14.86c1.39-3.81,5.6-6.9,9.41-6.9h18.04
			c3.81,0,5.77,3.09,4.39,6.9l-5.41,14.86C2158.64,908.36,2154.42,911.44,2150.61,911.44z"/>
		<path style="fill:#9EC8FF;" d="M2208.49,911.44h-18.04c-3.81,0-5.77-3.09-4.39-6.9l5.41-14.86c1.39-3.81,5.6-6.9,9.41-6.9h18.04
			c3.81,0,5.77,3.09,4.39,6.9l-5.41,14.86C2216.51,908.36,2212.3,911.44,2208.49,911.44z"/>
		<path style="fill:#9EC8FF;" d="M2266.37,911.44h-18.04c-3.81,0-5.77-3.09-4.39-6.9l5.41-14.86c1.38-3.81,5.6-6.9,9.41-6.9h18.04
			c3.81,0,5.77,3.09,4.38,6.9l-5.41,14.86C2274.4,908.36,2270.18,911.44,2266.37,911.44z"/>
	</g>
	<g>
		<path style="fill:#9EC8FF;" d="M1921.27,797.15h-364c-11.61,0-17.64-9.5-13.42-21.1l55.04-151.22
			c4.22-11.61,17.18-21.1,28.78-21.1h364c11.61,0,17.65,9.5,13.42,21.1l-55.04,151.22C1945.82,787.66,1932.87,797.15,1921.27,797.15
			z"/>
		<path style="fill:#FFFFFF;" d="M1908.93,781.32h-327.79c-10.05,0-15.28-8.22-11.63-18.27l45.58-125.22
			c3.66-10.05,14.88-18.28,24.93-18.28h327.79c10.05,0,15.28,8.22,11.63,18.28l-45.58,125.22
			C1930.2,773.1,1918.98,781.32,1908.93,781.32z"/>
		<path style="fill:#9EC8FF;" d="M1575.71,788.36c-27.84,79.72,0.71,104.34,0.71,104.34s0.23-45.72,21.23-67.99
			c21-22.27,45.52-31.65,45.52-31.65L1575.71,788.36z"/>
		<path style="fill:#9EC8FF;" d="M1819.97,674.65h-178.31c-3.19,0-4.85-2.61-3.69-5.8l0.47-1.29c1.16-3.19,4.72-5.8,7.91-5.8h178.31
			c3.19,0,4.85,2.61,3.69,5.8l-0.47,1.29C1826.72,672.04,1823.15,674.65,1819.97,674.65z"/>
		<path style="fill:#9EC8FF;" d="M1810.15,701.61h-178.3c-3.19,0-4.85-2.61-3.69-5.8l0.47-1.29c1.16-3.19,4.72-5.8,7.92-5.8h178.3
			c3.19,0,4.85,2.61,3.69,5.8l-0.47,1.29C1816.9,699,1813.34,701.61,1810.15,701.61z"/>
		<path style="fill:#9EC8FF;" d="M1799.06,732.09h-178.31c-3.19,0-4.85-2.61-3.69-5.8l0.47-1.29c1.16-3.19,4.72-5.8,7.91-5.8h178.31
			c3.19,0,4.85,2.61,3.69,5.8l-0.47,1.29C1805.81,729.48,1802.25,732.09,1799.06,732.09z"/>
		<path style="fill:#9EC8FF;" d="M2252.83,968.3h-351.32c-6.29,0-9.56-2.61-7.27-5.8l0.92-1.29c2.29-3.19,9.31-5.8,15.6-5.8h351.32
			c6.29,0,9.56,2.61,7.27,5.8l-0.93,1.29C2266.14,965.69,2259.12,968.3,2252.83,968.3z"/>
		<path style="fill:#9EC8FF;" d="M2233.5,1012.85h-351.32c-6.29,0-9.56-2.61-7.27-5.8l0.93-1.29c2.29-3.19,9.31-5.8,15.6-5.8h351.32
			c6.29,0,9.56,2.61,7.27,5.8l-0.92,1.29C2246.81,1010.24,2239.79,1012.85,2233.5,1012.85z"/>
		<path style="fill:#9EC8FF;" d="M1881.91,742.64h-25.79c-11.61,0-17.64-9.49-13.42-21.1l19.2-52.75
			c4.23-11.61,17.18-21.1,28.78-21.1h25.79c11.61,0,17.65,9.5,13.42,21.1l-19.2,52.75C1906.46,733.14,1893.51,742.64,1881.91,742.64
			z"/>
	</g>
	<g>
		<path style="fill:#69E781;" d="M2781.64,1762.13c46.82-256.9,36.57-348.79-88.84-558.48
			c-125.41-209.69-137.38-599.91-184.64-485.46c-47.27,114.45-40.91,401.87,107.24,541.35
			c148.15,139.48,168.09,201.93,176.89,258.71c8.8,56.77-21.15,231.26-21.15,231.26L2781.64,1762.13z"/>
		<path style="fill:#26C640;" d="M2805.09,1596.58c0.08-0.99,0.14-1.96,0.21-2.94c-2.75-21.08-17.63-129.47-38.22-172.24
			c-22.86-47.48-123.09-130.13-151.23-233.87c-28.14-103.75-72.73-184.16-101.99-249.7c-38.63-86.53-17.51-201.56,14.42-238.93
			c-0.77-0.51-1.55-0.86-2.34-1.07l-10.61,6.41c-2.31,3.33-4.7,7.94-7.19,13.96c-47.27,114.45-40.91,401.87,107.24,541.35
			c148.15,139.48,168.09,201.93,176.89,258.71c2.37,15.31,1.92,39.2,0.01,65.91L2805.09,1596.58z"/>
		<path style="fill:#69E781;" d="M2717.64,1716.81c34.84-301.9,23.22-406.4-44.12-647.92c-67.35-241.52,371.57-791.9,357.63-696.69
			c-13.93,95.21-60.38,332.09-181.14,480.71c-120.76,148.63-130.05,269.39-106.83,397.11c23.22,127.73-4.65,424.98-4.65,424.98
			l-13.94,53.41L2717.64,1716.81z"/>
		<g>
			<path style="fill:#26C640;" d="M2733.67,1591.36c-0.04,0-0.08,0-0.11,0c-1.61-0.06-2.86-1.41-2.8-3.02
				c0.04-0.93,3.49-94,1.76-170.39c-1.74-76.46-22.46-207.49-35.06-252.49c-11.48-40.98-25.91-178.42,44.15-320.35
				c34.9-70.7,62.76-115.39,101.31-177.25c38.11-61.14,85.53-137.24,160.77-271.28c0.79-1.4,2.56-1.9,3.97-1.11
				c1.4,0.79,1.9,2.56,1.11,3.97c-75.3,134.16-122.77,210.32-160.9,271.51c-38.47,61.72-66.26,106.32-101.03,176.75
				c-69.25,140.29-55.07,275.82-43.77,316.2c12.68,45.29,33.53,177.07,35.28,253.93c1.74,76.57-1.73,169.81-1.76,170.74
				C2736.53,1590.13,2735.23,1591.36,2733.67,1591.36z"/>
		</g>
		<path style="fill:#69E781;" d="M2729.25,1825.27c20.9-202.04,24.4-102.4-62.4-376.91c-99.34-314.19,255.15-593.12,313.21-479.32
			c58.06,113.79,125.4,471.43,99.86,459.81c-25.54-11.61-195.07-343.7-199.72-329.77c-4.64,13.94-229.9,130.05-220.62,248.49
			c9.29,118.44,95.21,306.54,95.21,306.54l-2.32,173.48L2729.25,1825.27z"/>
		<g>
			<path style="fill:#26C640;" d="M2752.48,1825.23c-0.1,0-0.19,0-0.29-0.01l-23.22-2.32c-0.77-0.08-1.48-0.46-1.97-1.06
				c-0.49-0.6-0.72-1.37-0.64-2.14c2.42-23.34,4.65-43,6.44-58.79c9.73-85.78,9.73-85.78-16.9-159.26
				c-12.03-33.21-28.51-78.68-51.82-152.41c-17.43-55.14-21.94-112.27-13.39-169.83c7.54-50.74,24.95-100.77,51.77-148.68
				c45.98-82.18,118.34-152.76,184.35-179.81c45.87-18.8,80.81-12.69,95.85,16.79c24.64,48.3,54.11,147.2,78.82,264.56
				c14.26,67.73,35.22,185.67,23.31,198.13c-1.62,1.69-3.88,2.11-6.07,1.11c-13.94-6.34-60.08-87.76-123.75-202.1
				c-31.92-57.32-64.86-116.48-73.75-126.68c-3.58,3.98-12.63,10.21-31.37,22.93c-63.1,42.8-194.4,131.85-187.35,221.69
				c9.14,116.56,94.1,303.68,94.96,305.56c0.18,0.39,0.27,0.82,0.27,1.25l-2.32,168.21c-0.01,0.82-0.36,1.59-0.97,2.13
				C2753.88,1824.97,2753.19,1825.23,2752.48,1825.23z M2732.45,1817.38l17.15,1.72l2.27-164.38
				c-5.35-11.86-86.23-192.66-95.2-306.92c-7.31-93.21,125.88-183.56,189.89-226.97c15.21-10.31,29.57-20.06,30.9-22.74
				c0.42-1.28,1.55-2.2,2.91-2.33c5.63-0.53,16.77,17.81,79.68,130.81c45.15,81.09,106.87,191.92,120.76,199.48
				c1.07-1.74,4.23-11.26-1.92-60.3c-4.44-35.46-12.59-82.11-22.94-131.35c-24.65-117.3-53.99-216-78.5-264.03
				c-13.49-26.44-45.73-31.56-88.45-14.05c-115.76,47.45-293.12,257.96-219.38,491.17c23.27,73.61,39.73,119.02,51.74,152.18
				c27.09,74.77,27.09,74.77,17.21,161.9C2736.78,1777.47,2734.74,1795.4,2732.45,1817.38z"/>
		</g>
		<path style="fill:#7BCEE8;" d="M2802.24,1833.64h-105.39c-7.25,0-13.72-4.12-14.4-9.25l-35.41-266.22
			c-1.63-12.28,6.49-22.63,18.09-22.63h168.83c11.61,0,19.73,10.35,18.09,22.63l-35.41,266.22
			C2815.96,1829.53,2809.48,1833.64,2802.24,1833.64z"/>
		<path style="fill:#A2DFF2;" d="M2789.74,1824.46h-15.09c-7.38,0-13.32-4.27-13.2-9.59l5.33-229.96
			c0.27-11.44,9.65-21.06,20.84-21.06h22.89c11.19,0,19.33,9.62,18.11,21.06l-24.45,229.96
			C2803.62,1820.19,2797.12,1824.46,2789.74,1824.46z"/>
		<g>
			<path style="fill:#74B570;" d="M2677.4,1451.87l1.86-3.24c-6.82-24.65-12.53-49.19-16.18-72.13
				C2666.85,1419.88,2677.4,1451.87,2677.4,1451.87z"/>
			<path style="fill:#26C640;" d="M2677.4,1257.27c-6.85,17.12-11.02,34.96-13.32,52.58c31.11-102.12,204.34-194.31,215.59-209.86
				l2-3.91C2816.61,1077.91,2712.57,1169.35,2677.4,1257.27z"/>
		</g>
		<g>
			<path style="fill:#26C640;" d="M3080.08,1422.55c-1.31,0-2.5-0.89-2.83-2.22l-31.47-128.06
				c-24.58-100.35-55.17-225.23-89.51-280.82c-5.66-9.17-30.39-21.56-65.41-19.09c-47.34,3.35-138.58,36.05-217.82,217.43
				c-0.65,1.47-2.36,2.15-3.84,1.51c-1.47-0.65-2.15-2.36-1.5-3.84c80.47-184.18,174.1-217.46,222.75-220.91
				c37.84-2.66,64.18,11.16,70.78,21.84c34.82,56.37,64.25,176.51,90.21,282.5l31.48,128.05c0.38,1.57-0.57,3.14-2.13,3.53
				C3080.55,1422.52,3080.31,1422.55,3080.08,1422.55z"/>
		</g>
		<g>
			<path style="fill:#26C640;" d="M2987.77,1255.5c-0.11,0-0.23,0-0.34-0.02c-1.6-0.19-2.74-1.63-2.56-3.23
				c0.12-1.05,11.92-106.31-15.76-217c-0.39-1.56,0.56-3.14,2.12-3.53c1.57-0.39,3.14,0.56,3.53,2.12
				c27.94,111.76,16.02,218.03,15.89,219.09C2990.48,1254.41,2989.23,1255.5,2987.77,1255.5z"/>
		</g>
		<g>
			<path style="fill:#26C640;" d="M2955.24,1190.44c-0.11,0-0.23-0.01-0.35-0.02c-1.6-0.19-2.74-1.64-2.55-3.23
				c0.11-0.97,11.3-97.34,3.51-176.98c-0.15-1.6,1.02-3.03,2.62-3.18c1.59-0.18,3.03,1.01,3.18,2.62
				c7.85,80.27-3.41,177.26-3.52,178.23C2957.95,1189.35,2956.7,1190.44,2955.24,1190.44z"/>
		</g>
		<g>
			<path style="fill:#26C640;" d="M2844.45,673.46c-1.08,0-2.13-0.61-2.63-1.65c-0.7-1.45-0.09-3.19,1.37-3.89
				c0.83-0.4,84.15-41.15,132.34-130.64c0.76-1.42,2.54-1.94,3.95-1.18c1.42,0.76,1.95,2.53,1.18,3.95
				c-49.12,91.22-134.1,132.72-134.95,133.13C2845.31,673.37,2844.88,673.46,2844.45,673.46z"/>
		</g>
		<g>
			<path style="fill:#26C640;" d="M2782.91,778.96c-1.35,0-2.57-0.95-2.85-2.33c-0.32-1.57,0.69-3.11,2.27-3.44
				c0.68-0.14,68.92-14.76,149.98-80.3c1.26-1.01,3.09-0.82,4.1,0.43c1.01,1.25,0.82,3.09-0.43,4.1
				c-82.25,66.5-151.78,81.34-152.47,81.48C2783.3,778.95,2783.1,778.96,2782.91,778.96z"/>
		</g>
		<g>
			<path style="fill:#26C640;" d="M2732.05,881c-1.2,0-1.91-0.04-2.11-0.06c-1.61-0.12-2.81-1.52-2.69-3.12
				c0.12-1.61,1.53-2.81,3.12-2.69c0.47,0.04,47.5,2.6,122.89-53.94c1.29-0.96,3.11-0.7,4.08,0.58c0.97,1.29,0.7,3.11-0.58,4.08
				C2787.53,877.77,2742.24,881,2732.05,881z"/>
		</g>
	</g>
</g>
</svg>
