<?xml version="1.0" encoding="utf-8"?>
<!-- Generator: Adobe Illustrator 19.0.0, SVG Export Plug-In . SVG Version: 6.00 Build 0)  -->
<svg version="1.1" id="Layer_1" xmlns="http://www.w3.org/2000/svg" xmlns:xlink="http://www.w3.org/1999/xlink" x="0px" y="0px"
	 viewBox="0 0 72 72" style="enable-background:new 0 0 72 72;" xml:space="preserve">
<style type="text/css">
	.st0{fill:url(#XMLID_3_);}
</style>
<linearGradient id="XMLID_3_" gradientUnits="userSpaceOnUse" x1="-687.1342" y1="1026.7053" x2="-686.1342" y2="1026.7053" gradientTransform="matrix(66.4809 0 0 -66.4809 45684.0586 68292.2969)">
	<stop  offset="0" style="stop-color:#FFE259"/>
	<stop  offset="1" style="stop-color:#FFB85C"/>
</linearGradient>
<path id="XMLID_2_" class="st0" d="M36,55.2l0.9,1.8l-19,10c-0.7,0.4-1.5,0.3-2.1-0.2c-0.6-0.4-0.9-1.2-0.8-2l3.5-20.1L3.9,30.5
	c-0.5-0.5-0.7-1.3-0.5-2.1s0.9-1.3,1.6-1.4l20.2-2.9l9-18.3c0.3-0.7,1-1.1,1.8-1.1c0.8,0,1.5,0.4,1.8,1.1l9,18.3L67,27.1
	c0.8,0.1,1.4,0.6,1.6,1.4s0,1.5-0.5,2.1L53.5,44.8L57,64.9c0.1,0.7-0.2,1.5-0.8,2s-1.4,0.5-2.1,0.2l-19-10L36,55.2l0.9,1.8L36,55.2
	l0.9-1.8l15.4,8.1l-2.9-17.2l0.6-1.8l12.5-12.2L45.2,28l-1.5-1.1L36,11.3l-7.7,15.6L26.8,28L9.6,30.5L22,42.6l0.6,1.8l-2.9,17.2
	l15.4-8.1h1.9L36,55.2z"/>
</svg>
