<?xml version="1.0" encoding="utf-8"?>
<!-- Generator: Adobe Illustrator 19.0.0, SVG Export Plug-In . SVG Version: 6.00 Build 0)  -->
<svg version="1.1" id="Layer_1" xmlns="http://www.w3.org/2000/svg" xmlns:xlink="http://www.w3.org/1999/xlink" x="0px" y="0px"
	 viewBox="0 0 72 72" style="enable-background:new 0 0 72 72;" xml:space="preserve">
<style type="text/css">
	.st0{fill:url(#XMLID_3_);}
</style>
<linearGradient id="XMLID_3_" gradientUnits="userSpaceOnUse" x1="-672.2785" y1="1034.0883" x2="-671.2785" y2="1034.0883" gradientTransform="matrix(35.8394 35.8394 35.8394 -35.8394 -12948.9639 61173.2422)">
	<stop  offset="0" style="stop-color:#FFE259"/>
	<stop  offset="1" style="stop-color:#FFB85C"/>
</linearGradient>
<path id="XMLID_2_" class="st0" d="M33.9,66.2l-1.4,1.4L4.4,39.5c-1-1-1.5-2.3-1.5-3.5c0-1.3,0.5-2.6,1.5-3.5L32.5,4.4
	c1-1,2.3-1.5,3.5-1.5c1.3,0,2.6,0.5,3.5,1.5l28.1,28.1c1,1,1.5,2.3,1.5,3.5c0,1.3-0.5,2.6-1.5,3.5L39.5,67.6c-1,1-2.3,1.5-3.5,1.5
	c-1.3,0-2.6-0.5-3.5-1.5L33.9,66.2l1.4-1.4c0.2,0.2,0.4,0.3,0.7,0.3c0.3,0,0.5-0.1,0.7-0.3l28.1-28.1c0.2-0.2,0.3-0.4,0.3-0.7
	c0-0.3-0.1-0.5-0.3-0.7L36.7,7.2C36.5,7,36.3,6.9,36,6.9c-0.3,0-0.5,0.1-0.7,0.3L7.2,35.3C7,35.5,6.9,35.7,6.9,36
	c0,0.3,0.1,0.5,0.3,0.7l28.1,28.1L33.9,66.2z"/>
</svg>
