<?xml version="1.0" encoding="utf-8"?>
<!-- Generator: Adobe Illustrator 19.0.0, SVG Export Plug-In . SVG Version: 6.00 Build 0)  -->
<svg version="1.1" id="Layer_1" xmlns="http://www.w3.org/2000/svg" xmlns:xlink="http://www.w3.org/1999/xlink" x="0px" y="0px"
	 viewBox="0 0 72 72" style="enable-background:new 0 0 72 72;" xml:space="preserve">
<style type="text/css">
	.st0{fill:url(#XMLID_3_);}
</style>
<linearGradient id="XMLID_3_" gradientUnits="userSpaceOnUse" x1="-689.5927" y1="1019.6631" x2="-688.5927" y2="1019.6631" gradientTransform="matrix(43.4109 0 0 -43.4109 29950.1328 44300.4961)">
	<stop  offset="0" style="stop-color:#FFE259"/>
	<stop  offset="1" style="stop-color:#FFB85C"/>
</linearGradient>
<path id="XMLID_2_" class="st0" d="M32.5,3.2v-2h22.7c0.7,0,1.4,0.4,1.7,1c0.4,0.6,0.4,1.4,0,2l-13,22.5h11.3c0.8,0,1.4,0.4,1.8,1.1
	c0.3,0.7,0.3,1.5-0.2,2.1L26.8,70c-0.6,0.8-1.6,1-2.5,0.6c-0.9-0.4-1.3-1.4-1.1-2.3l6.8-25.8H16.8c-0.7,0-1.3-0.3-1.7-0.9
	c-0.4-0.6-0.4-1.3-0.2-1.9L30.7,2.4c0.3-0.7,1-1.2,1.8-1.2V3.2L34.4,4L19.8,38.5h12.9c0.6,0,1.2,0.3,1.6,0.8
	c0.4,0.5,0.5,1.1,0.4,1.7l-4.8,18.4l21.4-28.6H40.5c-0.7,0-1.4-0.4-1.7-1c-0.4-0.6-0.4-1.4,0-2l13-22.5H32.5V3.2L34.4,4L32.5,3.2z"
	/>
</svg>
