<?xml version="1.0" encoding="utf-8"?>
<!-- Generator: Adobe Illustrator 19.0.0, SVG Export Plug-In . SVG Version: 6.00 Build 0)  -->
<svg version="1.1" id="Layer_1" xmlns="http://www.w3.org/2000/svg" xmlns:xlink="http://www.w3.org/1999/xlink" x="0px" y="0px"
	 viewBox="0 0 72 72" style="enable-background:new 0 0 72 72;" xml:space="preserve">
<style type="text/css">
	.st0{fill:url(#XMLID_3_);}
</style>
<linearGradient id="XMLID_3_" gradientUnits="userSpaceOnUse" x1="-691.6031" y1="1027.2064" x2="-690.6031" y2="1027.2064" gradientTransform="matrix(69.0068 0 0 -69.0068 47726.8125 70920.2266)">
	<stop  offset="0" style="stop-color:#FFE259"/>
	<stop  offset="1" style="stop-color:#FFB85C"/>
</linearGradient>
<path id="XMLID_2_" class="st0" d="M68,26.2l-2,0.1c-0.1-3.8-1-7.3-3-10.5c-2.7-4.1-6.1-5.9-10.8-6c-0.4,0-0.7,0-1.1,0
	c-3.8,0.3-7,1.9-9.9,4.7c-1.3,1.2-2.5,2.7-3.8,4.3l0,0l0,0c-0.4,0.4-0.9,0.7-1.5,0.7c-0.6,0-1.1-0.3-1.5-0.7c-1-1.2-1.8-2.4-2.8-3.3
	c-3-3.2-6.3-5.2-10.5-5.6c-0.5,0-1-0.1-1.5-0.1c-3.9,0-6.9,1.3-9.5,4.4c-2.8,3.4-4,7.4-4.1,12c0,0.2,0,0.5,0,0.7
	c0,4.1,1.3,7.9,3.3,11.6c2.5,4.5,6,8.3,9.9,11.8c5.2,4.6,10.9,8.5,17.1,11.8L36,62.9l0-0.7c0.2,0,0.3,0.1,0.3,0.1L36,62.9l0-0.7l0,0
	l0,1.2l0-1.2l0,0l0,1.2l0-1.2v0.9l-0.4-0.8c0,0,0.3-0.1,0.4-0.1v0.9l-0.4-0.8c6-3.2,11.6-7,16.7-11.5c3.5-3.1,6.7-6.4,9.2-10.2
	c2.8-4.3,4.5-8.7,4.5-13.7c0-0.2,0-0.4,0-0.7L68,26.2l2-0.1c0,0.3,0,0.5,0,0.8c0,5.9-2.1,11.1-5.2,15.9c-2.8,4.2-6.2,7.8-9.9,11
	c-5.3,4.7-11.2,8.6-17.4,12c-0.4,0.2-0.9,0.4-1.5,0.4l-0.1,0l0,0c-0.6,0-1.1-0.2-1.5-0.4c-6.4-3.4-12.4-7.5-17.9-12.4
	c-4.1-3.7-8-7.8-10.8-12.8C3.5,36.4,2,31.9,2,27c0-0.3,0-0.6,0-0.9C2.2,21,3.5,15.9,7.1,11.6c3.3-3.9,7.7-5.8,12.6-5.8
	c0.6,0,1.2,0,1.8,0.1c5.4,0.5,9.7,3.2,13.1,6.9c1.1,1.2,2.1,2.5,2.9,3.5L36,17.6l-1.5-1.3l0,0l0,0c1.2-1.4,2.5-3,4-4.5
	c3.3-3.3,7.5-5.5,12.4-5.8c0.5,0,0.9,0,1.3,0c5.9,0,10.9,2.7,14.1,7.8c2.5,3.9,3.5,8.2,3.6,12.5L68,26.2z"/>
</svg>
