<?xml version="1.0" encoding="utf-8"?>
<!-- Generator: Adobe Illustrator 19.0.0, SVG Export Plug-In . SVG Version: 6.00 Build 0)  -->
<svg version="1.1" id="Layer_1" xmlns="http://www.w3.org/2000/svg" xmlns:xlink="http://www.w3.org/1999/xlink" x="0px" y="0px"
	 viewBox="0 0 72 72" style="enable-background:new 0 0 72 72;" xml:space="preserve">
<style type="text/css">
	.st0{fill:url(#XMLID_3_);}
</style>
<linearGradient id="XMLID_3_" gradientUnits="userSpaceOnUse" x1="-681.4228" y1="1024.8951" x2="-680.4228" y2="1024.8951" gradientTransform="matrix(58.4722 0 0 -58.4722 39853.5313 59964.2461)">
	<stop  offset="0" style="stop-color:#FFE259"/>
	<stop  offset="1" style="stop-color:#FFB85C"/>
</linearGradient>
<path id="XMLID_2_" class="st0" d="M22.3,36.4L20.4,37L9.9,6.2c-0.3-0.8,0-1.7,0.6-2.2c0.6-0.5,1.5-0.6,2.3-0.2l53.5,30.9
	c0.6,0.4,1,1,1,1.7c0,0.7-0.4,1.4-1,1.7L12.7,69c-0.7,0.4-1.6,0.3-2.3-0.2c-0.6-0.5-0.9-1.4-0.6-2.2l10.6-30.9L22.3,36.4L20.4,37
	L22.3,36.4l1.9,0.6l-8.8,25.8l45.9-26.5L15.4,9.9l8.8,25.8V37L22.3,36.4z"/>
</svg>
