<?xml version="1.0" encoding="utf-8"?>
<!-- Generator: Adobe Illustrator 19.0.0, SVG Export Plug-In . SVG Version: 6.00 Build 0)  -->
<svg version="1.1" id="Layer_1" xmlns="http://www.w3.org/2000/svg" xmlns:xlink="http://www.w3.org/1999/xlink" x="0px" y="0px"
	 viewBox="0 0 72 72" style="enable-background:new 0 0 72 72;" xml:space="preserve">
<style type="text/css">
	.st0{fill:url(#XMLID_3_);}
</style>
<linearGradient id="XMLID_3_" gradientUnits="userSpaceOnUse" x1="-692.9714" y1="1027.7584" x2="-691.9714" y2="1027.7584" gradientTransform="matrix(72.1182 0 0 -72.1182 49975.793 74156.0938)">
	<stop  offset="0" style="stop-color:#FFE259"/>
	<stop  offset="1" style="stop-color:#FFB85C"/>
</linearGradient>
<path id="XMLID_2_" class="st0" d="M69.6,25.6v2h0L68,26.9L51.2,6.5l1.5-1.3v2h0H19.2v-2l1.5-1.3l0,0c0.7,0.7,0.7,1.8,0,2.6L4,26.9
	l-1.5,0.7h0v-2l1.5-1.4l0,0c0.6,0.6,0.7,1.6,0.3,2.3l0,0l-1.8-0.9v-2h0L4,24.3l32,39.2l32-39.2l1.5-0.7h0V25.6l-1.8,0.9l0,0
	c-0.4-0.8-0.3-1.7,0.3-2.3l0,0L69.6,25.6v2V25.6L71,27l0,0L69.6,25.6l1.8-0.9l0,0c0.3,0.6,0.3,1.4-0.1,2s-1,1-1.7,1h0L69.6,25.6
	l1.5,1.3L37.5,68c-0.4,0.5-0.9,0.7-1.5,0.7c-0.6,0-1.2-0.3-1.5-0.7L0.9,26.9l1.5-1.3v2h0c-0.7,0-1.4-0.4-1.7-1
	c-0.4-0.6-0.4-1.3-0.1-2l0,0l1.8,0.9L1,27l0,0c-0.5-0.6-0.7-1.4-0.4-2.2s1-1.2,1.8-1.2h0v2l-1.5-1.3L17.7,4l1.5,1.3l-1.5,1.3l0,0
	c-0.5-0.6-0.7-1.4-0.3-2.1c0.3-0.7,1-1.2,1.8-1.2h33.6l0,0L54.3,4l16.8,20.3L69.6,25.6l0-2h0c0.8,0,1.5,0.5,1.8,1.2
	c0.3,0.7,0.2,1.6-0.4,2.2L69.6,25.6z"/>
</svg>
