<?xml version="1.0" encoding="utf-8"?>
<!-- Generator: Adobe Illustrator 19.0.0, SVG Export Plug-In . SVG Version: 6.00 Build 0)  -->
<svg version="1.1" id="Layer_1" xmlns="http://www.w3.org/2000/svg" xmlns:xlink="http://www.w3.org/1999/xlink" x="0px" y="0px"
	 viewBox="0 0 72 72" style="enable-background:new 0 0 72 72;" xml:space="preserve">
<style type="text/css">
	.st0{fill:url(#XMLID_3_);}
</style>
<linearGradient id="XMLID_3_" gradientUnits="userSpaceOnUse" x1="-685.5406" y1="1026.5598" x2="-684.5406" y2="1026.5598" gradientTransform="matrix(65.6864 0 0 -65.6864 45033.8477 67467.0156)">
	<stop  offset="0" style="stop-color:#FFE259"/>
	<stop  offset="1" style="stop-color:#FFB85C"/>
</linearGradient>
<path id="XMLID_2_" class="st0" d="M51.2,9.7v2H22L8,36l14,24.3h28L64,36L49.4,10.7L51.2,9.7v2V9.7l1.7-1L68.1,35
	c0.4,0.6,0.4,1.4,0,2L52.9,63.3c-0.4,0.6-1,1-1.7,1H20.8c-0.7,0-1.4-0.4-1.7-1L3.9,37c-0.4-0.6-0.4-1.4,0-2L19.1,8.7
	c0.4-0.6,1-1,1.7-1h30.3c0.7,0,1.4,0.4,1.7,1L51.2,9.7z"/>
</svg>
