<svg xmlns="http://www.w3.org/2000/svg" viewBox="0 0 250 250"><defs/><style>.st2{fill:#fecbaa}.st3{fill:#0598c6}.st4{fill:#4c4c4c}.st5{fill:#ffbe72}</style><g id="right_Hand"><path fill="#00b7ff" d="M33.94 116.58v116.18s40.75-.45 41.43-.9c.68-.45 11.26-10.58 11.26-10.58s-1.8-93.67-1.58-95.02c.23-1.35-11.03-13.73-11.93-12.83-.9.9-39.18 3.15-39.18 3.15z"/><path fill="#fedfc5" d="M86.63 128.51l24.77-11.48 15.76-23.42 11.26-28.14 4.05-4.95 19.59 13.73 1.35 27.92-3.15 22.07s22.97 4.05 24.09 4.28c1.13.23 30.85 3.83 30.85 3.83v31.97s-1.35 31.07-1.35 31.75-11.03 16.01-11.03 16.01l-4.25 16.87s-16.47 3.83-17.37 3.83-48.41.23-57.19-1.58c-8.78-1.8-24.02-3.83-31.37-8.33s-7.13-19.14-7.13-19.14l1.12-75.22z"/><path d="M198.56 134.38s4.44 6.47-5.43 12.95l9.55 12.95s6.96 5.42-12.95 12.95l12.95 12.95s.21 9.7-12.95 12.95v12.95s2.72 6.51-7.07 6.85H134.7l-43.57-13.32v16.11l46.95 13.08s53.36-4.39 54.71-4.39c1.35 0 8.44.04 8.44-5.39s-1.01-12.95-1.01-12.95 14.41-11.46 14.97-12.95-1.8-16.34-1.8-16.34l.34-15.54s-2.03-9.46-3.04-11.15c-1.01-1.69 3.38-14.19 3.38-14.19s-3.75-12.5-4.92-12.5c-1.16.01-10.59 4.98-10.59 4.98zM157.37 70.96s1.09 34.92-22.78 51.42c0 0 10.24 7.37 12.61 7.04 2.36-.34 16.89.94 15.2-7.97-1.69-8.91 2.7-38.97 2.7-38.97l-7.73-11.52z" class="st2"/><path d="M36.42 209.79h46.95v17.9H36.42z" class="st3"/><path d="M79.69 145.28s-15.84 62.48-33.81 64.51l35.8 3.72 1.69-66.39-3.68-1.84z" class="st3"/><path d="M217.14 153.8a19.36 19.36 0 004.96-12.95c0-10.71-8.71-19.42-19.42-19.42h-37.69c3.73-11.33 5.33-26.36 5.33-32.8v-6.47c0-14.28-11.62-25.89-25.89-25.89h-6.47c-2.97 0-5.56 2.02-6.28 4.9l-3.53 14.11c-4.94 19.76-20.63 41.55-36.86 45.52-2.84-7.2-9.87-12.31-18.06-12.31H34.37c-3.57 0-6.47 2.9-6.47 6.47v116.52c0 3.57 2.9 6.47 6.47 6.47h38.84c7.72 0 14.4-4.53 17.53-11.07l22.24 7.41a70.92 70.92 0 0022.52 3.66h54.23c10.71 0 19.42-8.71 19.42-19.42 0-2.52-.48-4.94-1.36-7.16 8.23-2.25 14.31-9.8 14.31-18.74 0-4.97-1.88-9.51-4.96-12.95 3.08-3.44 4.96-7.98 4.96-12.95s-1.88-9.49-4.96-12.93zM79.69 218.54c0 3.57-2.9 6.47-6.47 6.47H40.85V121.44h32.37c3.57 0 6.47 2.9 6.47 6.47v90.63zm110.04-58.26h12.95c3.57 0 6.47 2.9 6.47 6.47s-2.9 6.47-6.47 6.47h-12.95c-3.57 0-6.47 2.9-6.47 6.47s2.9 6.47 6.47 6.47h12.95c3.57 0 6.47 2.9 6.47 6.47s-2.9 6.47-6.47 6.47h-12.95c-3.57 0-6.47 2.9-6.47 6.47s2.9 6.47 6.47 6.47 6.47 2.9 6.47 6.47-2.9 6.47-6.47 6.47H135.5c-6.27 0-12.48-1.01-18.43-2.99l-24.44-8.15v-80.1c10.15-1.93 20.09-8.36 29.07-18.88 8.76-10.28 15.86-23.91 19-36.46l2.3-9.21h1.42c7.14 0 12.95 5.81 12.95 12.95v6.47c0 8.69-2.72 25.36-6.2 32.8h-13.22c-3.57 0-6.47 2.9-6.47 6.47s2.9 6.47 6.47 6.47h64.73c3.57 0 6.47 2.9 6.47 6.47s-2.9 6.47-6.47 6.47h-12.95c-3.57 0-6.47 2.9-6.47 6.47 0 3.62 2.9 6.52 6.47 6.52z" class="st4"/><circle cx="60.27" cy="205.59" r="6.47" class="st4"/></g><g id="up_Hand"><path d="M157.37 36.85V23.47c0-3.58-2.9-6.47-6.47-6.47s-6.47 2.9-6.47 6.47v13.38c0 3.58 2.9 6.47 6.47 6.47s6.47-2.89 6.47-6.47zM123.43 54.7c2.53-2.53 2.53-6.63 0-9.15l-9.15-9.15c-2.53-2.53-6.63-2.53-9.15 0-2.53 2.53-2.53 6.63 0 9.15l9.15 9.15c2.52 2.53 6.62 2.53 9.15 0zM187.51 54.7l9.15-9.15c2.53-2.53 2.53-6.63 0-9.15-2.53-2.53-6.63-2.53-9.15 0l-9.15 9.15c-2.53 2.53-2.53 6.63 0 9.15a6.464 6.464 0 009.15 0z" class="st5"/></g></svg>