<svg xmlns="http://www.w3.org/2000/svg" viewBox="0 0 250 250"><defs/><style>.st2{fill:#fecbaa}.st3{fill:#0598c6}.st4{fill:#4c4c4c}</style><g id="right_Hand"><path fill="#00b7ff" d="M33.94 116.58v116.18s40.75-.45 41.43-.9c.68-.45 11.26-10.58 11.26-10.58s-1.8-93.67-1.58-95.02c.23-1.35-11.03-13.73-11.93-12.83-.9.9-39.18 3.15-39.18 3.15z"/><path fill="#fedfc5" d="M86.63 128.51l24.77-11.48L160 96s23.22 32.29 24.35 32.51c1.13.23 30.85 3.83 30.85 3.83v31.97s-1.35 31.07-1.35 31.75-11.03 16.01-11.03 16.01l-4.25 16.87s-16.47 3.83-17.37 3.83-48.41.23-57.19-1.58c-8.78-1.8-24.02-3.83-31.37-8.33s-7.13-19.14-7.13-19.14l1.12-75.21z"/><path d="M198.56 134.38s4.44 6.47-5.43 12.95l9.55 12.95s6.96 5.42-12.95 12.95l12.95 12.95s.21 9.7-12.95 12.95v12.95s2.72 6.51-7.07 6.85H134.7l-43.57-13.32v16.11l46.95 13.08s53.36-4.39 54.71-4.39c1.35 0 8.44.04 8.44-5.39s-1.01-12.95-1.01-12.95 14.41-11.46 14.97-12.95-1.8-16.34-1.8-16.34l.34-15.54s-2.03-9.46-3.04-11.15c-1.01-1.69 3.38-14.19 3.38-14.19s-3.75-12.5-4.92-12.5c-1.16.01-10.59 4.98-10.59 4.98z" class="st2"/><path d="M36.42 209.79h46.95v17.9H36.42z" class="st3"/><path d="M79.69 145.28s-15.84 62.48-33.81 64.51l35.8 3.72 1.69-66.39-3.68-1.84z" class="st3"/><path d="M153 96s9 21-10 27c0 0 18 6 20 5s8-7 8-7l-5-19-13-6z" class="st2"/><path d="M217.14 153.8a19.36 19.36 0 004.96-12.95c0-10.71-8.71-19.42-19.42-19.42h-22.6l-6.43-22.55a14.574 14.574 0 00-8.04-9.31 14.574 14.574 0 00-12.3.13l-62.6 29.83c-3.13-6.52-9.8-11.04-17.51-11.04H34.37c-3.57 0-6.47 2.9-6.47 6.47v116.52c0 3.57 2.9 6.47 6.47 6.47h38.84c7.72 0 14.4-4.53 17.53-11.07l22.24 7.41a70.92 70.92 0 0022.52 3.66h54.23c10.71 0 19.42-8.71 19.42-19.42 0-2.52-.48-4.94-1.36-7.16 8.23-2.25 14.31-9.8 14.31-18.74 0-4.97-1.88-9.51-4.96-12.95 3.08-3.44 4.96-7.98 4.96-12.95s-1.88-9.49-4.96-12.93zM79.69 218.54c0 3.57-2.9 6.47-6.47 6.47H40.85V121.44h32.37c3.57 0 6.47 2.9 6.47 6.47v90.63zm110.04-58.26h12.95c3.57 0 6.47 2.9 6.47 6.47s-2.9 6.47-6.47 6.47h-12.95c-3.57 0-6.47 2.9-6.47 6.47s2.9 6.47 6.47 6.47h12.95c3.57 0 6.47 2.9 6.47 6.47s-2.9 6.47-6.47 6.47h-12.95c-3.57 0-6.47 2.9-6.47 6.47s2.9 6.47 6.47 6.47 6.47 2.9 6.47 6.47-2.9 6.47-6.47 6.47H135.5c-6.27 0-12.48-1.01-18.43-2.99l-24.44-8.15v-80.1c8.12-1.54 16.1-5.97 23.56-13.06h-.04l42.33-20.17c.95-.45 1.78-.21 2.2-.02.41.19 1.15.65 1.43 1.66l5.49 19.26h-29.66c-3.57 0-6.47 2.9-6.47 6.47s2.9 6.47 6.47 6.47h64.73c3.57 0 6.47 2.9 6.47 6.47s-2.9 6.47-6.47 6.47h-12.95c-3.57 0-6.47 2.9-6.47 6.47.01 3.62 2.91 6.52 6.48 6.52z" class="st4"/><circle cx="60.27" cy="205.59" r="6.47" class="st4"/></g></svg>