<svg xmlns="http://www.w3.org/2000/svg" viewBox="0 0 250 250"><defs/><style>.st2{fill:#4c4c4c}.st3{fill:#00b7ff}.st4{fill:#fff}.st5{fill:#0598c6}</style><g id="center"><path fill="#dbd8d2" d="M168.78 124.24c0 20.46-18.11 57.15-34.88 80.92-4.24 6-13.2 5.86-17.3-.24-15.99-23.78-35.37-60.29-35.37-80.68 0-24.18 19.6-43.78 43.78-43.78s43.77 19.6 43.77 43.78z"/><path fill="#a5a5a5" d="M135.57 205.39c16.77-23.77 34.88-60.46 34.88-80.92 0-21.67-15.75-39.65-36.42-43.15 1.53 2.97 2.28 5.89.94 7.9 0 0-21.4-1.95-29.19 11.67s-11.67 31.13 5.84 44.75 35.02-3.89 35.02-3.89-12.05 31.87-42.02 41.23c4.48 7.96 9.19 15.56 13.64 22.17 4.1 6.09 13.07 6.24 17.31.24z"/><path d="M125.34 212h-.15c-4.27-.05-8.25-2.19-10.63-5.73-13.29-19.76-35.78-59.27-35.78-82.04 0-25.48 20.73-46.21 46.21-46.21s46.21 20.73 46.21 46.21c0 20.95-18.2 58.05-35.33 82.32a12.85 12.85 0 01-10.53 5.45zM125 82.89c-22.8 0-41.35 18.55-41.35 41.35 0 18.79 18.12 54.29 34.95 79.32 1.51 2.25 3.93 3.55 6.64 3.58 2.76.06 5.11-1.21 6.65-3.39 16.7-23.66 34.44-59.57 34.44-79.51.02-22.8-18.53-41.35-41.33-41.35z" class="st2"/><circle cx="125" cy="224.44" r="11.67" class="st3"/><path d="M117.5 226.5H115c-.03 0-.06-.03-.06-.06v-1.19c0-.03.03-.06.06-.06h2.5c.03 0 .06.03.06.06v1.19c0 .04-.03.06-.06.06z" class="st4"/><path d="M113.7 222.44l-1.1 2h15.57s2.72 6.03-7.39 9.83l1.73 1.6 5.67.24 3.89-1.95 3.89-5.84.73-3.1v-2.4l-6.57-.33-16.42-.05z" class="st5"/><path d="M125 237.09c-6.97 0-12.65-5.67-12.65-12.65s5.67-12.65 12.65-12.65 12.65 5.67 12.65 12.65-5.68 12.65-12.65 12.65zm0-23.35c-5.9 0-10.7 4.8-10.7 10.7s4.8 10.7 10.7 10.7 10.7-4.8 10.7-10.7-4.8-10.7-10.7-10.7z" class="st2"/><g><path d="M138.62 222.49h-27.24c-2.69 0-4.86-2.18-4.86-4.86 0-2.69 2.18-4.86 4.86-4.86h27.24c2.69 0 4.86 2.18 4.86 4.86 0 2.69-2.17 4.86-4.86 4.86z" class="st3"/><path d="M133.31 212.88s2.23 6.12-11.67 9.33l10.42.29 8.24-.29 2.22-1.66.97-2.34s-1.13-1.66-.44-2.58c.69-.92-2.12-2.35-2.12-2.35l-3.03-.52-4.59.12z" class="st5"/><path fill="#3088c4" d="M135.94 215.38h-29.18l1.94-2.62h27.24z"/><path d="M138.62 223.47h-27.24c-3.22 0-5.84-2.62-5.84-5.84s2.62-5.84 5.84-5.84h27.24c3.22 0 5.84 2.62 5.84 5.84s-2.62 5.84-5.84 5.84zm-27.24-9.73c-2.15 0-3.89 1.75-3.89 3.89s1.75 3.89 3.89 3.89h27.24c2.15 0 3.89-1.75 3.89-3.89s-1.75-3.89-3.89-3.89h-27.24z" class="st2"/></g><g><path d="M138.62 212.76h-27.24c-2.69 0-4.86-2.18-4.86-4.86 0-2.69 2.18-4.86 4.86-4.86h27.24c2.69 0 4.86 2.18 4.86 4.86 0 2.69-2.17 4.86-4.86 4.86z" class="st3"/><path d="M133.31 203.15s2.23 6.12-11.67 9.33l10.42.29 8.24-.29 2.22-1.66.97-2.34s-1.13-1.66-.44-2.58c.69-.92-2.12-2.35-2.12-2.35l-3.03-.52-4.59.12z" class="st5"/><path d="M114.34 205.56h5.12c.03 0 .06.03.06.06v1.19c0 .03-.03.06-.06.06h-5.12c-.03 0-.06-.03-.06-.06v-1.19c.01-.03.03-.06.06-.06zM110.42 205.56h2.5c.03 0 .06.03.06.06v1.19c0 .03-.03.06-.06.06h-2.5c-.03 0-.06-.03-.06-.06v-1.19c0-.03.03-.06.06-.06z" class="st4"/><path d="M138.62 213.74h-27.24c-3.22 0-5.84-2.62-5.84-5.84 0-3.22 2.62-5.84 5.84-5.84h27.24c3.22 0 5.84 2.62 5.84 5.84 0 3.22-2.62 5.84-5.84 5.84zm-27.24-9.73c-2.15 0-3.89 1.75-3.89 3.89 0 2.15 1.75 3.89 3.89 3.89h27.24c2.15 0 3.89-1.75 3.89-3.89 0-2.15-1.75-3.89-3.89-3.89h-27.24z" class="st2"/></g></g></svg>