<svg xmlns="http://www.w3.org/2000/svg" viewBox="0 0 250 250"><defs/><style>.st0{fill:#a5a5a5}.st1{fill:#4c4c4c}.st2{fill:#dbd8d2}.st3{fill:#62ddfc}.st4{fill:#00b7ff}</style><g id="hamer"><path d="M119.43 58.09V85.9c1.91-.29 3.85-.44 5.8-.44 1.95 0 3.89.15 5.8.44V58.09h-11.6zm0 0" class="st0"/><path d="M132.15 88l-1.22-.19a38.28 38.28 0 00-11.41 0l-1.21.19V56.18h13.84V88zm-11.6-27.99v23.81c3.13-.37 6.26-.37 9.36 0V60.01h-9.36z" class="st1"/><path d="M125.23 48.04c-1.6 0-2.89-1.29-2.89-2.89v-7.97c0-1.6 1.29-2.89 2.89-2.89s2.89 1.29 2.89 2.89v7.97c0 1.6-1.29 2.89-2.89 2.89zm0 0" class="st0"/><path d="M125.23 49.17a4.01 4.01 0 01-4.01-4.01v-7.97a4.01 4.01 0 118.02 0v7.97a4.01 4.01 0 01-4.01 4.01zm0-13.75c-.97 0-1.77.79-1.77 1.77v7.97c0 .98.8 1.77 1.77 1.77s1.77-.79 1.77-1.77v-7.97c0-.98-.8-1.77-1.77-1.77z" class="st1"/><g><path d="M138.48 44.32H112c-2.55 0-4.64 2.09-4.64 4.64v4.83c0 2.55 2.09 4.64 4.64 4.64h26.48c2.55 0 4.64-2.09 4.64-4.64v-4.83c0-2.55-2.09-4.64-4.64-4.64zm0 0" class="st2"/><path d="M123.62 53.8v-4.83c0-2.55 2.09-4.64 4.64-4.64h-16.27c-2.55 0-4.64 2.09-4.64 4.64v4.83c0 2.55 2.09 4.64 4.64 4.64h16.27c-2.55 0-4.64-2.09-4.64-4.64zm0 0" class="st0"/><path d="M138.48 59.56H112c-3.18 0-5.76-2.58-5.76-5.76v-4.83c0-3.18 2.58-5.76 5.76-5.76h26.48c3.17 0 5.76 2.58 5.76 5.76v4.83c-.01 3.17-2.59 5.76-5.76 5.76zm-26.49-14.12c-1.94 0-3.52 1.58-3.52 3.52v4.83c0 1.94 1.58 3.52 3.52 3.52h26.48c1.94 0 3.51-1.58 3.51-3.52v-4.83c0-1.94-1.58-3.52-3.51-3.52h-26.48z" class="st1"/></g></g><g id="bells"><path d="M204.91 66.96l4.45-4.99c1.55-1.73 1.45-4.33-.21-5.81l-2.64-2.36c-1.66-1.48-4.25-1.28-5.8.45l-4.45 4.98 8.65 7.73zm0 0" class="st2"/><path d="M204.98 58.48c1.22-1.37 2.95-2 4.6-1.86-.13-.16-.27-.32-.43-.46l-2.64-2.36c-1.66-1.48-4.25-1.28-5.8.45l-4.45 4.98 4.48 4 4.24-4.75zm0 0" class="st0"/><path d="M205 68.54l-10.33-9.22 5.2-5.82a5.356 5.356 0 013.6-1.8c1.5-.07 2.75.34 3.78 1.26l2.65 2.36a5.03 5.03 0 011.68 3.61c.05 1.39-.44 2.73-1.38 3.78l-5.2 5.83zm-7.16-9.39l6.98 6.23 3.71-4.15c.55-.62.84-1.41.81-2.22-.03-.79-.36-1.5-.93-2.01l-2.65-2.36c-.58-.51-1.33-.78-2.11-.7-.81.06-1.56.43-2.11 1.06l-3.7 4.15z" class="st1"/><path d="M45.41 66.8l-4.36-4.88c-1.51-1.69-1.39-4.27.26-5.75l2.64-2.36c1.66-1.48 4.23-1.31 5.74.38l4.36 4.88-8.64 7.73zm0 0" class="st2"/><path d="M46.51 59.03a5.743 5.743 0 01-1.04-6.06c-.54.16-1.06.44-1.51.84l-2.64 2.36c-1.66 1.48-1.78 4.06-.26 5.75l4.36 4.88 4.47-3.99-3.38-3.78zm0 0" class="st0"/><path d="M45.33 68.38l-5.11-5.73a5.17 5.17 0 01-1.34-3.79c.07-1.37.67-2.63 1.69-3.53l2.65-2.36c2.13-1.88 5.4-1.67 7.32.47l5.11 5.73-10.32 9.21zm1.28-14.46c-.68 0-1.37.24-1.91.72L42.06 57c-.56.51-.9 1.21-.95 1.98-.04.8.23 1.57.77 2.18l3.62 4.05 6.97-6.23-3.61-4.05a2.99 2.99 0 00-2.25-1.01z" class="st1"/><g><path d="M178.93 95.97l10.24-11.29-8.65-7.72-10.24 11.28c3.08 2.35 5.97 4.94 8.65 7.73zm0 0" class="st2"/><path d="M185.31 81.23l-4.79-4.28-10.24 11.28c3.08 2.35 5.97 4.94 8.65 7.73l4.02-4.44c-.37-.33-.75-.65-1.13-.98-1.53-1.3-1.7-3.6-.35-5.09l3.84-4.22zm0 0" class="st0"/><path d="M178.94 97.61l-.82-.87a75.457 75.457 0 00-8.52-7.61l-.96-.74 11.81-13.01 10.33 9.22-11.84 13.01zm-7.01-9.52c2.46 1.95 4.8 4.04 6.97 6.23l8.68-9.57-6.98-6.23-8.67 9.57z" class="st1"/></g><g><path d="M80.19 88.24L69.95 76.96l-8.65 7.72 10.24 11.29c2.68-2.79 5.57-5.38 8.65-7.73zm0 0" class="st2"/><path d="M72.86 88.08c-1.7-1.88-1.55-4.78.34-6.46l.54-.48-3.79-4.18-8.65 7.72 10.24 11.29c1.45-1.51 2.97-2.96 4.54-4.34l-3.22-3.55zm0 0" class="st0"/><path d="M71.51 97.61L59.7 84.6l10.33-9.22 11.81 13.01-.96.74c-3.01 2.3-5.89 4.86-8.53 7.61l-.84.87zm-8.62-12.85l8.67 9.57c2.2-2.22 4.55-4.31 6.98-6.24l-8.67-9.56-6.98 6.23z" class="st1"/></g><g><path d="M211.09 71.89l-20.43-18.24c-6.56-5.85-16.71-5.28-22.56 1.28l-3.28 3.68c-1.58 1.77-1.43 4.52.35 6.11l37.82 33.76c1.77 1.58 4.52 1.43 6.11-.34l3.28-3.68c5.84-6.56 5.27-16.72-1.29-22.57zm0 0" class="st3"/><path d="M183.05 64.71c-1.77-1.58-1.93-4.33-.35-6.11l3.28-3.67c.9-1.01 1.9-1.87 2.98-2.6-6.51-4.39-15.49-3.42-20.86 2.6l-3.28 3.67c-1.58 1.77-1.43 4.52.35 6.11l37.82 33.77c1.77 1.58 4.52 1.43 6.11-.35l3.28-3.68c.6-.67 1.13-1.39 1.6-2.13l-30.93-27.61zm0 0" class="st4"/><path d="M205.86 101.81a6.56 6.56 0 01-4.37-1.66l-37.81-33.76a6.576 6.576 0 01-.53-9.27l3.28-3.68c6.7-7.5 18.26-8.13 25.73-1.46l20.44 18.24c3.61 3.23 5.76 7.69 6.03 12.56.28 4.88-1.35 9.55-4.58 13.16l-3.28 3.68a6.59 6.59 0 01-4.91 2.19zm-25.84-49.97c-3.78 0-7.54 1.54-10.25 4.58l-3.28 3.68c-.76.86-.69 2.18.17 2.95l37.81 33.76c.85.74 2.19.67 2.94-.17l3.28-3.68c2.44-2.72 3.66-6.25 3.45-9.92-.2-3.68-1.82-7.04-4.55-9.47l-20.43-18.24a13.645 13.645 0 00-9.14-3.49z" class="st1"/><g><path d="M39.38 71.89l20.43-18.24c6.56-5.85 16.71-5.28 22.56 1.28l3.28 3.68c1.58 1.77 1.43 4.52-.35 6.11L47.49 98.47c-1.77 1.58-4.52 1.43-6.11-.34l-3.28-3.68c-5.86-6.55-5.28-16.71 1.28-22.56zm0 0" class="st3"/><path d="M57.26 71.89l20.43-18.24c.54-.48 1.11-.92 1.7-1.32-5.91-3.98-14.04-3.63-19.58 1.32L39.38 71.89c-6.56 5.85-7.13 16.01-1.28 22.56l3.28 3.68c1.58 1.77 4.33 1.93 6.11.35l6.89-6.16c-4.07-6.47-3-15.18 2.88-20.43zm0 0" class="st4"/><path d="M44.62 101.81c-.13 0-.25 0-.39-.01-1.75-.1-3.36-.87-4.52-2.18l-3.29-3.67c-6.69-7.49-6.04-19.03 1.45-25.73L58.3 51.98c7.48-6.68 19.03-6.05 25.73 1.45l3.29 3.68a6.55 6.55 0 011.66 4.74c-.11 1.76-.88 3.37-2.19 4.53l-37.8 33.76a6.52 6.52 0 01-4.37 1.67zm-3.75-28.24c-2.72 2.43-4.35 5.8-4.55 9.47-.21 3.68 1.01 7.2 3.44 9.92l3.29 3.68c.37.41.88.65 1.43.69.67 0 1.1-.16 1.52-.53l37.8-33.76c.42-.37.67-.88.69-1.44.04-.56-.15-1.09-.52-1.5l-3.29-3.68c-5.05-5.66-13.75-6.14-19.39-1.1L40.87 73.57z" class="st1"/></g></g></g><g id="body"><path d="M179.23 199.78c-5.66 5.87-12.23 10.83-19.5 14.62.28 7.98 6.75 14.36 14.68 14.36 8.12 0 14.7-6.67 14.7-14.9 0-6.52-4.13-12.06-9.88-14.08zm0 0" class="st3"/><path d="M176.15 220.89c-1.66-3.13-.57-7.01 2.46-8.85a74.16 74.16 0 008.37-5.9c-1.76-2.94-4.5-5.21-7.75-6.36-5.66 5.87-12.23 10.83-19.5 14.62.28 7.98 6.75 14.36 14.68 14.36 2.68 0 5.19-.73 7.35-2a14.876 14.876 0 01-5.61-5.87zm0 0" class="st4"/><path d="M174.41 231c-9.15 0-16.59-7.25-16.93-16.51l-.05-1.41 1.26-.66a73.365 73.365 0 0018.92-14.19l1-1.04 1.36.48c6.81 2.4 11.38 8.91 11.38 16.19.01 9.45-7.6 17.14-16.94 17.14zm-12.31-15.31c.87 6.17 6.04 10.83 12.32 10.83 6.87 0 12.46-5.68 12.46-12.65 0-4.91-2.8-9.35-7.1-11.43-5.26 5.25-11.2 9.7-17.68 13.25z" class="st1"/><path d="M71.23 199.78c-5.75 2.02-9.88 7.56-9.88 14.08 0 8.23 6.58 14.9 14.7 14.9 7.94 0 14.4-6.38 14.68-14.36a75.949 75.949 0 01-19.5-14.62zm0 0" class="st3"/><path d="M76.05 213.86c0-2.82.78-5.47 2.12-7.71-2.44-1.98-4.76-4.1-6.93-6.36-5.75 2.02-9.88 7.56-9.88 14.08 0 8.23 6.58 14.9 14.7 14.9 2.68 0 5.18-.73 7.34-2-4.4-2.58-7.35-7.39-7.35-12.91zm0 0" class="st4"/><path d="M76.05 231c-9.34 0-16.93-7.69-16.93-17.14 0-7.29 4.57-13.8 11.37-16.19l1.36-.48 1 1.04a73.755 73.755 0 0018.93 14.19l1.25.66-.05 1.41c-.33 9.26-7.77 16.51-16.93 16.51zm-5.36-28.57c-4.29 2.08-7.09 6.51-7.09 11.43 0 6.98 5.58 12.65 12.45 12.65 6.28 0 11.46-4.66 12.33-10.83a77.421 77.421 0 01-17.69-13.25z" class="st1"/><g><path d="M200.71 147.45c0 41.69-33.79 75.48-75.48 75.48s-75.48-33.79-75.48-75.48c0-41.69 33.79-75.48 75.48-75.48 20.02 0 39.22 7.95 53.37 22.11a75.445 75.445 0 0122.11 53.37zm0 0" class="st3"/><path d="M67.64 147.45c0-38.66 29.07-70.53 66.54-74.95-2.93-.35-5.92-.53-8.94-.53-41.69 0-75.48 33.79-75.48 75.48 0 41.69 33.79 75.48 75.48 75.48 3.03 0 6.01-.18 8.94-.53-37.47-4.42-66.54-36.29-66.54-74.95zm0 0" class="st4"/><path d="M125.23 225.17c-42.85 0-77.72-34.86-77.72-77.72s34.87-77.73 77.72-77.73c20.76 0 40.28 8.09 54.96 22.76 14.67 14.69 22.76 34.21 22.76 54.96.01 42.87-34.86 77.73-77.72 77.73zm0-150.96C84.85 74.21 52 107.07 52 147.45s32.85 73.24 73.23 73.24c40.39 0 73.24-32.85 73.24-73.24 0-19.56-7.61-37.95-21.45-51.79-13.83-13.83-32.23-21.45-51.79-21.45z" class="st1"/></g><g><path d="M189.12 147.45c0 35.28-28.6 63.88-63.88 63.88s-63.88-28.6-63.88-63.88 28.6-63.88 63.88-63.88 63.88 28.6 63.88 63.88zm0 0" class="st2"/><path d="M79.24 147.45c0-32.19 23.93-58.89 54.94-63.25-2.92-.41-5.91-.63-8.94-.63-35.22 0-63.88 28.66-63.88 63.88s28.66 63.88 63.88 63.88c3.03 0 6.02-.22 8.94-.63-31.01-4.36-54.94-31.06-54.94-63.25zm0 0" class="st0"/><path d="M125.23 80.68c-36.82 0-66.77 29.95-66.77 66.77 0 36.82 29.95 66.77 66.77 66.77S192 184.27 192 147.45c.01-36.82-29.95-66.77-66.77-66.77zm32.96 118.07l-2.06-3.56a2.895 2.895 0 00-3.95-1.06c-1.38.8-1.86 2.57-1.06 3.95l2.06 3.57a60.514 60.514 0 01-25.06 6.72v-4.13c0-1.6-1.29-2.89-2.89-2.89s-2.89 1.29-2.89 2.89v4.13c-9-.42-17.49-2.8-25.06-6.72l2.06-3.57c.8-1.38.32-3.15-1.06-3.95-1.38-.8-3.15-.32-3.95 1.06l-2.06 3.56c-7.34-4.73-13.61-11-18.34-18.34l3.56-2.06c1.38-.8 1.86-2.57 1.06-3.95a2.895 2.895 0 00-3.95-1.06l-3.57 2.06a60.514 60.514 0 01-6.72-25.06h4.13c1.6 0 2.89-1.29 2.89-2.89s-1.29-2.89-2.89-2.89h-4.13c.42-9 2.8-17.49 6.72-25.06l3.57 2.06c.46.26.95.39 1.44.39a2.895 2.895 0 001.45-5.4l-3.56-2.06c4.73-7.34 11-13.61 18.34-18.34l2.06 3.56c.54.93 1.51 1.45 2.51 1.45.49 0 .99-.12 1.44-.39 1.38-.8 1.86-2.57 1.06-3.95l-2.06-3.57c7.57-3.92 16.06-6.3 25.06-6.72v4.13c0 1.6 1.29 2.89 2.89 2.89s2.89-1.29 2.89-2.89v-4.13c9 .42 17.49 2.8 25.06 6.72l-2.06 3.57a2.895 2.895 0 002.5 4.34c1 0 1.97-.52 2.51-1.45l2.06-3.56c7.34 4.73 13.61 11 18.34 18.34l-3.56 2.06a2.895 2.895 0 001.45 5.4c.49 0 .99-.12 1.44-.39l3.57-2.06c3.92 7.57 6.3 16.06 6.72 25.06h-4.13c-1.6 0-2.89 1.29-2.89 2.89s1.3 2.89 2.89 2.89h4.13c-.42 9-2.8 17.49-6.72 25.06l-3.57-2.06c-1.38-.8-3.15-.32-3.95 1.06-.8 1.38-.32 3.15 1.06 3.95l3.56 2.06c-4.73 7.34-11 13.6-18.34 18.34zm0 0" class="st1"/></g></g><g id="arms"><path d="M125.23 140.3c-1.6 0-2.89-1.29-2.89-2.89V100c0-1.6 1.29-2.89 2.89-2.89s2.89 1.29 2.89 2.89v37.4c0 1.6-1.29 2.9-2.89 2.9zm0 0" class="st1"/><path fill="#ff567a" d="M114.16 147.45c0-2.11.56-4.08 1.52-5.8H90.77c-3.2 0-5.8 2.6-5.8 5.8 0 3.2 2.6 5.8 5.8 5.8h24.91c-.96-1.72-1.52-3.69-1.52-5.8zm0 0"/><path fill="#ce4166" d="M100.33 147.45c0-3.2 2.6-5.8 5.8-5.8H90.77c-3.2 0-5.8 2.6-5.8 5.8 0 3.2 2.6 5.8 5.8 5.8h15.36c-3.2 0-5.8-2.6-5.8-5.8zm0 0"/></g><g id="center"><path d="M137.08 147.45c0 6.54-5.3 11.84-11.84 11.84s-11.84-5.3-11.84-11.84 5.3-11.84 11.84-11.84 11.84 5.3 11.84 11.84zm0 0" class="st0"/><path d="M125.23 147.45c0-4.37 2.39-8.2 5.92-10.25a11.75 11.75 0 00-5.92-1.59c-6.53 0-11.84 5.31-11.84 11.84s5.31 11.84 11.84 11.84c2.16 0 4.18-.58 5.92-1.59-3.53-2.05-5.92-5.88-5.92-10.25zm0 0" class="st1"/></g></svg>